<?xml version="1.0" standalone="no"?>
<!DOCTYPE svg PUBLIC "-//W3C//DTD SVG 1.1//EN" "http://www.w3.org/Graphics/SVG/1.1/DTD/svg11.dtd" >
<svg xmlns="http://www.w3.org/2000/svg" xmlns:xlink="http://www.w3.org/1999/xlink" version="1.1">
<metadata>
Created by FontForge 20170731 at Wed Dec 31 14:28:38 1913
 By Aleksey,,,
(c) 1992, Tilde Ltd. AG Fonts Collection. Created by Andrejs Grinbergs.
</metadata>
<defs>
<font id="Garamond" horiz-adv-x="560" >
  <font-face 
    font-family="Garamond"
    font-weight="400"
    font-stretch="normal"
    units-per-em="1000"
    panose-1="0 0 0 0 0 0 0 0 0 0"
    ascent="800"
    descent="-200"
    x-height="439"
    cap-height="623"
    bbox="-93 -247 1066 801"
    underline-thickness="20"
    underline-position="-163"
    unicode-range="U+0020-2122"
  />
<missing-glyph horiz-adv-x="753" 
d="M47 0v753h659v-753h-659zM659 47v659h-565v-659h565z" />
    <glyph glyph-name=".notdef" horiz-adv-x="753" 
d="M47 0v753h659v-753h-659zM659 47v659h-565v-659h565z" />
    <glyph glyph-name=".null" horiz-adv-x="0" 
 />
    <glyph glyph-name="nonmarkingreturn" horiz-adv-x="320" 
 />
    <glyph glyph-name="space" unicode=" " horiz-adv-x="320" 
 />
    <glyph glyph-name="exclam" unicode="!" horiz-adv-x="220" 
d="M109 -12q-20 0 -31.5 14.5t-11.5 35.5q0 22 11.5 36.5t33.5 14.5q20 0 31.5 -14.5t11.5 -36.5q0 -20 -12 -35t-33 -15zM96 213l-30 367q0 25 11.5 42t35.5 17q22 0 31.5 -16t9.5 -40l-33 -364q0 -13 -0.5 -23t-4 -17t-9.5 -7q-8 0 -9.5 14.5t-1.5 26.5z" />
    <glyph glyph-name="quotedbl" unicode="&#x22;" horiz-adv-x="340" 
d="M127 558l-23 -204q-1 -9 -3 -20t-10 -11t-10 13.5t-2 17.5l-16 204q-1 16 -1 26q0 25 6.5 40t25.5 15t27 -16t8 -40q0 -11 -2 -25zM271 558l-23 -204q-1 -9 -3 -20t-10 -11t-10 13.5t-2 17.5l-16 204q-1 16 -1 26q0 25 6.5 40t25.5 15t27 -16t8 -40q0 -11 -2 -25z" />
    <glyph glyph-name="numbersign" unicode="#" horiz-adv-x="500" 
d="M410 534l-31 -85l-6 -18q0 -6 7.5 -6.5t13.5 -0.5h82h13t8 -6q0 -3 -2.5 -10t-2.5 -8q-8 -21 -9.5 -22.5t-18.5 -1.5h-93q-17 0 -19.5 -6t-5.5 -13l-27 -73l-5 -17q0 -6 7 -6.5t13 -0.5h82q6 0 13.5 -0.5t7.5 -6.5q0 -4 -2 -8.5t-5 -12t-7 -18.5q-2 -2 -19 -2h-94
q-16 0 -17 -1t-7 -18l-39 -109l-6 -14q-3 -4 -11 -4q-13 0 -13 6l6 18l35 97l6 18q0 6 -9 6.5t-11 0.5h-80q-16 0 -17 -1t-7 -18l-39 -109q-3 -8 -5.5 -13.5t-11.5 -5.5q-11 0 -11 7q0 4 1 8.5t4 9.5l35 97q6 9 6 18q0 7 -7.5 7h-11.5h-78q-6 0 -12.5 0.5t-6.5 5.5
q0 3 1.5 7.5t4.5 10.5q3 11 7 22q2 2 18 2h89h12q6 0 8.5 6t3.5 12l27 73l6 18q0 6 -9.5 6.5t-11.5 0.5h-77q-20 0 -20 6q0 4 1 8.5t4 9.5q8 20 10 22t18 2h88q7 0 13 0.5t11 18.5l36 96q2 7 4.5 13t10.5 6q12 0 12 -7q0 -3 -2 -7.5t-4 -9.5l-31 -85l-6 -18q0 -7 8 -7h13h79
q18 0 20.5 6t4.5 13l36 96q6 19 15 19q13 0 13 -7q0 -4 -2 -8.5t-4 -8.5zM304 375h-80h-11q-7 0 -13 -18l-28 -74l-5 -17q0 -6 7.5 -6.5t13.5 -0.5h79h11q7 0 14 18l26 74q3 8 6 17q0 6 -6.5 6.5t-13.5 0.5z" />
    <glyph glyph-name="dollar" unicode="$" horiz-adv-x="500" 
d="M258 710v-57v-13q0 -18 18 -18q21 0 43 -4t44 -10q9 -3 17 -6t11.5 -9.5t3.5 -27.5q-1 -17 -1 -23v-46q0 -12 -8 -12t-12 13t-5 15q-11 38 -34 62q-28 29 -64 29q-13 0 -13 -14v-173q0 -27 4.5 -33.5t30.5 -17.5q65 -29 98 -65q40 -45 40 -110q0 -57 -43 -107t-99 -61
q-24 -5 -27.5 -9.5t-3.5 -30.5v-72q0 -6 -10 -6q-9 0 -10 1.5t-1 8t-1 18.5v50v12q0 10 -2.5 14.5t-13.5 4.5q-60 0 -116 26q-10 4 -20.5 9.5t-12.5 11.5t-3 18.5t-1 23.5v12v17q0 27 3 45t13 18q6 0 8.5 -5.5t3.5 -14.5q9 -59 21.5 -82t36.5 -39q13 -9 32.5 -15t35.5 -6
q11 0 13 8.5t2 24.5v207q0 23 -2 28t-20 12q-61 23 -95 57q-43 42 -43 100q0 55 42.5 99.5t97.5 52.5q20 2 20 17v14v58q-1 8 -1 12q0 14 11 14q13 0 13 -10q-1 -10 -1 -16zM236 425v145v19q-2 12 -13 12q-36 0 -63 -30t-27 -66t23 -62q16 -18 55 -41l10 -4t6 -2q7 0 9 12
v17zM258 256v-211q0 -10 8 -10q5 0 19.5 5.5t20.5 9.5q62 36 62 105q0 41 -20.5 69t-59.5 51q-1 1 -9.5 5.5t-10.5 4.5q-8 0 -10 -12v-17z" />
    <glyph glyph-name="percent" unicode="%" horiz-adv-x="760" 
d="M153 243q-62 0 -102 70q-34 60 -34 128t33 127q40 71 104 71q29 0 54.5 -17t44 -45t27 -62.5t8.5 -73.5q0 -38 -7.5 -70t-25 -61t-44.5 -48t-58 -19zM154 260q50 0 69 68q12 42 12 109q0 69 -11 108q-19 69 -70 69q-50 0 -71 -68q-13 -43 -13 -109t13 -109q21 -68 71 -68
zM603 609l-410 -598q-5 -7 -10 -14.5t-14 -7.5l-15 -1q-6 0 -6 6q0 4 4.5 11t8.5 11l409 599q5 8 11 16t18 8q15 0 15 -9q0 -5 -4 -10.5t-7 -10.5zM612 -12q-63 0 -102 70q-34 60 -34 128q0 70 33 128q40 70 103 70q31 0 55.5 -16t43 -44.5t27 -64t8.5 -73.5q0 -36 -7.5 -69
t-24.5 -62t-43.5 -48t-58.5 -19zM613 10q50 0 69 68q12 42 12 109q0 69 -11 109q-19 69 -70 69t-72 -68q-13 -42 -13 -110q0 -67 13 -109q21 -68 72 -68z" />
    <glyph glyph-name="ampersand" unicode="&#x26;" horiz-adv-x="700" 
d="M501 149l55 -64q33 -39 48 -49q25 -17 63 -17q24 -3 24 -13q0 -7 -6.5 -8.5t-16.5 -1.5q-21 0 -69 2t-51 2q-21 0 -69 -2t-51 -2q-14 0 -14 11q0 10 17 10q28 0 40.5 6.5t12.5 19.5q0 11 -10 25q-2 2 -18 22q-6 8 -11 13q-10 11 -15 11q-3 0 -17 -14l-7 -7
q-56 -54 -91 -75q-53 -32 -113 -32q-75 0 -127 46q-56 49 -56 123q0 53 29 92q14 20 36.5 35.5t49.5 27.5t39 18q39 20 39 25q-29 33 -50 70q-24 41 -24 80q0 62 55 101q49 35 114 35q69 0 115 -31q52 -35 52 -100q0 -44 -31 -67q-20 -15 -45 -28q-12 -6 -49 -23l-27 -12
q-15 -9 -15 -13q0 -3 7 -11t9 -10l115 -125q8 -10 10 -12q8 -8 14 -8q8 0 16 10l10 15q15 19 33 48q23 37 23 51q0 16 -13 22t-31 6h-20q-13 2 -13 11q0 11 22 11q15 0 41 -2.5t32 -2.5q25 0 40 1q60 4 66 4q18 0 18 -10q0 -7 -6 -9.5t-14 -2.5q-19 0 -31.5 -3.5t-28.5 -15
t-33 -31.5q-9 -11 -52 -68q-16 -22 -27 -38t-11 -19q0 -7 6 -14t12 -13zM411 139l-5 5l-151 166q-10 12 -11 13q-10 10 -16 10q-5 0 -27.5 -11t-28.5 -15q-38 -21 -59 -52.5t-21 -72.5q0 -61 42 -104t104 -43q45 0 81.5 18t71.5 53q6 6 13.5 15.5t6.5 17.5zM261 415l31 -26
q7 0 23 8q7 3 22 12q39 20 56 44t17 66q0 44 -31 74t-76 30t-75 -23.5t-30 -67.5q0 -28 21 -63q14 -23 42 -54z" />
    <glyph glyph-name="quotesingle" unicode="'" horiz-adv-x="200" 
d="M79 354l-16 204q-1 16 -1 26q0 25 6.5 40t25.5 15t27 -16t8 -40q0 -11 -2 -25l-23 -204q-1 -9 -3 -20t-10 -11t-10 13.5t-2 17.5z" />
    <glyph glyph-name="parenleft" unicode="(" horiz-adv-x="360" 
d="M37 295q0 83 27.5 151.5t85 130.5t126.5 97q25 11 44.5 19t23.5 8q9 0 9 -7q0 -5 -6 -7q-123 -46 -182 -154q-52 -96 -52 -237q0 -143 51 -238q58 -107 183 -154q6 -2 6 -6q0 -8 -9 -8q-15 0 -56 21q-30 15 -52 30q-89 59 -143 148q-30 48 -43 97.5t-13 108.5z" />
    <glyph glyph-name="parenright" unicode=")" horiz-adv-x="360" 
d="M316 295q0 -58 -13.5 -108t-42.5 -98q-54 -89 -143 -148q-18 -12 -51 -29q-43 -22 -56 -22q-10 0 -10 8q0 4 7 6q123 46 182 154q52 96 52 238q0 143 -51 237q-58 107 -183 154q-7 2 -7 7q0 7 9 7t36 -12.5t32 -14.5q33 -17 66 -42.5t60 -54.5q58 -62 85.5 -129.5
t27.5 -152.5z" />
    <glyph glyph-name="asterisk" unicode="*" horiz-adv-x="340" 
d="M242 511l-32 -4q-28 -6 -28 -15q0 -10 58.5 -18t58.5 -39q0 -12 -9.5 -21.5t-21.5 -9.5q-21 0 -50 37t-39 37q-8 0 -8 -9q0 -2 19 -53q10 -27 10 -40q0 -31 -34 -31t-34 32q0 13 9.5 39t19.5 53q0 9 -8 9q-4 0 -48 -50q-21 -24 -41 -24q-13 0 -22 9t-9 22q0 31 58.5 39
t58.5 18t-58.5 18t-58.5 39q0 12 9.5 21.5t21.5 9.5q21 0 50 -37t39 -37q8 0 8 9q0 2 -19 53q-10 27 -10 40q0 31 34 31t34 -32q0 -13 -9.5 -39t-19.5 -53q0 -9 8 -9q4 0 48 50q21 24 41 24q13 0 22 -9t9 -22q0 -20 -19 -29q-12 -6 -38 -9z" />
    <glyph glyph-name="plus" unicode="+" 
d="M58 336h195v194h54v-194h194v-54h-194v-195h-54v195h-195v54z" />
    <glyph glyph-name="comma" unicode="," horiz-adv-x="260" 
d="M124 77q29 0 45 -25.5t16 -55.5q0 -36 -17.5 -76t-43.5 -68q-8 -9 -19 -19q-16 -14 -23 -14q-8 0 -8 8q29 32 52.5 67.5t23.5 65.5q0 28 -32 28q-40 0 -40 41q0 21 12.5 34.5t33.5 13.5z" />
    <glyph glyph-name="hyphen" unicode="-" horiz-adv-x="320" 
d="M279 200h-253l16 51h253z" />
    <glyph glyph-name="period" unicode="." horiz-adv-x="260" 
d="M131 -12q-21 0 -33 14t-12 35q0 22 12.5 35.5t34.5 13.5q21 0 30.5 -14t9.5 -35q0 -23 -10 -36t-32 -13z" />
    <glyph glyph-name="slash" unicode="/" horiz-adv-x="400" 
d="M2 -50l352 728q3 8 7 15.5t14 7.5q5 0 11 -0.5t6 -4.5q0 -5 -3 -10.5t-4 -7.5l-346 -719q-3 -7 -4 -10q-4 -10 -14 -10h-10q-11 -3 -11 5z" />
    <glyph glyph-name="zero" unicode="0" horiz-adv-x="500" 
d="M253 -19q-102 0 -166 119q-54 100 -54 212q0 111 53 210q64 120 166 120q52 0 99 -37q42 -33 69 -84q24 -45 35.5 -99t11.5 -110t-10.5 -108t-33.5 -96q-27 -52 -69 -87q-48 -40 -101 -40zM253 6q48 0 80 40q25 31 40 85q9 33 13.5 84.5t4.5 96.5q0 76 -5.5 117.5
t-16.5 76.5q-15 48 -40 76q-32 36 -76 36q-86 0 -121 -117q-23 -76 -23 -189q0 -115 22 -188q36 -118 122 -118z" />
    <glyph glyph-name="one" unicode="1" horiz-adv-x="500" 
d="M305 626v-514q0 -42 2 -51q8 -34 60 -34h30q16 0 16 -14q0 -13 -16 -13h-273q-17 0 -17 15q0 8 9 10t43 2q51 0 61 14.5t10 68.5v445q0 19 -15 19q-7 0 -16 -4t-13 -6l-58 -26q-10 -4 -19 -7.5t-13 -3.5q-11 0 -11 13q0 7 6 12t24 10l167 73q10 5 14 4q9 -3 9 -13z" />
    <glyph glyph-name="two" unicode="2" horiz-adv-x="500" 
d="M165 77h187q39 0 54.5 10t19.5 39.5t13 29.5t9.5 -7.5t0.5 -14.5v-117q0 -17 -21 -17h-348q-9 -1 -14 -1q-18 0 -18 11q0 4 5 11.5t9 14.5l133 161q80 90 106 128q60 86 60 149q0 58 -37.5 94.5t-95.5 36.5q-46 0 -83 -25t-59 -67q-6 -10 -10 -14t-9 -4q-9 0 -9 9
q0 10 14 33q11 18 21 29q31 38 71.5 55.5t92.5 17.5q75 0 128 -41q58 -45 58 -117q0 -58 -38 -113q-25 -36 -84 -89l-168 -164q-4 -4 -12.5 -16t-8.5 -17q0 -6 19 -6q12 1 14 1z" />
    <glyph glyph-name="three" unicode="3" horiz-adv-x="500" 
d="M219 370l53 5q79 0 131.5 -49.5t52.5 -126.5q0 -56 -24.5 -105.5t-67.5 -88.5q-48 -43 -102 -69q-62 -30 -118 -30q-38 0 -65 13q-37 18 -37 51q0 17 10 28t27 11q16 0 29 -12q9 -8 18.5 -24.5t13.5 -21.5q12 -14 35 -14q30 0 68 17.5t62 38.5q36 30 57.5 74.5t21.5 91.5
q0 73 -44 122t-118 49q-29 0 -57 -8.5t-57 -24.5q-3 -1 -11.5 -5t-11.5 -4q-11 0 -11 11q0 9 16 18l32 22l122 78q77 58 77 111q0 38 -28.5 60t-67.5 22q-34 0 -66.5 -19.5t-50.5 -49.5q-3 -5 -7 -11t-9 -6q-10 0 -10 12q0 10 11 26q8 12 19 23q26 27 62.5 40.5t76.5 13.5
q58 0 99 -27q48 -32 48 -86q0 -46 -51 -83q-12 -9 -52 -31z" />
    <glyph glyph-name="four" unicode="4" horiz-adv-x="500" 
d="M378 166v-85q0 -31 3 -40q7 -21 52 -21q5 0 14 -1t9 -12t-16 -11t-53.5 2t-40.5 2q-18 0 -62.5 -2t-47.5 -2q-14 0 -14 10q0 14 21 14h15q13 0 25.5 4t17 13.5t4.5 25.5v18v85v12q0 18 -5.5 20t-17.5 2h-11h-212q-17 -1 -22 -1q-8 0 -10 3t-2 17q0 9 7.5 18.5t11.5 14.5
l338 448q8 13 22 13q13 0 13 -8q0 -4 -5 -11l-330 -432q-5 -7 -9 -12q-9 -12 -9 -15q0 -7 16 -7q10 1 12 1h180h12q13 0 17 2t4 20v14v181q0 14 3 15l60 22q7 2 8.5 -9.5t1.5 -26.5v-192q0 -23 10 -23h77q6 0 7 -8t1 -13q0 -11 -10 -11h-36h-31q-14 0 -16 -4t-2 -12v-18z
" />
    <glyph glyph-name="five" unicode="5" horiz-adv-x="500" 
d="M359 576l-187 -25q-33 -4 -39.5 -5.5t-16.5 -35.5l-12 -42l-6 -24q0 -9 11 -11t15 -2l38 -4q60 -6 98 -14q53 -12 94 -35.5t66 -69t25 -95.5q0 -69 -47 -130q-40 -52 -108 -91q-30 -17 -65 -30t-70 -21t-46 -10q-31 -6 -42 -6q-13 0 -13 10q0 12 19 12q38 0 90.5 17
t91.5 38q53 29 88.5 80t35.5 108q0 61 -37 100q-33 35 -95 52q-36 9 -87.5 17t-87.5 8q-15 0 -15 9l6 22l54 185q7 26 12.5 30.5t34.5 8.5l229 31q7 2 11 2q8 0 8 -8l-7 -30l-7 -27q-3 -10 -20 -12z" />
    <glyph glyph-name="six" unicode="6" horiz-adv-x="500" 
d="M405 734q8 4 14 6q22 9 29 9q12 0 12 -11q0 -6 -13 -11l-10 -4q-62 -22 -124 -66.5t-105 -97.5q-101 -123 -101 -286q0 -93 34 -170q44 -100 126 -100q28 0 51.5 14.5t39.5 38.5q20 30 28.5 64t8.5 75t-8.5 78.5t-27 65t-40.5 41t-51 13.5q-26 0 -46 -13q-18 -15 -36 -29
q-8 0 -8 10q0 8 9 18q3 4 16 15q18 15 41 22.5t48 7.5q81 0 131 -66q45 -60 45 -144q0 -93 -55 -160q-59 -72 -151 -72q-104 0 -171 99q-59 88 -59 198q0 74 33 148q29 65 82.5 127t116.5 105.5t141 74.5z" />
    <glyph glyph-name="seven" unicode="7" horiz-adv-x="500" 
d="M146 -46l245 556q3 6 6.5 13.5t3.5 12.5q0 13 -19 13h-284q-13 0 -23 -0.5t-25 -6.5l-10 -4q-3 0 -5 6.5t-2 8.5l-4 52q0 11 2.5 15.5t12.5 4.5h395q6 0 19 -0.5t13 -11.5q0 -4 -3 -10t-5 -11l-276 -619q-3 -8 -6 -17q-4 -6 -14 -6h-14q-7 2 -7 4z" />
    <glyph glyph-name="eight" unicode="8" horiz-adv-x="500" 
d="M161 302l30 12q-65 23 -99 55q-43 41 -43 102q0 36 19.5 70t49.5 56.5t66.5 33.5t75.5 11q77 0 131 -36q63 -42 63 -115q0 -50 -36 -82q-22 -19 -80 -46l-30 -15q69 -17 113 -57q52 -48 52 -113q0 -39 -17.5 -76t-49.5 -65t-75 -41.5t-91 -13.5q-82 0 -142 44
q-32 24 -52 58t-20 71q0 44 25.5 76.5t109.5 70.5zM278 361q10 0 27 7.5t32 16.5q56 38 56 105q0 60 -41.5 96.5t-102.5 36.5q-29 0 -52 -7.5t-41.5 -24.5t-30.5 -41.5t-12 -47.5q0 -42 25 -73q22 -28 63 -46q12 -5 39 -13.5t38 -8.5zM248 1q38 0 68 12t53 39q35 41 35 95
q0 43 -23 74t-64 52q-12 6 -48 18.5t-46 12.5q-7 0 -21.5 -6.5t-26.5 -15.5q-41 -26 -61 -58.5t-20 -78.5q0 -61 42 -103q21 -22 49.5 -31.5t62.5 -9.5z" />
    <glyph glyph-name="nine" unicode="9" horiz-adv-x="500" 
d="M53 -100q-10 0 -10 10q0 7 17 15q5 2 13 5q60 27 118 75t100 102q49 61 76.5 129t27.5 141q0 80 -33 148q-20 40 -50 65q-35 29 -76 29q-26 0 -49 -11t-39 -31q-21 -26 -31.5 -61.5t-10.5 -72.5q0 -68 31 -122q38 -66 100 -66q25 0 47 12q11 6 23 13q9 0 9 -10
q0 -5 -6 -11q-2 -2 -7 -5q-43 -29 -92 -29q-80 0 -130.5 55t-50.5 136q0 90 61 158t151 68q45 0 88.5 -22t74.5 -59.5t47.5 -86.5t16.5 -101q0 -94 -48 -181q-42 -76 -121 -147q-73 -64 -162 -110q-14 -7 -41 -19q-36 -16 -44 -16z" />
    <glyph glyph-name="colon" unicode=":" horiz-adv-x="260" 
d="M131 274q-21 0 -33 14t-12 35q0 22 12.5 35.5t34.5 13.5q21 0 30.5 -14t9.5 -35q0 -23 -10 -36t-32 -13zM131 -12q-21 0 -33 14t-12 35q0 22 12.5 35.5t34.5 13.5q21 0 30.5 -14t9.5 -35q0 -23 -10 -36t-32 -13z" />
    <glyph glyph-name="semicolon" unicode=";" horiz-adv-x="260" 
d="M124 77q29 0 45 -25.5t16 -55.5q0 -36 -17.5 -76t-43.5 -68q-8 -9 -19 -19q-16 -14 -23 -14q-8 0 -8 8q29 32 52.5 67.5t23.5 65.5q0 28 -32 28q-40 0 -40 41q0 21 12.5 34.5t33.5 13.5zM124 270q-21 0 -33 14t-12 35q0 22 12.5 35.5t34.5 13.5q21 0 30.5 -14t9.5 -35
q0 -23 -10 -36t-32 -13z" />
    <glyph glyph-name="less" unicode="&#x3c;" 
d="M520 125v-55l-472 215v50l472 217v-55l-411 -188z" />
    <glyph glyph-name="equal" unicode="=" 
d="M58 402h443v-54h-443v54zM58 271h443v-54h-443v54z" />
    <glyph glyph-name="greater" unicode="&#x3e;" 
d="M48 125l410 184l-410 188v55l472 -217v-50l-472 -215v55z" />
    <glyph glyph-name="question" unicode="?" horiz-adv-x="300" 
d="M88 -12q-21 0 -33 14t-12 35q0 22 12.5 35.5t34.5 13.5q21 0 30.5 -14t9.5 -35q0 -23 -10 -36t-32 -13zM79 196l-13 72l-3 23q0 17 28 40q17 13 23 17q72 51 95 87.5t23 78.5q0 21 -4 34.5t-16.5 29.5t-29 25.5t-34.5 9.5q-32 0 -57 -43t-39 -43t-20 25.5t-6 47.5
q0 10 2.5 15.5t12.5 11.5t34 9t41 3q66 0 114 -50t48 -116q0 -53 -25 -92q-19 -30 -67 -69l-37 -29q-30 -26 -35 -33q-12 -16 -12 -46v-22q0 -12 -8 -12t-11 10t-4 16z" />
    <glyph glyph-name="at" unicode="@" horiz-adv-x="740" 
d="M623 171h37q-32 -83 -111 -133t-170 -50q-133 0 -224.5 95.5t-91.5 231.5q0 133 91.5 228.5t222.5 95.5q120 0 205.5 -75.5t85.5 -196.5q0 -92 -55 -161q-29 -36 -70.5 -60.5t-82.5 -24.5q-26 0 -46.5 13t-24.5 37q-22 -22 -49 -35.5t-56 -13.5q-48 0 -75.5 35t-27.5 86
q0 92 53 172q60 90 146 90q30 0 55 -13t32 -39l13 40h72l-81 -240q-7 -22 -13 -43q-9 -32 -9 -41q0 -18 22 -18t45 12t42 30q34 31 53.5 79t19.5 98q0 97 -75.5 164.5t-173.5 67.5q-117 0 -199.5 -82.5t-82.5 -201.5q0 -123 79.5 -207.5t200.5 -84.5q75 0 141 39t102 106z
M401 262l42 126q7 18 7 29q0 26 -13 44.5t-38 18.5q-61 0 -110 -112q-42 -96 -42 -168q0 -24 13.5 -38.5t36.5 -14.5q38 0 67 40q21 29 37 75z" />
    <glyph glyph-name="A" unicode="A" horiz-adv-x="640" 
d="M169 187l-30 -75q-6 -16 -10 -29.5t-4 -25.5q0 -21 25 -30q17 -6 42 -6q12 0 19 -2t7 -11q0 -7 -7 -9.5t-17 -2.5q-14 0 -47.5 2t-36.5 2q-14 0 -48 -2t-36 -2q-11 -1 -17 -1q-19 0 -19 12q0 9 8 11.5t20 2.5q19 0 29.5 2.5t20 12.5t21.5 38q9 19 17 42l193 501
q1 5 4.5 13.5t12.5 8.5q8 0 14 -19l202 -502q22 -53 28 -63q22 -34 54 -34q29 0 29 -15q0 -10 -15 -10q-22 0 -66 2t-66 2q-18 0 -62.5 -2t-48.5 -2q-16 0 -16 10t8.5 12.5t20.5 2.5q30 0 41 3q23 7 23 27q0 8 -3 18t-11 31l-32 76q-15 36 -16 38q-8 13 -46 13h-136
q-28 0 -34 -6q-1 -2 -15 -34zM271 457l-69 -182l-3 -12q0 -7 21 -7q13 1 15 1h115h12q17 0 17 8l-7 22l-68 170q-5 14 -9 22t-7 8q-5 0 -11 -13q-5 -15 -6 -17z" />
    <glyph glyph-name="B" unicode="B" horiz-adv-x="640" 
d="M129 107v411v25q0 28 -7 41q-10 18 -38 18q-11 0 -27 -4t-21 -4q-11 0 -11 9q0 10 15.5 15.5t30.5 8.5q39 7 87.5 9.5t110.5 2.5q65 0 112 -4t87.5 -21.5t64.5 -47.5q28 -35 28 -77q0 -55 -44 -93q-37 -32 -95 -44q73 -9 123 -54q56 -50 56 -123q0 -43 -20.5 -79.5
t-55.5 -60t-74.5 -31.5t-88.5 -8q-42 0 -139.5 2t-104.5 2q-10 0 -31 -2t-32 -2q-17 0 -17 15q0 9 10.5 9.5t14.5 0.5q48 0 59 19q7 12 7 67zM208 545v-141q0 -33 7.5 -40.5t41.5 -7.5h54q39 0 69 7t53 29q37 34 37 92q0 70 -52 105q-46 31 -118 31q-40 0 -56 -3.5
t-26 -14.5q-6 -6 -8 -18t-2 -25v-14zM208 290v-161q0 -42 2 -53q6 -31 27 -44q9 -6 35.5 -10.5t60.5 -4.5q42 0 72.5 8t55.5 30.5t38 53t13 63.5q0 93 -77 135q-32 19 -69 24t-90 5h-19t-17 1q-20 0 -26 -8t-6 -39z" />
    <glyph glyph-name="C" unicode="C" horiz-adv-x="620" 
d="M571 561l7 -65q0 -13 -11 -13q-25 50 -67 87q-46 41 -122 41q-119 0 -188 -90q-63 -82 -63 -204q0 -110 62 -196q37 -51 83.5 -78.5t105.5 -27.5q75 0 122 49l72 108q13 0 11 -13l-5 -81q0 -24 -4 -30t-28 -18q-89 -42 -181 -42q-136 0 -231.5 96.5t-95.5 231.5
q0 136 103.5 229.5t243.5 93.5q32 0 79.5 -8t78.5 -19q21 -7 25 -25q0 -2 3 -26z" />
    <glyph glyph-name="D" unicode="D" horiz-adv-x="740" 
d="M119 107v413v24q0 22 -5 32q-8 15 -28 15q-11 0 -23.5 -3.5t-26.5 -7.5q-11 0 -11 11q0 23 113 35.5t174 12.5q72 0 137.5 -18.5t121 -60.5t90 -107t34.5 -135q0 -69 -28 -132t-80 -108.5t-116 -63.5t-143 -18q-38 0 -127 2t-93 2q-11 0 -36.5 -2t-26.5 -2q-17 0 -17 14
q0 8 7 9.5t19 1.5q56 0 63 30q2 9 2 56zM198 540v-415q0 -67 20.5 -88.5t86.5 -21.5q71 0 116 15q56 18 98.5 62.5t63.5 100t21 116.5q0 139 -86 223t-223 84q-30 0 -52.5 -3t-32 -12.5t-11 -23.5t-1.5 -37z" />
    <glyph glyph-name="E" unicode="E" 
d="M195 544v-145q0 -34 8.5 -40.5t41.5 -6.5h41q15 0 33.5 0.5t39 3t28 14.5t14.5 55q3 17 13 17q11 0 11 -10l-5 -86l5 -94q0 -18 -11 -18q-10 0 -13 17q-6 34 -14.5 47.5t-24 17.5t-48 6t-57.5 2h-12q-33 0 -41.5 -5t-8.5 -29v-174q0 -63 32 -81q21 -12 91 -12
q77 0 107 12q45 18 68 78q3 9 8.5 21.5t13.5 12.5q10 0 10 -11q0 -8 -4 -24l-15 -106q-1 -6 -11 -6h-391q-10 0 -31 -2t-31 -2q-17 0 -17 15q0 7 7.5 9.5t18.5 2.5q47 0 58 18q7 12 7 66v407v21q0 37 -11 49t-54 12q-26 0 -26 12q0 15 17 15q32 0 107.5 -2t80.5 -2
q45 0 147 2t108 2q15 0 15 -22q-1 -11 -1 -15v-86v-12q-2 -9 -9 -9q-6 0 -8.5 5l-7.5 15l-15 28q-12 25 -24 37q-15 15 -37.5 22t-45.5 8.5t-65 1.5q-19 0 -41 -0.5t-33 -4.5t-14.5 -13t-3.5 -21v-13z" />
    <glyph glyph-name="F" unicode="F" horiz-adv-x="520" 
d="M116 104v412v21q0 35 -11 47t-54 12q-26 0 -26 14q0 13 17 13q16 0 53.5 -2t40.5 -2q60 0 196.5 2t146.5 2q16 0 16 -23v-12v-70q1 -9 1 -16q0 -23 -11 -23q-6 0 -10 6t-6 15q-18 64 -64 83q-32 13 -112 13q-22 0 -47 -0.5t-38 -6.5q-7 -3 -10 -14t-3 -22v-12v-142
q0 -34 8.5 -40.5t41.5 -6.5h41q15 0 33.5 0.5t39 3t28 14.5t14.5 55q3 17 13 17q11 0 11 -10l-5 -86l5 -94q0 -18 -11 -18q-10 0 -13 17q-6 34 -14.5 47.5t-24 17.5t-48 6t-57.5 2h-12q-33 0 -41.5 -5t-8.5 -29v-186q0 -55 6 -65q11 -18 59 -18q12 0 19 -2t7 -10
q0 -13 -17 -13q-20 0 -64.5 2t-47.5 2q-19 0 -65 -2t-49 -2q-17 0 -17 13q0 9 6.5 10.5t18.5 1.5q57 0 63 28q2 9 2 55z" />
    <glyph glyph-name="G" unicode="G" horiz-adv-x="740" 
d="M608 543l2 -42q0 -20 -15 -20q-22 51 -62 88q-44 41 -130 41q-62 0 -112.5 -21t-87 -65t-55 -101t-18.5 -115q0 -61 16.5 -110.5t56.5 -95t94 -66.5t121 -21q33 0 63.5 6t50.5 22q13 11 16 32.5t3 51.5v83q0 41 -12 53t-56 12q-24 0 -24 12q0 8 7 10.5t16 2.5
q18 0 61.5 -2t46.5 -2q18 0 58.5 2t44.5 2q17 0 17 -12q0 -13 -19 -13l-19 -2q-8 -1 -16 -1q-10 -2 -15.5 -7t-8 -16.5t-2.5 -25.5v-13v-115v-19q0 -11 -3.5 -18.5t-14.5 -14.5q-43 -28 -99 -41.5t-114 -13.5q-72 0 -132.5 18t-111.5 60q-57 47 -86.5 105t-29.5 130
q0 145 118 244q112 94 262 94q44 0 83 -6.5t78 -21.5q21 -8 25 -26q2 -26 3 -42z" />
    <glyph glyph-name="H" unicode="H" horiz-adv-x="740" 
d="M194 283v-179q0 -55 6 -65q11 -18 59 -18q12 0 19 -2t7 -10q0 -13 -17 -13q-20 0 -64.5 2t-47.5 2q-19 0 -65 -2t-49 -2q-17 0 -17 13q0 9 6.5 10.5t18.5 1.5q57 0 63 28q2 9 2 55v410v22q0 37 -9 47q-12 13 -56 13q-25 0 -25 13q0 14 17 14q20 0 64.5 -2t47.5 -2
q19 0 65 2t49 2q17 0 17 -14q0 -8 -7.5 -10.5t-18.5 -2.5q-43 0 -54 -12t-11 -48v-22v-129q0 -28 3.5 -32.5t31.5 -4.5h280q25 0 30 5t5 32v129v22q0 37 -9 47q-12 13 -56 13q-25 0 -25 13q0 14 17 14q20 0 64.5 -2t47.5 -2q19 0 65 2t49 2q17 0 17 -14q0 -8 -7.5 -10.5
t-18.5 -2.5q-43 0 -54 -12t-11 -48v-22v-410q0 -55 6 -65q11 -18 59 -18q12 0 19 -2t7 -10q0 -13 -17 -13q-20 0 -64.5 2t-47.5 2q-19 0 -65 -2t-49 -2q-17 0 -17 13q0 9 6.5 10.5t18.5 1.5q57 0 63 28q2 9 2 55v179q0 28 -4.5 32.5t-30.5 4.5h-277q-27 0 -32.5 -5.5
t-5.5 -31.5z" />
    <glyph glyph-name="I" unicode="I" horiz-adv-x="320" 
d="M116 104v410v22q0 37 -9 47q-12 13 -56 13q-25 0 -25 13q0 14 17 14q20 0 64.5 -2t47.5 -2q19 0 65 2t49 2q17 0 17 -14q0 -8 -7.5 -10.5t-18.5 -2.5q-43 0 -54 -12t-11 -48v-22v-410q0 -55 6 -65q11 -18 59 -18q12 0 19 -2t7 -10q0 -13 -17 -13q-20 0 -64.5 2t-47.5 2
q-19 0 -65 -2t-49 -2q-17 0 -17 13q0 9 6.5 10.5t18.5 1.5q57 0 63 28q2 9 2 55z" />
    <glyph glyph-name="J" unicode="J" horiz-adv-x="320" 
d="M210 514v-396q0 -79 -9 -114q-12 -49 -54 -102q-30 -37 -75 -66q-52 -34 -93 -34q-27 0 -49.5 14t-22.5 40q0 17 13.5 29.5t31.5 12.5q15 0 25.5 -8t20.5 -22t13 -17q9 -8 20 -8q18 0 37 13.5t32 31.5q22 29 28 86q3 26 3 93v447v22q0 37 -9 47q-12 13 -56 13
q-25 0 -25 13q0 14 17 14q20 0 64.5 -2t47.5 -2q19 0 65 2t49 2q17 0 17 -14q0 -8 -7.5 -10.5t-18.5 -2.5q-43 0 -54 -12t-11 -48v-22z" />
    <glyph glyph-name="K" unicode="K" horiz-adv-x="660" 
d="M116 104v410v22q0 37 -9 47q-12 13 -56 13q-25 0 -25 13q0 14 17 14q20 0 64.5 -2t47.5 -2q19 0 65 2t49 2q17 0 17 -14q0 -8 -7.5 -10.5t-18.5 -2.5q-43 0 -54 -12t-11 -48v-22v-186q0 -16 6 -16t11 8l188 189l28 30q21 25 21 35q0 13 -9 17.5t-23 4.5h-18q-12 3 -12 13
q0 14 17 14q20 0 64.5 -2t47.5 -2q17 0 50 2t49 2q15 0 15 -13q0 -9 -9.5 -11.5t-20.5 -2.5q-25 0 -38 -1.5t-31 -9.5t-42.5 -27t-42.5 -38l-107 -108q-9 -8 -15 -14q-10 -11 -10 -17q0 -4 8 -15q2 -3 11 -14l180 -227q23 -30 34 -42q22 -26 37 -39q26 -23 54 -23
q12 0 19 -2t7 -10q0 -13 -22 -13q-21 0 -70.5 2t-53.5 2q-18 0 -61.5 -2t-45.5 -2q-21 0 -21 11q0 9 7 10.5t21 1.5q25 0 32 2q20 6 20 23q0 11 -13 30q-3 4 -22 27l-156 199q-5 6 -10 13q-9 10 -14 10t-16 -11q-7 -7 -15.5 -15t-18.5 -18.5t-10 -21.5v-153q0 -55 6 -65
q11 -18 59 -18q12 0 19 -2t7 -10q0 -13 -17 -13q-20 0 -64.5 2t-47.5 2q-19 0 -65 -2t-49 -2q-17 0 -17 13q0 9 6.5 10.5t18.5 1.5q57 0 63 28q2 9 2 55z" />
    <glyph glyph-name="L" unicode="L" horiz-adv-x="480" 
d="M194 514v-379q0 -65 12 -84q18 -28 80 -28q32 0 60.5 7.5t49.5 25.5q15 12 30 38q12 20 22 45q5 13 12 13q9 0 9 -14q0 -15 -5.5 -53.5t-5.5 -50.5q0 -25 -3 -31.5t-23 -6.5q-50 0 -166.5 2t-123.5 2q-17 0 -50 -2t-50 -2t-17 14q0 13 26 13q48 0 58 17q6 10 6 65v409v22
q0 37 -9 47q-12 13 -56 13q-25 0 -25 13q0 14 17 14q20 0 64.5 -2t47.5 -2q19 0 65 2t49 2q17 0 17 -14q0 -8 -7.5 -10.5t-18.5 -2.5q-43 0 -54 -12t-11 -48v-22z" />
    <glyph glyph-name="M" unicode="M" horiz-adv-x="800" 
d="M219 594l182 -456l206 472q6 13 27 13h111q9 1 14 1q15 0 15 -12q0 -8 -5 -12t-19 -4h-17q-16 0 -19 -1t-8 -7t-7 -18.5t-2 -25.5q1 -20 1 -27v-413q0 -38 1.5 -49.5t9 -20t16.5 -11t23 -2.5h19q12 -2 12 -13q0 -12 -19 -12q-17 0 -55.5 2t-40.5 2q-21 0 -69 -2t-50 -2
q-19 0 -19 12q0 10 8 11.5t23 1.5q14 0 26 3.5t22 11.5t12 24t2 44v453h-7l-222 -520q-4 -9 -5 -11q-4 -7 -10 -7q-10 0 -15 19l-197 507h-7l-29 -412q0 -63 6 -79q12 -33 60 -33q15 0 23 -2t8 -11q0 -12 -22 -12q-15 0 -45 2t-45 2t-51 -2t-38 -2q-16 0 -16 12
q0 8 7.5 10.5t18.5 2.5q39 0 52 19q10 15 10 56l31 443q0 40 -6 47q-9 10 -48 10q-10 0 -17 3t-7 13q0 12 15 12q10 -1 14 -1h116q13 0 18 -8q4 -11 8 -21z" />
    <glyph glyph-name="N" unicode="N" horiz-adv-x="700" 
d="M569 129v384v22q0 37 -11 49t-55 12q-25 0 -25 11q0 16 18 16q15 0 50 -2t38 -2q16 0 50.5 2t36.5 2q17 0 17 -16q0 -6 -5.5 -8.5t-20.5 -2.5q-47 0 -58 -18q-7 -12 -7 -65v-508q0 -19 -7 -19t-15 9l-10 15l-420 546v-452q0 -55 6 -65q10 -18 59 -18q25 0 25 -10
q0 -15 -17 -15q-15 0 -50 2t-38 2q-14 0 -43 -2t-44 -2q-18 0 -18 15q0 10 16 10h10q57 0 63 28q2 9 2 55v409v22q0 38 -9 48q-12 13 -56 13q-25 0 -25 11q0 9 7.5 12.5t16.5 3.5h124q14 -3 24 -13q2 -2 17 -22z" />
    <glyph glyph-name="O" unicode="O" horiz-adv-x="780" 
d="M38 314q0 134 105.5 229.5t243.5 95.5q145 0 246.5 -91.5t101.5 -233.5t-101 -234t-247 -92q-138 0 -242 94q-107 97 -107 232zM644 314q0 61 -15 112t-51.5 95t-84.5 67.5t-104 23.5q-59 0 -110.5 -24t-86 -67.5t-49.5 -95.5t-15 -111q0 -60 15.5 -113.5t51.5 -96
t86.5 -65.5t107.5 -23q56 0 106.5 25.5t85 69t49 94.5t14.5 109z" />
    <glyph glyph-name="P" unicode="P" 
d="M114 104v410v22q0 37 -9 47q-12 13 -55 13q-25 0 -25 13q0 14 17 14q18 0 53 -2t53 -2q28 0 92 2t67 2q43 0 74 -7t62 -28t51 -58.5t20 -77.5q0 -79 -57 -131t-137 -52q-19 0 -41 7l-48 16q-7 2 -12 3.5t-10 1.5q-13 0 -14.5 -10t-1.5 -18v-165q0 -55 6 -65
q11 -18 59 -18q12 0 19 -2t7 -10q0 -13 -17 -13q-20 0 -64.5 2t-47.5 2q-19 0 -65 -2t-49 -2q-17 0 -17 13q0 9 6.5 10.5t18.5 1.5q57 0 63 28q2 9 2 55zM193 519v-148q-1 -13 -1 -20q0 -11 3.5 -19t15 -15t37 -13t41.5 -6q61 0 101.5 44.5t40.5 105.5q0 37 -12.5 68
t-39.5 54q-21 19 -50 27t-64 8q-49 0 -60.5 -17t-11.5 -69z" />
    <glyph glyph-name="Q" unicode="Q" horiz-adv-x="780" 
d="M338 -16q-129 25 -211 109q-89 91 -89 216q0 141 106 235.5t249 94.5q144 0 244 -95t100 -237q0 -119 -83 -209t-203 -110q-17 -3 -18 -3q-9 -4 -9 -16q0 -20 18 -45q15 -21 34 -36q31 -25 71.5 -40t80.5 -15q18 0 41 3t38 9q4 2 9.5 4.5t8.5 2.5q11 0 11 -12
q0 -20 -61 -33q-45 -10 -75 -10q-42 0 -89 11.5t-84 32t-62 48.5q-32 35 -32 71q0 11 5 24zM389 9q59 0 107 25.5t86 74.5q34 44 48.5 93.5t14.5 108.5t-15.5 111t-50.5 96q-76 94 -195 94q-56 0 -105 -23.5t-86 -68.5q-33 -40 -48.5 -91t-15.5 -107q0 -119 68 -211
q75 -102 192 -102z" />
    <glyph glyph-name="R" unicode="R" horiz-adv-x="580" 
d="M116 104v409v22q0 38 -9 48q-12 13 -56 13q-25 0 -25 12q0 15 18 15q16 0 55.5 -2t42.5 -2q30 0 98.5 2t72.5 2q79 0 130 -36q59 -41 59 -116q0 -64 -48 -107q-44 -39 -110 -48q21 -3 37 -25q7 -9 24 -41l81 -156q22 -43 28 -50q19 -23 49 -23q13 0 19.5 -2t6.5 -12
q0 -11 -18 -11h-106q-13 0 -21 11q-3 3 -13 23l-98 195q-29 56 -40 65q-17 13 -71 13q-18 0 -22 -5t-4.5 -20.5t-0.5 -19.5v-154q0 -55 6 -65q11 -18 59 -18q12 0 19 -2t7 -10q0 -13 -17 -13q-20 0 -64.5 2t-47.5 2q-19 0 -65 -2t-49 -2q-17 0 -17 13q0 9 6.5 10.5t18.5 1.5
q57 0 63 28q2 9 2 55zM195 522v-179q0 -10 8.5 -14.5t21.5 -4.5q15 1 21 1q42 0 70 6t53 25.5t36.5 46t11.5 57.5q0 68 -38 105t-106 37q-55 0 -66.5 -12.5t-11.5 -67.5z" />
    <glyph glyph-name="S" unicode="S" horiz-adv-x="480" 
d="M249 286l-51 22q-69 30 -100 59q-45 42 -45 103q0 76 57.5 122.5t135.5 46.5q33 0 69.5 -5.5t64.5 -16.5q13 -5 15.5 -12.5t2.5 -24.5l4 -78q0 -12 -11 -12q-7 0 -11 10t-5 13q-18 55 -44 79q-30 27 -86 27q-53 0 -91 -27.5t-38 -79.5q0 -55 63 -96q22 -14 112 -53
q31 -14 53 -27q30 -17 46 -35q22 -25 35 -55.5t13 -63.5q0 -41 -19 -78t-51.5 -64t-73 -39.5t-86.5 -12.5q-38 0 -79 10.5t-72 28.5q-9 6 -11.5 15.5t-2.5 25.5v15v37t2 34t6 21t10 5q9 0 11 -11t3 -22q8 -66 44 -103t103 -37q60 0 104.5 36t44.5 94q0 56 -35 93
q-28 30 -87 56z" />
    <glyph glyph-name="T" unicode="T" horiz-adv-x="580" 
d="M331 547v-443q0 -55 6 -65q11 -18 59 -18q12 0 19 -2t7 -10q0 -13 -17 -13q-20 0 -64.5 2t-47.5 2q-19 0 -65 -2t-49 -2q-17 0 -17 13q0 9 6.5 10.5t18.5 1.5q57 0 63 28q2 9 2 55v463q0 19 -4.5 24.5t-18.5 5.5q-13 -1 -21 -1q-73 0 -107 -15.5t-69 -73.5
q-4 -7 -9.5 -15.5t-12.5 -8.5q-10 0 -10 12q0 9 6 24l39 130q4 14 13 14t9 -11q2 -16 7 -20.5t14.5 -6.5t17.5 -2h19h363h19q18 0 27.5 4t15 20t14.5 16q6 0 8 -9t2 -11q-1 -13 -1 -16l-6 -122q0 -17 -12 -17q-6 0 -11.5 15.5t-10.5 32.5q-8 21 -18 34q-15 18 -32 22t-49 4
h-58q-34 0 -39.5 -5.5t-5.5 -43.5z" />
    <glyph glyph-name="U" unicode="U" horiz-adv-x="700" 
d="M577 200v274q0 34 -1.5 60t-9.5 40t-22.5 18t-37.5 4q-13 0 -20 2t-7 11q0 14 21 14q15 0 45 -2t45 -2q13 0 44.5 2t33.5 2q21 0 21 -13q0 -9 -10 -11.5t-22 -2.5q-33 0 -42.5 -15.5t-9.5 -48.5v-20v-312q0 -75 -12.5 -104t-44.5 -56.5t-82 -39.5t-104 -12t-96 9
q-56 12 -90 37q-40 28 -52 74q-7 27 -7 92v314v22q0 37 -9 47q-12 13 -56 13q-25 0 -25 13q0 14 17 14q20 0 64.5 -2t47.5 -2q19 0 65 2t49 2q17 0 17 -14q0 -8 -7.5 -10.5t-18.5 -2.5q-43 0 -54 -12t-11 -48v-22v-282q0 -67 2.5 -97.5t18.5 -56.5q21 -34 72 -51
q42 -14 90 -14q50 0 91 12t71 42q25 26 32 62q4 20 4 71z" />
    <glyph glyph-name="V" unicode="V" horiz-adv-x="640" 
d="M354 115l164 402q4 12 9 26.5t5 24.5q0 15 -13 21.5t-29 6.5h-25q-19 2 -19 12q0 15 22 15q14 0 43 -2t43 -2t48 2t36 2q14 0 14 -13q0 -6 -6 -10t-18 -4q-14 0 -22.5 -2.5t-19.5 -12t-20 -26t-17 -38.5l-205 -501q-3 -8 -5 -16q-5 -12 -11 -12t-10.5 9.5t-7.5 18.5
l-215 513q-18 43 -33 55t-40 12q-27 0 -27 15q0 9 7.5 10.5t13.5 1.5q18 0 53 -2t53 -2q15 0 45 2t46 2q19 0 19 -12q0 -11 -19 -13.5t-36 -3.5q-15 -4 -15 -14q0 -11 5.5 -22.5t7.5 -17.5z" />
    <glyph glyph-name="W" unicode="W" horiz-adv-x="920" 
d="M481 261l-118 -251q-5 -14 -7 -16q-5 -6 -11 -6t-11 9.5t-6 12.5l-236 508q-7 15 -14 31q-11 24 -19 32.5t-17.5 11.5t-23.5 3q-24 0 -24 15q0 12 16 12t48 -2t50 -2q17 0 55.5 2t40.5 2q18 0 18 -14q0 -9 -5.5 -11t-18.5 -2q-17 0 -28 -4t-11 -18q0 -11 6.5 -26t9.5 -21
l199 -429l73 156q4 9 8 19.5t4 19.5q0 12 -10 36q-8 16 -10 22l-83 179q-18 38 -21 42q-16 24 -38 24h-12q-18 0 -18 13q0 14 15 14q16 0 55.5 -2t42.5 -2q17 0 55.5 2t40.5 2q17 0 17 -15q0 -9 -8.5 -10.5t-22.5 -1.5q-15 0 -24 -5t-9 -18q0 -7 5.5 -21t10.5 -26l64 -140
l66 141q3 8 10 25t7 24q0 9 -9.5 14.5t-19.5 5.5q-28 0 -28 12q0 15 19 15q12 0 36 -2t36 -2t36 2t36 2q13 0 13 -13q0 -10 -7 -12t-22 -2q-32 0 -53 -27q-9 -12 -29 -56l-46 -96q-16 -33 -18 -40q-5 -14 -5 -24q0 -9 3 -18t16 -36l85 -192l170 411q5 11 10 27t5 25
q0 18 -13.5 22t-36.5 4q-17 0 -17 14q0 13 17 13q12 0 42 -2t32 -2q12 0 36 2t37 2q17 0 17 -15q0 -12 -27 -12q-11 0 -18.5 -2t-17.5 -13t-19 -30t-17 -38l-208 -502q-2 -6 -5 -12.5t-10 -6.5t-14 13.5t-9 17.5z" />
    <glyph glyph-name="X" unicode="X" horiz-adv-x="640" 
d="M309 280l-121 -165q-11 -15 -23 -35q-16 -27 -16 -37q0 -12 9.5 -17t24.5 -5h21q18 0 27 -2.5t9 -12.5t-24 -10q-17 0 -58 2t-42 2q-18 0 -58.5 -2t-44.5 -2h-13q-6 2 -6 10q0 11 10 13t14 2h13q14 0 21 1t18 7q20 11 56 55q18 22 29 37l114 151q4 5 10.5 15t6.5 16
q0 9 -7.5 20t-11.5 16l-118 161q-19 26 -33 44q-23 29 -35 38t-23 11.5t-30 2.5q-15 0 -24 2t-9 12q0 13 21 13q17 0 55.5 -2t40.5 -2q27 0 88.5 2t65.5 2q15 0 15 -13q0 -9 -8 -11.5t-19 -2.5h-18q-18 0 -29 -3.5t-11 -17.5q0 -8 8 -20q4 -6 14 -19l122 -168l102 139
q13 18 21 31q13 22 13 36q0 16 -12.5 19t-34.5 3q-15 0 -23.5 2t-8.5 12q0 13 21 13t72.5 -2t55.5 -2q16 0 50.5 2t37.5 2q16 0 16 -16q0 -8 -7 -9.5t-19 -1.5q-23 0 -41.5 -4.5t-35.5 -15.5q-22 -15 -57 -56q-28 -33 -52 -65l-57 -78q-8 -10 -11 -15q-7 -11 -7 -18
q0 -8 7 -17.5t10 -13.5l183 -252q17 -23 29 -31.5t34 -8.5q11 0 18.5 -3t7.5 -12q0 -7 -3 -8.5t-19 -1.5q-21 0 -70.5 2t-53.5 2q-17 0 -55.5 -2t-40.5 -2q-20 0 -20 11q0 14 26 14q13 -1 21 -1q17 0 26.5 4t9.5 17q0 10 -11 27q-6 10 -18 24z" />
    <glyph glyph-name="Y" unicode="Y" horiz-adv-x="660" 
d="M360 303l137 209q16 24 22 37.5t6 21.5q0 15 -12.5 20t-30.5 5h-13q-15 0 -21.5 1.5t-6.5 8.5q0 8 7.5 12.5t15.5 4.5q15 0 46 -2t46 -2t45 2t46 2q21 0 21 -15q0 -9 -8 -10.5t-21 -1.5q-38 0 -71 -35q-11 -12 -50 -68l-123 -184q-13 -21 -20 -34.5t-7 -41.5v-17v-112
q0 -55 6 -65q11 -18 59 -18q12 0 19 -2t7 -10q0 -13 -17 -13q-20 0 -64.5 2t-47.5 2q-19 0 -65 -2t-49 -2q-17 0 -17 13q0 9 6.5 10.5t18.5 1.5q57 0 63 28q2 9 2 55v126q0 32 -3.5 43t-23.5 40l-137 203q-15 22 -30 45q-28 35 -73 35q-28 0 -28 13q0 14 20 14q15 0 45 -2
t45 -2q23 0 69 2t69 2q18 0 18 -12q0 -10 -7.5 -12.5t-19.5 -2.5q-25 0 -37 -2.5t-12 -17.5q0 -10 13 -31q9 -13 11 -17z" />
    <glyph glyph-name="Z" unicode="Z" horiz-adv-x="600" 
d="M43 23l388 541q12 14 12 24q0 6 -14 8h-17h-153q-73 0 -111 -33q-29 -37 -57 -73q-9 0 -9 10q0 6 2 13l4 14l29 108q2 9 5 19.5t12 10.5q10 0 14 -18q2 -16 9.5 -19.5t20.5 -4t24 -0.5h332q6 0 13.5 -0.5t7.5 -7.5q0 -4 -5 -11l-385 -539q-6 -9 -9 -13q-6 -9 -6 -14
q0 -10 19 -10q12 1 15 1h190q77 0 111 20q44 26 52 96q3 24 13 24q11 0 11 -16q-1 -12 -1 -16v-80v-28q0 -20 -6.5 -24.5t-35.5 -4.5h-445q-8 -1 -14 -1q-22 0 -22 11q0 5 6 13z" />
    <glyph glyph-name="bracketleft" unicode="[" horiz-adv-x="240" 
d="M56 -50v718q0 20 6.5 26.5t25.5 6.5h121q19 0 19 -14q0 -13 -20 -13q-12 1 -16 1h-32q-12 0 -21.5 -1.5t-14 -7t-5.5 -17t-1 -25.5v-12v-604q0 -13 0.5 -28t4 -22.5t14.5 -9t25 -1.5h26q10 1 17 1q23 0 23 -14q0 -13 -19 -13h-121q-18 0 -25 5.5t-7 23.5z" />
    <glyph glyph-name="backslash" unicode="\" horiz-adv-x="520" 
d="M333 0l-262 701h60l260 -701h-58z" />
    <glyph glyph-name="bracketright" unicode="]" horiz-adv-x="240" 
d="M179 669v-718q0 -18 -6.5 -23.5t-25.5 -5.5h-121q-19 0 -19 13q0 14 25 14q12 -1 15 -1h26h21q14 2 17.5 8.5t4.5 24t1 28.5v604v12q0 13 -1 25t-5 17t-14.5 6.5t-22.5 1.5h-31h-13q-23 0 -23 13t19 13h121q20 0 26 -6t6 -26z" />
    <glyph glyph-name="asciicircum" unicode="^" 
d="M97 146h-54l215 472h49l217 -472h-54l-188 408z" />
    <glyph glyph-name="underscore" unicode="_" horiz-adv-x="500" 
d="M0 -87h500v-51h-500v51z" />
    <glyph glyph-name="grave" unicode="`" horiz-adv-x="360" 
d="M139 633l134 -99q5 -4 11 -7q8 -6 8 -12q0 -8 -7 -8q-5 0 -13 3.5t-15 7.5l-145 72l-32 16q-18 12 -18 29q0 11 7 18t18 7q13 0 28 -9q9 -5 24 -18z" />
    <glyph glyph-name="a" unicode="a" horiz-adv-x="480" 
d="M184 207l77 36q27 13 32 20t5 36v44q0 47 -8 63q-13 27 -56 27t-72 -23q-24 -19 -43 -61q-9 -20 -10 -21q-6 -10 -16 -14.5t-23.5 -9t-21.5 -4.5q-13 0 -13 12q0 18 13 38t29 33q35 31 83.5 50t95.5 19q27 0 51 -5.5t40 -20.5q13 -11 16.5 -22t3.5 -31v-20v-236
q0 -44 8 -62t27 -18q14 0 28.5 12.5t16.5 12.5q7 0 7 -8q0 -7 -9 -17q-5 -5 -15 -14q-20 -14 -36.5 -21.5t-34.5 -7.5q-29 0 -47 35t-21 35q-32 -29 -75.5 -52.5t-85.5 -23.5q-39 0 -66.5 21t-27.5 58q0 46 53 86q28 21 95 54zM280 233l-91 -46q-38 -19 -54 -36
q-24 -25 -24 -58q0 -28 19.5 -43.5t49.5 -15.5q26 0 50 10.5t41.5 28.5t22 33.5t4.5 42.5v60q0 7 -0.5 17.5t-6.5 10.5z" />
    <glyph glyph-name="b" unicode="b" 
d="M145 685v-273q0 -12 8 -12q9 5 13 7q55 27 86 36t57 9q95 0 158 -62t63 -156q0 -107 -78.5 -176.5t-188.5 -69.5q-41 0 -76 13q-33 15 -66 31q-8 0 -12.5 -6.5t-9 -16.5t-8.5 -19q-7 -11 -15 -11q-10 0 -10 12l5 26q4 21 4.5 40t0.5 34v466v14.5t1 15.5q0 26 -6 36
q-9 15 -34 15h-16q-10 2 -10 10q0 9 14 11q25 5 48.5 12t41.5 19q14 11 21 11q9 0 9 -16zM145 323v-207q0 -32 3 -48.5t20 -32.5t41 -23t54 -7q88 0 141 65q50 61 50 151q0 81 -47 137q-51 61 -130 61q-32 0 -61.5 -9.5t-52.5 -28.5q-11 -10 -14.5 -19t-3.5 -22v-17z" />
    <glyph glyph-name="c" unicode="c" horiz-adv-x="460" 
d="M426 375q1 -12 1 -21q0 -15 -2.5 -22.5t-10.5 -7.5q-10 0 -47 55t-84 55q-26 0 -53 -11.5t-48 -29.5q-34 -29 -53 -72.5t-19 -89.5q0 -80 51 -141q55 -65 136 -65q35 0 63 10.5t52 33.5q12 12 15 12q7 0 7 -8q0 -6 -12 -19q-8 -9 -18 -17q-61 -49 -145 -49q-92 0 -158 66
t-66 157q0 100 78.5 170.5t181.5 70.5q31 0 65.5 -8.5t57.5 -24.5q9 -6 9 -25q-1 -14 -1 -19z" />
    <glyph glyph-name="d" unicode="d" 
d="M479 685v-592v-15q0 -17 2.5 -26.5t12.5 -9.5q11 0 22.5 11t24.5 24q8 0 5 -12l-1 -13q0 -9 -2.5 -11t-14.5 -6l-81 -31q-15 -9 -21 -9q-5 0 -8 7.5t-3 20.5q0 10 -1.5 21t-8.5 11q-35 -26 -75.5 -46.5t-78.5 -20.5q-93 0 -154.5 68.5t-61.5 162.5q0 47 18 87.5
t52.5 73.5t79 52.5t91.5 19.5q54 0 107 -21q15 -6 19 -6q9 0 9 23q-1 12 -1 14v95v14.5t1 15.5q0 26 -6 36q-9 15 -34 15h-16q-10 2 -10 10q0 9 14 11q25 5 48.5 12t41.5 19q14 11 21 11q9 0 9 -16zM410 128v181v12q0 29 -4 47.5t-20 33.5t-41.5 23.5t-51.5 8.5h-10
q-79 -7 -126.5 -64t-47.5 -136q0 -80 45 -139q49 -64 128 -64q33 0 65.5 11.5t52.5 35.5q6 7 8 15.5t2 17.5v17z" />
    <glyph glyph-name="e" unicode="e" horiz-adv-x="500" 
d="M453 272h-303q-27 0 -34 -4t-7 -27q0 -87 51 -146q55 -63 143 -63q48 0 86 20q31 22 62 45q8 0 8 -8q0 -7 -17 -24q-13 -13 -22 -21q-35 -30 -72.5 -43t-85.5 -13q-97 0 -162.5 67.5t-65.5 162.5q0 53 16.5 93t55.5 74q76 67 180 67q44 0 80.5 -14.5t63.5 -47.5
q35 -44 35 -101q0 -17 -12 -17zM151 296h81h13q38 0 59.5 1.5t42 6t29.5 13.5t9 27q0 15 -7 30.5t-19 28.5q-16 17 -38.5 24t-48.5 7q-40 0 -73.5 -17t-56.5 -50q-8 -10 -16.5 -28t-8.5 -30q0 -10 9 -11.5t25 -1.5z" />
    <glyph glyph-name="f" unicode="f" horiz-adv-x="300" 
d="M155 372v-270q-1 -21 -1 -30q0 -24 9 -36.5t37 -15.5t28 -13q0 -11 -12 -11q-17 0 -56.5 2t-41.5 2q-15 0 -46 -2t-46 -2q-13 0 -13 10t11 12t16 2q29 3 39 18q7 11 7 37v27v270v24q-3 12 -29 12q-9 -1 -15 -1q-15 0 -15 9q0 7 7.5 10.5t16.5 5.5q27 7 30 27.5t3 40.5
q4 48 10 71q10 38 33 63q27 28 65.5 47.5t75.5 19.5q22 0 54.5 -9.5t32.5 -27.5q0 -16 -13 -41q-8 -16 -15 -16t-16 8q-4 4 -13 14q-20 22 -29 29q-18 14 -38 14q-44 0 -63 -50q-13 -35 -13 -88v-50q0 -34 4 -39.5t35 -5.5h79q14 0 14 -18q0 -13 -15 -13h-12h-70
q-24 0 -29.5 -3.5t-5.5 -20.5v-12z" />
    <glyph glyph-name="g" unicode="g" horiz-adv-x="520" 
d="M418 415h50h16q13 0 16 -6t3 -16q0 -14 -3.5 -16.5t-17.5 -2.5q-16 1 -18 1q-10 1 -18 1q-23 0 -23 -9q0 -3 7 -17q13 -27 13 -63q0 -30 -12.5 -57t-38.5 -51t-64.5 -35.5t-77.5 -11.5q-28 0 -39 -2t-37 -13q-17 -7 -20 -9q-11 -7 -11 -18q0 -16 20.5 -24t39.5 -8h108
q50 0 69.5 -2t48 -16t47.5 -36.5t19 -51.5q0 -88 -97 -137q-79 -40 -176 -40q-40 0 -70.5 5.5t-60 19.5t-49.5 35.5t-20 49.5q0 26 16 45q12 14 39 29l28 16q12 7 19 11q15 9 15 15t-9 14.5t-11 10.5q-14 11 -31 27q-25 24 -25 31q0 8 10 10q37 13 56 21q46 19 46 25
q-43 25 -74 60q-35 39 -35 90q0 73 58 117.5t133 44.5q54 0 101 -24q21 -10 27.5 -11.5t32.5 -1.5zM302 -5h-126q-37 -23 -54 -39q-28 -27 -28 -58q0 -24 12.5 -43.5t33.5 -33t48 -20t55 -6.5q67 0 119 24q69 32 69 91q0 48 -44 69q-33 16 -85 16zM251 151q58 0 89 44
q28 39 28 100q0 51 -28 92q-32 47 -81 47q-54 0 -86 -42t-32 -98t26 -96q31 -47 84 -47z" />
    <glyph glyph-name="h" unicode="h" 
d="M164 685v-293q2 -10 8 -10q5 0 12 7q33 33 66.5 48t79.5 15q36 0 66.5 -11t49.5 -38t25 -67q3 -21 3 -75v-159q-1 -21 -1 -30q0 -24 9 -36.5t37 -15.5t28 -13q0 -11 -12 -11q-17 0 -41 1.5t-53 2.5q-17 0 -55.5 -2t-39.5 -2q-14 0 -14 10q0 9 6 11t28 4t31 14.5t9 36.5
q-1 19 -1 30v173v12q0 38 -4 55t-13 32q-31 45 -95 45q-58 0 -99 -43q-20 -21 -25 -39t-5 -53v-182q-1 -21 -1 -30q0 -24 9 -36.5t37 -15.5t28 -13q0 -11 -12 -11q-17 0 -41 1.5t-53 2.5q-17 0 -55.5 -2t-39.5 -2q-14 0 -14 10q0 9 6 11t28 4t31 14.5t9 36.5q-1 19 -1 30
v455v14.5t1 15.5q0 26 -6 36q-9 15 -34 15h-16q-10 2 -10 10q0 9 14 11q25 5 48.5 12t41.5 19q14 11 21 11q9 0 9 -16z" />
    <glyph glyph-name="i" unicode="i" horiz-adv-x="260" 
d="M172 436v-334q-1 -21 -1 -30q0 -24 9 -36.5t37 -15.5t28 -13q0 -11 -12 -11q-17 0 -41 1.5t-53 2.5q-17 0 -55.5 -2t-39.5 -2q-14 0 -14 10q0 9 6 11t28 4t31 14.5t9 36.5q-1 19 -1 30v188v14q0 16 -2.5 30.5t-8.5 21t-28 6.5h-13q-12 0 -12 8q0 9 21 16t47 23t38 30
q3 4 7.5 8.5t10.5 4.5q9 0 9 -16zM137 539q-20 0 -31.5 13.5t-11.5 34.5t12.5 35.5t32.5 14.5q19 0 30.5 -14.5t11.5 -33.5q0 -21 -11.5 -35.5t-32.5 -14.5z" />
    <glyph glyph-name="j" unicode="j" horiz-adv-x="220" 
d="M156 436v-453q0 -44 -5 -73t-24 -56q-14 -21 -42 -47q-24 -22 -51 -40q-6 -4 -13 -9t-13 -5q-7 0 -7 7q0 8 10 16q43 34 59.5 64.5t16.5 81.5v368v14q0 16 -2.5 30.5t-8.5 21t-28 6.5h-13q-12 0 -12 8q0 9 21 16t47 23t38 30q3 4 7.5 8.5t10.5 4.5q9 0 9 -16zM118 539
q-18 0 -28.5 14.5t-10.5 33.5q0 21 11.5 35.5t31.5 14.5t31.5 -13.5t11.5 -34.5q0 -22 -13 -36t-34 -14z" />
    <glyph glyph-name="k" unicode="k" horiz-adv-x="540" 
d="M163 159v-57q-1 -21 -1 -30q0 -24 9 -36.5t37 -15.5t28 -13q0 -11 -12 -11q-17 0 -41 1.5t-53 2.5q-17 0 -55.5 -2t-39.5 -2q-14 0 -14 10q0 9 6 11t28 4t31 14.5t9 36.5q-1 19 -1 30v455v14.5t1 15.5q0 26 -6 36q-9 15 -34 15h-16q-10 2 -10 10q0 9 14 11q25 5 48.5 12
t41.5 19q14 11 21 11q9 0 9 -16v-435q0 -6 0.5 -13.5t5.5 -7.5q3 1 6 3t5 4l148 117q16 13 24 21q17 17 17 26q0 10 -9.5 13t-22.5 3q-12 0 -25 1.5t-13 12.5q0 9 22 9h176q5 0 11 -0.5t6 -7.5q0 -9 -6.5 -10.5t-13.5 -1.5q-34 0 -62 -16q-4 -2 -53 -40l-76 -60
q-9 -8 -18 -15q-7 -8 -7 -12q0 -6 7 -13l151 -192q25 -31 31 -36q17 -15 42 -15q21 0 21 -15q0 -9 -16 -9t-55.5 2t-42.5 2q-15 0 -52.5 -2t-40.5 -2h-10q-6 2 -6 8q0 8 5 12t12 4q24 0 31.5 4t7.5 15q0 8 -9 22q-3 5 -15 20l-93 122l-12 16q-10 12 -17 12q-6 0 -14 -6.5
t-9 -7.5q-25 -19 -28 -24.5t-3 -33.5z" />
    <glyph glyph-name="l" unicode="l" horiz-adv-x="260" 
d="M164 685v-583q-1 -21 -1 -30q0 -24 9 -36.5t37 -15.5t28 -13q0 -11 -12 -11q-17 0 -41 1.5t-53 2.5q-17 0 -55.5 -2t-39.5 -2q-14 0 -14 10q0 9 6 11t28 4t31 14.5t9 36.5q-1 19 -1 30v455v14.5t1 15.5q0 26 -6 36q-9 15 -34 15h-16q-10 2 -10 10q0 9 14 11q25 5 48.5 12
t41.5 19q14 11 21 11q9 0 9 -16z" />
    <glyph glyph-name="m" unicode="m" horiz-adv-x="820" 
d="M93 102v188v14q0 16 -2.5 30.5t-8.5 21t-28 6.5h-13q-12 0 -12 8q0 9 21 16t47 23t38 30q3 4 7.5 8.5t10.5 4.5q9 0 9 -16v-25q0 -12 0.5 -23.5t5.5 -11.5q33 29 70 51q43 25 85 25q49 0 80 -27l46 -60q31 34 69 59q43 28 88 28q39 0 66 -13q20 -10 40 -33
q24 -28 27 -66.5t3 -66.5v-171q-1 -21 -1 -30q0 -24 9 -36.5t37 -15.5t28 -13q0 -11 -12 -11q-17 0 -41 1.5t-53 2.5q-17 0 -55.5 -2t-39.5 -2q-14 0 -14 10q0 9 6 11t28 4t31 14.5t9 36.5q-1 19 -1 30v170v12q0 27 -2.5 46.5t-10.5 36.5q-11 21 -38 33.5t-55 12.5
q-20 0 -42.5 -10.5t-42.5 -30t-25 -37.5t-5 -55v-178q-1 -21 -1 -30q0 -24 9 -36.5t37 -15.5t28 -13q0 -11 -12 -11q-17 0 -41 1.5t-53 2.5q-17 0 -55.5 -2t-39.5 -2q-14 0 -14 10q0 9 6 11t28 4t31 14.5t9 36.5q-1 19 -1 30v170v12q0 27 -2.5 46.5t-10.5 36.5
q-11 21 -38 33.5t-55 12.5q-20 0 -42.5 -10.5t-42.5 -30t-25 -37.5t-5 -55v-178q-1 -21 -1 -30q0 -24 9 -36.5t37 -15.5t28 -13q0 -11 -12 -11q-17 0 -41 1.5t-53 2.5q-17 0 -55.5 -2t-39.5 -2q-14 0 -14 10q0 9 6 11t28 4t31 14.5t9 36.5q-1 19 -1 30z" />
    <glyph glyph-name="n" unicode="n" 
d="M95 102v188v14q0 16 -2.5 30.5t-8.5 21t-28 6.5h-13q-12 0 -12 8q0 9 21 16t47 23t38 30q3 4 7.5 8.5t10.5 4.5q9 0 9 -16v-66q36 33 77.5 57.5t86.5 24.5q76 0 118 -54q24 -31 27 -70t3 -68v-158q-1 -21 -1 -30q0 -24 9 -36.5t37 -15.5t28 -13q0 -11 -12 -11
q-17 0 -41 1.5t-53 2.5q-17 0 -55.5 -2t-39.5 -2q-14 0 -14 10q0 9 6 11t28 4t31 14.5t9 36.5q-1 19 -1 30v159v12q0 27 -3.5 49t-14.5 38q-14 21 -39 33t-55 12q-58 0 -99 -43q-21 -22 -26.5 -40.5t-5.5 -51.5v-168q-1 -21 -1 -30q0 -24 9 -36.5t37 -15.5t28 -13
q0 -11 -12 -11q-17 0 -41 1.5t-53 2.5q-17 0 -55.5 -2t-39.5 -2q-14 0 -14 10q0 9 6 11t28 4t31 14.5t9 36.5q-1 19 -1 30z" />
    <glyph glyph-name="o" unicode="o" 
d="M283 -12q-104 0 -176 67t-72 169q0 96 68 161q35 34 81.5 50.5t98.5 16.5q50 0 92 -13.5t78 -44t57 -76.5t21 -94q0 -101 -72.5 -168.5t-175.5 -67.5zM286 7q76 0 125 69q44 62 44 141q0 84 -43 146q-48 70 -130 70q-79 0 -125.5 -61t-46.5 -143q0 -83 45 -148
q51 -74 131 -74z" />
    <glyph glyph-name="p" unicode="p" horiz-adv-x="580" 
d="M95 -123v413v14q0 16 -2.5 30.5t-8.5 21t-28 6.5h-13q-12 0 -12 8q0 9 21 16t47 23t38 30q3 4 7.5 8.5t10.5 4.5q9 0 9 -16v-55q42 34 83 52.5t86 18.5q41 0 81 -19.5t69.5 -50t45.5 -73t16 -85.5q0 -103 -71.5 -169.5t-178.5 -66.5q-25 0 -46 5t-54 16q-12 2 -23 5
q-9 0 -9 -18q1 -10 1 -12v-107q-1 -21 -1 -30q0 -24 9 -36.5t37 -15.5t28 -13q0 -11 -12 -11q-17 0 -41 1.5t-53 2.5q-17 0 -55.5 -2t-39.5 -2q-14 0 -14 10q0 9 6 11t28 4t31 14.5t9 36.5q-1 19 -1 30zM469 211q0 43 -12.5 80t-40.5 66q-50 52 -122 52q-33 0 -64 -13
t-49 -39q-11 -13 -14 -28.5t-3 -40.5v-155q0 -34 6 -57t26 -41q16 -13 40 -21t47 -8q83 0 136 63q50 59 50 142z" />
    <glyph glyph-name="q" unicode="q" 
d="M477 299v-422q-1 -21 -1 -30q0 -24 9 -36.5t37 -15.5t28 -13q0 -11 -12 -11q-17 0 -41 1.5t-53 2.5q-17 0 -55.5 -2t-39.5 -2q-14 0 -14 10q0 9 6 11t28 4t31 14.5t9 36.5q-1 19 -1 30v122q0 7 -0.5 16t-6.5 9q-4 0 -18.5 -7.5t-15.5 -8.5q-24 -14 -44.5 -17t-62.5 -3
q-98 0 -161.5 67.5t-63.5 173.5q0 94 75.5 158.5t181.5 64.5q26 0 47.5 -4.5t53.5 -14.5q4 -1 24 -15t25 -14q9 0 18 15q20 33 26 33q8 0 8 -9l-3 -11q-8 -31 -11 -64.5t-3 -68.5zM408 121v196v18q0 16 -2 30.5t-8 24.5q-11 19 -38.5 30.5t-53.5 11.5q-89 0 -143 -63.5
t-54 -154.5q0 -80 53.5 -139.5t134.5 -59.5q27 0 57 11.5t42 31.5q7 12 9.5 22.5t2.5 40.5z" />
    <glyph glyph-name="r" unicode="r" horiz-adv-x="340" 
d="M95 102v188v14q0 16 -2.5 30.5t-8.5 21t-28 6.5h-13q-12 0 -12 8q0 9 21 16t47 23t38 30q3 4 7.5 8.5t10.5 4.5q9 0 9 -16v-49v-13t5 -8q24 31 52 54q32 26 66 26q25 0 41 -12.5t16 -35.5q0 -18 -12 -29t-30 -11q-15 0 -27 12q-27 26 -37 26q-15 0 -29 -12
q-9 -7 -23 -26.5t-18 -41t-4 -56.5v-158q-1 -21 -1 -30q0 -24 9 -36.5t37 -15.5t28 -13q0 -11 -12 -11q-17 0 -41 1.5t-53 2.5q-17 0 -55.5 -2t-39.5 -2q-14 0 -14 10q0 9 6 11t28 4t31 14.5t9 36.5q-1 19 -1 30z" />
    <glyph glyph-name="s" unicode="s" horiz-adv-x="400" 
d="M34 54l3 67q3 22 13 22q5 0 28 -68.5t103 -68.5q48 0 83 25q39 28 39 73q0 30 -17 51q-21 26 -79 45q-72 23 -99 40q-54 33 -54 86q0 28 13.5 51.5t39 41.5t54.5 25.5t64 7.5q26 0 54.5 -4.5t48.5 -12.5q5 -3 8.5 -8t3.5 -17q-1 -14 -1 -20q1 -13 1 -23q0 -11 -2 -18.5
t-9 -7.5q-2 0 -30 47t-92 47q-34 0 -63 -20.5t-29 -53.5q0 -47 64 -74q60 -24 121 -48q65 -36 65 -105q0 -67 -63 -109q-56 -37 -127 -37q-29 0 -65 8t-62 22q-12 5 -13 17t-1 19z" />
    <glyph glyph-name="t" unicode="t" horiz-adv-x="280" 
d="M138 396v-253q0 -51 7 -74q13 -43 52 -43q22 0 47 17q12 9 25 18q2 0 6 -5q0 -1 1 -2q0 -7 -6 -14.5t-14 -13.5q-41 -38 -93 -38q-47 0 -72 31q-13 17 -17.5 40t-4.5 52v32v257q0 9 -1.5 13.5t-11.5 4.5h-12q-7 -1 -12 -1q-19 0 -19 9q0 4 3.5 7.5t8.5 7.5q35 23 55 43
q24 24 40 58q5 9 10 9q8 0 8 -12v-71q0 -12 2.5 -16t13.5 -4h99q9 0 9 -14q0 -17 -14 -17q-10 1 -17 1h-56q-12 1 -17 1q-11 0 -15.5 -4.5t-4.5 -18.5z" />
    <glyph glyph-name="u" unicode="u" 
d="M463 414v-294v-27q0 -21 7.5 -30t32.5 -9l13 1q13 0 13 -8q0 -6 -9 -9l-12 -4q-50 -14 -65 -21t-35 -22l-11 -6q-5 0 -5 8v24q1 10 1 18q0 23 -9 23q-31 -27 -70.5 -48.5t-82.5 -21.5q-74 0 -118 58q-18 24 -24 54t-6 69v18v152q1 22 1 32q0 24 -7 34q-10 14 -39 14
q-15 0 -21 3.5t-6 10.5q0 6 13 6h112q17 0 17 -21q-1 -10 -1 -15v-216q0 -38 3 -65t16 -48.5t41 -33t58 -11.5q66 0 107 45q10 11 13.5 23.5t3.5 30.5v20v191q1 22 1 32q0 24 -7 34q-10 14 -38 14q-15 0 -21.5 3.5t-6.5 9.5q0 7 14 7h116q12 0 12 -12q-1 -9 -1 -13z" />
    <glyph glyph-name="v" unicode="v" horiz-adv-x="500" 
d="M263 91l118 258q4 10 8.5 23t4.5 20q0 14 -11 20.5t-28 6.5q-13 0 -20 1.5t-7 9.5q0 9 15 9h147q13 0 13 -7t-7 -9.5t-27.5 -5t-42.5 -35.5q-7 -10 -30 -61l-143 -310q-3 -7 -6 -12q-6 -11 -11 -11q-6 0 -9 10l-6 13l-145 350q-11 27 -15 34q-14 24 -47 24q-19 0 -19 11
q0 9 15 9h181q19 0 19 -11q0 -9 -18 -9h-10q-16 0 -26.5 -7t-10.5 -21q0 -8 6 -25q3 -7 10 -25z" />
    <glyph glyph-name="w" unicode="w" horiz-adv-x="780" 
d="M391 286l-125 -280q-2 -6 -5 -12t-9 -6q-5 0 -8 5.5t-6 12.5l-158 351q-14 33 -21 42q-15 20 -40 20t-25 9q0 11 17 11h452q16 0 16 -11q0 -9 -23 -9q-13 0 -24 -6t-11 -18q0 -9 5 -22q2 -5 10 -21l118 -258l101 234q6 14 11.5 29.5t5.5 28.5q0 33 -33 33q-12 0 -21 1.5
t-9 6.5q0 12 17 12h145q14 0 14 -12q0 -4 -12 -6t-16 -2q-31 -4 -50 -33q-5 -7 -26 -58l-137 -322q-2 -6 -5 -12t-8 -6q-4 0 -8 8l-5 10zM277 90l79 175q5 11 10.5 24.5t5.5 21.5q0 7 -6 21l-11 24q-19 42 -30 51q-15 12 -56 12h-73q-26 0 -38 -6.5t-12 -19.5q0 -12 8 -33
q4 -12 14 -32z" />
    <glyph glyph-name="x" unicode="x" horiz-adv-x="520" 
d="M241 193l-65 -82q-19 -24 -25 -33q-16 -25 -16 -38q0 -12 12.5 -16t28.5 -4q26 0 26 -14q0 -10 -16 -10q-14 0 -47.5 2t-36.5 2q-15 0 -45 -2t-45 -2q-12 0 -12 9q0 10 10.5 12.5t14.5 2.5q31 0 62 26q18 15 48 53l69 86q6 9 12 17.5t6 12.5q0 5 -9 17l-99 129
q-32 41 -33 42q-18 16 -50 16q-24 0 -24 9q0 11 7 11h216h11q5 -2 5 -9q0 -11 -19 -11q-23 0 -35 -2.5t-12 -16.5q0 -10 10 -25q3 -4 17 -22l63 -85l55 69q11 13 20 27q14 21 14 30q0 13 -11.5 19t-25.5 6q-25 0 -25 10t14 10h181q17 0 17 -11q0 -4 -7 -6.5t-20 -2.5
q-41 0 -68 -20q-16 -12 -51 -55l-51 -62q-7 -8 -14 -17.5t-7 -16.5q0 -6 7 -16q4 -6 12 -15l103 -138q12 -16 22 -28q16 -19 26 -25t33 -6t23 -13q0 -11 -19 -11t-66 2t-50 2q-15 0 -51 -2t-38 -2q-13 0 -13 11q0 13 22 13h13q15 0 26 3.5t11 14.5q0 9 -10 24q-3 4 -17 22z
" />
    <glyph glyph-name="y" unicode="y" horiz-adv-x="500" 
d="M269 80l112 261q9 19 9 20q5 14 5 22q0 20 -16 28t-37 8q-23 0 -23 7q0 13 14 13h159q15 0 15 -14q0 -3 -8.5 -4.5t-16 -2t-20 -6t-20.5 -16.5q-12 -15 -30 -52q-12 -24 -25 -55l-201 -474q-8 -26 -15 -33t-34 -7q-28 0 -37 3q-19 7 -19 29q0 20 6 29.5t26 9.5h22
q15 0 23.5 2t15.5 14q2 4 10 22l34 79q3 7 6 14.5t3 15.5q0 9 -5 20.5t-9 22.5l-132 312q-17 42 -21 47q-16 24 -42 24q-24 0 -24 7q0 13 19 13h193q14 0 14 -13q0 -4 -10 -5.5t-14 -1.5q-25 0 -38 -8.5t-13 -21.5q0 -9 4 -21q1 -4 8 -20z" />
    <glyph glyph-name="z" unicode="z" horiz-adv-x="460" 
d="M411 403l-258 -347q-4 -4 -10 -12.5t-6 -12.5q0 -6 16 -8h19h87q33 0 57.5 2.5t42 12.5t28.5 27q7 12 17 37q3 9 5.5 14.5t8.5 5.5q4 0 7 -4.5t3 -16.5q-1 -14 -1 -17l-2 -49q1 -9 1 -15q0 -21 -16 -20h-340q-9 -1 -15 -1q-21 0 -21 11q0 4 8 15l6 8l266 352q3 4 7.5 12
t4.5 10q0 7 -17 7h-100h-30q-16 0 -27 -1.5t-23.5 -7t-26.5 -16.5t-23 -24q-5 -8 -7 -10q-5 -6 -10 -6q-9 0 -9 8l7 23l26 76q4 12 6 16q6 12 12 12q10 0 10 -16q0 -20 16 -26q9 -3 35 -3h244q18 0 18 -7q0 -5 -5 -13.5t-11 -15.5z" />
    <glyph glyph-name="braceleft" unicode="{" horiz-adv-x="260" 
d="M158 196v-168q0 -47 14 -70t55 -36q-42 0 -60 5t-34 17q-21 17 -27 41t-6 59v168q0 35 -3 45.5t-15 24.5q-19 25 -51 31q42 11 55.5 33t13.5 69v149q0 77 26 107t101 30q-38 -12 -53.5 -37t-15.5 -68v-157q0 -57 -12 -82q-16 -34 -63 -44q45 -10 60 -37.5t15 -79.5z" />
    <glyph glyph-name="bar" unicode="|" 
d="M257 0v701h54v-701h-54z" />
    <glyph glyph-name="braceright" unicode="}" horiz-adv-x="260" 
d="M100 439v157q0 44 -14.5 68.5t-53.5 36.5q75 0 100.5 -29.5t25.5 -107.5v-149q0 -49 13 -70t56 -32q-30 -6 -51 -31q-12 -15 -15 -29t-3 -41v-168q0 -37 -4 -54q-7 -29 -27 -44.5t-41 -19.5t-54 -4q39 13 53.5 37t14.5 69v168q0 51 15.5 79t60.5 38q-46 10 -63 44
q-13 26 -13 82z" />
    <glyph glyph-name="asciitilde" unicode="~" 
d="M481 372l41 -25q-31 -44 -52 -62q-33 -28 -75 -28q-21 0 -40.5 5.5t-47.5 16.5l-41 16q-21 7 -41 15q-25 8 -44 8q-32 0 -56 -21q-15 -13 -38 -49l-40 27q38 58 69 76.5t67 18.5q35 0 111 -30.5t100 -30.5q22 0 42 12t45 51z" />
    <glyph glyph-name="nonbreakingspace" unicode="&#xa0;" horiz-adv-x="500" 
 />
    <glyph glyph-name="sterling" unicode="&#xa3;" horiz-adv-x="320" 
d="M210 514v-396q0 -79 -9 -114q-12 -49 -54 -102q-30 -37 -75 -66q-52 -34 -93 -34q-27 0 -49.5 14t-22.5 40q0 17 13.5 29.5t31.5 12.5q15 0 25.5 -8t20.5 -22t13 -17q9 -8 20 -8q18 0 37 13.5t32 31.5q22 29 28 86q3 26 3 93v447v22q0 37 -9 47q-12 13 -56 13
q-25 0 -25 13q0 14 17 14q20 0 64.5 -2t47.5 -2q19 0 65 2t49 2q17 0 17 -14q0 -8 -7.5 -10.5t-18.5 -2.5q-43 0 -54 -12t-11 -48v-22z" />
    <glyph glyph-name="currency" unicode="&#xa4;" horiz-adv-x="500" 
d="M37 125l50 50q-49 60 -49 135q0 78 49 136l-50 49l27 27l49 -49q60 49 137 49q37 0 73 -12.5t63 -36.5l49 49l27 -27l-49 -49q48 -60 48 -137t-48 -134l49 -50l-27 -26l-49 49q-61 -50 -139 -50q-71 0 -134 50l-49 -49zM250 473q-67 0 -114.5 -47.5t-47.5 -114.5
q0 -66 47.5 -114.5t113.5 -48.5q68 0 115.5 46.5t47.5 114.5t-47 116t-115 48z" />
    <glyph glyph-name="brokenbar" unicode="&#xa6;" 
d="M257 0v280h54v-280h-54zM257 421v280h54v-280h-54z" />
    <glyph glyph-name="section" unicode="&#xa7;" horiz-adv-x="360" 
d="M164 85l-54 97q-36 66 -53 117q-20 61 -20 127q0 89 45 148q50 65 136 65q27 0 46 -4.5t37 -18.5q10 -7 17 -17t7 -21q0 -16 -9.5 -27.5t-24.5 -11.5q-23 0 -60 31t-52 31q-18 0 -25.5 -13t-7.5 -32q0 -29 24 -82q11 -25 40 -78l33 -58q42 -73 61 -127q24 -69 24 -140
q0 -93 -36 -155q-44 -77 -131 -77q-40 0 -77 17q-47 22 -47 57q0 17 12 30t30 13q23 0 75 -51q25 -24 43 -24q17 0 27 11t10 28q0 24 -28 84q-17 37 -42 81zM156 201l94 -180l8 -16q4 -5 11 -5q12 0 15 16.5t3 35.5q0 67 -18.5 126.5t-54.5 122.5l-34 60q-16 29 -35 69
t-27 68q-2 4 -3 9q-4 9 -13 9t-14 -22t-5 -58q0 -60 21 -122q16 -47 52 -113z" />
    <glyph glyph-name="dieresis" unicode="&#xa8;" 
d="M143 757q0 44 43 44q18 0 30 -14t12 -32q0 -19 -12 -32t-32 -13q-18 0 -29.5 13.5t-11.5 33.5zM327 757q0 44 43 44q18 0 30 -14t12 -32q0 -19 -12 -32t-32 -13q-18 0 -29.5 13.5t-11.5 33.5zM195 399q0 -34 8.5 -40.5t41.5 -6.5h41q15 0 33.5 0.5t39 3t28 14.5t14.5 55
q3 17 13 17q11 0 11 -10l-5 -86l5 -94q0 -18 -11 -18q-10 0 -13 17q-6 34 -14.5 47.5t-24 17.5t-48 6t-57.5 2h-12q-33 0 -41.5 -5t-8.5 -29v-174q0 -63 32 -81q21 -12 91 -12q77 0 107 12q45 18 68 78q3 9 8.5 21.5t13.5 12.5q10 0 10 -11q0 -8 -4 -24l-15 -106
q-1 -6 -11 -6h-391q-10 0 -31 -2t-31 -2q-17 0 -17 15q0 7 7.5 9.5t18.5 2.5q47 0 58 18q7 12 7 66v407v21q0 37 -11 49t-54 12q-26 0 -26 12q0 15 17 15q32 0 107.5 -2t80.5 -2q45 0 147 2t108 2q15 0 15 -22q-1 -11 -1 -15v-86v-12q-2 -9 -9 -9q-6 0 -8.5 5l-7.5 15
l-15 28q-12 25 -24 37q-15 15 -37.5 22t-45.5 8.5t-65 1.5q-19 0 -41 -0.5t-33 -4.5t-14.5 -13t-3.5 -21v-13v-145z" />
    <glyph glyph-name="copyright" unicode="&#xa9;" horiz-adv-x="760" 
d="M381 -12q-131 0 -224.5 95.5t-93.5 229.5q0 135 92.5 230.5t226.5 95.5q135 0 229.5 -94.5t94.5 -231.5t-95 -231t-230 -94zM387 22q117 0 201 86t84 206q0 121 -85 206t-205 85q-117 0 -201.5 -86.5t-84.5 -204.5q0 -121 85.5 -206.5t205.5 -85.5zM524 487v-103h-28
q0 45 -27.5 72.5t-72.5 27.5q-64 0 -99 -50q-31 -44 -31 -111q0 -68 34 -117q38 -55 103 -55q41 0 74 25q7 5 13 11.5t21 30.5l24 -7q-17 -44 -62 -69t-96 -25q-83 0 -134.5 55.5t-51.5 140.5q0 89 54 145t143 56q31 0 66 -7.5t70 -19.5z" />
    <glyph glyph-name="guillemotleft" unicode="&#xab;" horiz-adv-x="260" 
d="M48 255l28 39l14 20q11 13 20 13q15 0 15 -15q0 -7 -5 -16q-1 -1 -11.5 -15.5t-16.5 -25.5q-11 -19 -11 -30q0 -16 22 -48t22 -45q0 -15 -12 -15q-9 0 -18 10q-10 14 -14 19l-33 43q-5 5 -9 11q-8 11 -8 22q0 9 6.5 18.5t10.5 14.5zM157 255l28 39l14 20q11 13 20 13
q15 0 15 -14q0 -8 -5 -17q-1 -1 -11.5 -15.5t-16.5 -25.5q-11 -19 -11 -30q0 -16 22 -48t22 -45q0 -14 -12 -14q-9 0 -18.5 11.5t-13.5 16.5l-33 43q-12 15 -14.5 20t-2.5 14t6.5 18t10.5 14z" />
    <glyph glyph-name="logicalnot" unicode="&#xac;" 
d="M501 402v-269h-54v215h-389v54h443z" />
    <glyph glyph-name="minus" unicode="&#xad;" horiz-adv-x="380" 
d="M290 544h-220q-8 0 -8 4l2 8l5 13q1 5 3 10.5t13 5.5h219q13 0 13 -5t-2 -11t-4 -11q-5 -12 -9 -13t-12 -1z" />
    <glyph glyph-name="registered" unicode="&#xae;" horiz-adv-x="760" 
d="M382 -12q-131 0 -225 96t-94 228q0 136 92.5 231.5t226.5 95.5q135 0 230 -94t95 -229q0 -138 -94 -233t-231 -95zM382 22q120 0 205.5 84.5t85.5 206.5t-83 207t-205 85q-120 0 -204 -85t-84 -207q0 -120 83.5 -205.5t201.5 -85.5zM231 500v19h152q39 0 63 -3
t43.5 -15.5t30.5 -33t11 -42.5q0 -41 -31 -71t-71 -30q32 -7 58 -51q10 -17 22 -44q9 -20 15 -31q10 -20 19 -30.5t32 -10.5v-18h-25h-20q-16 0 -25 1.5t-19.5 9.5t-22.5 33q-2 5 -14.5 35t-23.5 57q-20 38 -72 38h-16v-106v-13q0 -16 3 -26t13 -10l29 -2v-17h-151v17l18 1
q26 0 26 27v292q-2 23 -28 23zM337 334h14q57 0 82 13q36 19 36 71q0 21 -6.5 37.5t-20.5 27t-26.5 13t-33.5 2.5q-30 0 -37.5 -5.5t-7.5 -34.5v-124z" />
    <glyph glyph-name="macron" unicode="&#xaf;" horiz-adv-x="320" 
d="M116 104v410v22q0 37 -9 47q-12 13 -56 13q-25 0 -25 13q0 14 17 14q20 0 64.5 -2t47.5 -2q19 0 65 2t49 2q17 0 17 -14q0 -8 -7.5 -10.5t-18.5 -2.5q-43 0 -54 -12t-11 -48v-22v-410q0 -55 6 -65q11 -18 59 -18q12 0 19 -2t7 -10q0 -13 -17 -13q-20 0 -64.5 2t-47.5 2
q-19 0 -65 -2t-49 -2q-17 0 -17 13q0 9 6.5 10.5t18.5 1.5q57 0 63 28q2 9 2 55zM64 710q-18 0 -29.5 13.5t-11.5 33.5q0 44 43 44q18 0 30 -14t12 -32q0 -19 -12 -32t-32 -13zM248 710q-18 0 -29.5 13.5t-11.5 33.5q0 44 43 44q18 0 30 -14t12 -32q0 -19 -12 -32t-32 -13z
" />
    <glyph glyph-name="degree" unicode="&#xb0;" horiz-adv-x="400" 
d="M350 492q0 -62 -44 -106t-106 -44t-106 44t-44 106t44 106t106 44t106 -44t44 -106zM310 492q0 45 -32.5 77.5t-78.5 32.5q-45 0 -77 -32t-32 -78t32 -78t78 -32q45 0 77.5 32.5t32.5 77.5z" />
    <glyph glyph-name="plusminus" unicode="&#xb1;" 
d="M58 346h195v184h54v-184h194v-54h-194v-185h-54v185h-195v54zM501 0h-443v54h443v-54z" />
    <glyph glyph-name="twosuperior" unicode="&#xb2;" horiz-adv-x="320" 
d="M116 104v410v22q0 37 -9 47q-12 13 -56 13q-25 0 -25 13q0 14 17 14q20 0 64.5 -2t47.5 -2q19 0 65 2t49 2q17 0 17 -14q0 -8 -7.5 -10.5t-18.5 -2.5q-43 0 -54 -12t-11 -48v-22v-410q0 -55 6 -65q11 -18 59 -18q12 0 19 -2t7 -10q0 -13 -17 -13q-20 0 -64.5 2t-47.5 2
q-19 0 -65 -2t-49 -2q-17 0 -17 13q0 9 6.5 10.5t18.5 1.5q57 0 63 28q2 9 2 55z" />
    <glyph glyph-name="threesuperior" unicode="&#xb3;" horiz-adv-x="260" 
d="M172 436v-334q-1 -21 -1 -30q0 -24 9 -36.5t37 -15.5t28 -13q0 -11 -12 -11q-17 0 -41 1.5t-53 2.5q-17 0 -55.5 -2t-39.5 -2q-14 0 -14 10q0 9 6 11t28 4t31 14.5t9 36.5q-1 19 -1 30v188v14q0 16 -2.5 30.5t-8.5 21t-28 6.5h-13q-12 0 -12 8q0 9 21 16t47 23t38 30
q3 4 7.5 8.5t10.5 4.5q9 0 9 -16zM137 539q-20 0 -31.5 13.5t-11.5 34.5t12.5 35.5t32.5 14.5q19 0 30.5 -14.5t11.5 -33.5q0 -21 -11.5 -35.5t-32.5 -14.5z" />
    <glyph glyph-name="mu" unicode="&#xb5;" 
d="M463 414v-294v-27q0 -21 7.5 -30t32.5 -9l13 1q13 0 13 -8q0 -6 -9 -9l-12 -4q-50 -14 -65 -21t-35 -22l-11 -6q-5 0 -5 8v24q1 10 1 18q0 23 -9 23q-5 0 -17 -10q-29 -24 -31 -25q-25 -18 -51 -26.5t-54 -8.5q-44 0 -79 22q-3 1 -4 -5t-1 -21q0 -23 2.5 -75.5t2.5 -60.5
q0 -38 -9 -55.5t-25 -17.5t-25.5 17t-9.5 56q0 38 12.5 101.5t12.5 79.5q0 22 -9 34.5t-12.5 44.5t-3.5 79v152q1 22 1 32q0 24 -7 34q-10 14 -39 14q-15 0 -21 3.5t-6 10.5q0 6 13 6h112q17 0 17 -21q-1 -10 -1 -15v-216q0 -38 3 -65t16 -48.5t41 -33t58 -11.5q66 0 107 45
q10 11 13.5 23.5t3.5 30.5v20v191q1 22 1 32q0 24 -7 34q-10 14 -38 14q-15 0 -21.5 3.5t-6.5 9.5q0 7 14 7h116q12 0 12 -12q-1 -9 -1 -13z" />
    <glyph glyph-name="paragraph" unicode="&#xb6;" horiz-adv-x="620" 
d="M483 563v-662v-20q0 -20 -4 -30.5t-20 -10.5q-14 0 -20 10t-6 38v683h-68v-668v-20q0 -21 -4 -32t-20 -11q-17 0 -21 11t-4 31v330q-120 12 -198 61q-100 63 -100 170q0 42 15 76t46.5 57.5t72.5 32.5t88 9h308q20 0 30 -5t10 -24q0 -16 -9 -21.5t-25 -5.5q-12 0 -18 1
h-53zM316 572h-30q-83 0 -129 -25q-60 -33 -60 -109q0 -52 24 -87t73 -61q32 -18 62 -28.5t60 -10.5v321z" />
    <glyph glyph-name="periodcentered" unicode="&#xb7;" horiz-adv-x="260" 
d="M131 260q-21 0 -33 14t-12 35q0 22 12.5 35.5t34.5 13.5q21 0 30.5 -14t9.5 -35q0 -23 -10 -36t-32 -13z" />
    <glyph glyph-name="periodcentered" unicode="&#x2219;" horiz-adv-x="260" 
d="M131 260q-21 0 -33 14t-12 35q0 22 12.5 35.5t34.5 13.5q21 0 30.5 -14t9.5 -35q0 -23 -10 -36t-32 -13z" />
    <glyph glyph-name="cedilla" unicode="&#xb8;" horiz-adv-x="500" 
d="M113 573q0 44 43 44q18 0 30 -14t12 -32q0 -19 -12 -32t-32 -13q-18 0 -29.5 13.5t-11.5 33.5zM297 573q0 44 43 44q18 0 30 -14t12 -32q0 -19 -12 -32t-32 -13q-18 0 -29.5 13.5t-11.5 33.5zM150 272q-27 0 -34 -4t-7 -27q0 -87 51 -146q55 -63 143 -63q48 0 86 20
q31 22 62 45q8 0 8 -8q0 -7 -17 -24q-13 -13 -22 -21q-35 -30 -72.5 -43t-85.5 -13q-97 0 -162.5 67.5t-65.5 162.5q0 53 16.5 93t55.5 74q76 67 180 67q44 0 80.5 -14.5t63.5 -47.5q35 -44 35 -101q0 -17 -12 -17h-303zM232 296h13q38 0 59.5 1.5t42 6t29.5 13.5t9 27
q0 15 -7 30.5t-19 28.5q-16 17 -38.5 24t-48.5 7q-40 0 -73.5 -17t-56.5 -50q-8 -10 -16.5 -28t-8.5 -30q0 -10 9 -11.5t25 -1.5h81z" />
    <glyph glyph-name="onesuperior" unicode="&#xb9;" horiz-adv-x="340" 
d="M167 357q-63 0 -109 41t-46 103q0 63 45 100.5t110 37.5q64 0 109 -37.5t45 -100.5t-45 -103.5t-109 -40.5zM169 375q44 0 72 37.5t28 84.5q0 49 -26 85q-29 40 -77 40q-46 0 -74 -35t-28 -82q0 -49 27 -87q31 -43 78 -43zM315 309v-31h-302v31h302z" />
    <glyph glyph-name="guillemotright" unicode="&#xbb;" horiz-adv-x="260" 
d="M218 189l-33 -43q-11 -16 -13 -18q-9 -11 -19 -11q-12 0 -12 15q0 12 22 44t22 49q0 11 -10 29q-5 9 -18 27q-8 11 -10 14q-6 10 -6 17q0 15 15 15q10 0 20 -12q2 -2 15 -21l28 -39q5 -8 10.5 -16.5t5.5 -16.5q0 -9 -3.5 -15t-13.5 -18zM109 189l-33 -43q-11 -16 -13 -18
q-9 -11 -19 -11q-12 0 -12 15q0 12 22 44t22 49q0 11 -10 29q-5 9 -18 27q-6 8 -11 17t-5 15q0 14 15 14q10 0 20 -12q2 -2 15 -21l28 -39q6 -9 13 -18q3 -6 3 -15t-3.5 -15t-13.5 -18z" />
    <glyph glyph-name="onequarter" unicode="&#xbc;" horiz-adv-x="220" 
d="M156 436v-453q0 -44 -5 -73t-24 -56q-14 -21 -42 -47q-24 -22 -51 -40q-6 -4 -13 -9t-13 -5q-7 0 -7 7q0 8 10 16q43 34 59.5 64.5t16.5 81.5v368v14q0 16 -2.5 30.5t-8.5 21t-28 6.5h-13q-12 0 -12 8q0 9 21 16t47 23t38 30q3 4 7.5 8.5t10.5 4.5q9 0 9 -16zM118 539
q-18 0 -28.5 14.5t-10.5 33.5q0 21 11.5 35.5t31.5 14.5t31.5 -13.5t11.5 -34.5q0 -22 -13 -36t-34 -14z" />
    <glyph glyph-name="onehalf" unicode="&#xbd;" horiz-adv-x="480" 
d="M249 286l-51 22q-69 30 -100 59q-45 42 -45 103q0 76 57.5 122.5t135.5 46.5q33 0 69.5 -5.5t64.5 -16.5q13 -5 15.5 -12.5t2.5 -24.5l4 -78q0 -12 -11 -12q-7 0 -11 10t-5 13q-18 55 -44 79q-30 27 -86 27q-53 0 -91 -27.5t-38 -79.5q0 -55 63 -96q22 -14 112 -53
q31 -14 53 -27q30 -17 46 -35q22 -25 35 -55.5t13 -63.5q0 -41 -19 -78t-51.5 -64t-73 -39.5t-86.5 -12.5q-38 0 -79 10.5t-72 28.5q-9 6 -11.5 15.5t-2.5 25.5v15v37t2 34t6 21t10 5q9 0 11 -11t3 -22q8 -66 44 -103t103 -37q60 0 104.5 36t44.5 94q0 56 -35 93
q-28 30 -87 56z" />
    <glyph glyph-name="threequarters" unicode="&#xbe;" horiz-adv-x="400" 
d="M34 54l3 67q3 22 13 22q5 0 28 -68.5t103 -68.5q48 0 83 25q39 28 39 73q0 30 -17 51q-21 26 -79 45q-72 23 -99 40q-54 33 -54 86q0 28 13.5 51.5t39 41.5t54.5 25.5t64 7.5q26 0 54.5 -4.5t48.5 -12.5q5 -3 8.5 -8t3.5 -17q-1 -14 -1 -20q1 -13 1 -23q0 -11 -2 -18.5
t-9 -7.5q-2 0 -30 47t-92 47q-34 0 -63 -20.5t-29 -53.5q0 -47 64 -74q60 -24 121 -48q65 -36 65 -105q0 -67 -63 -109q-56 -37 -127 -37q-29 0 -65 8t-62 22q-12 5 -13 17t-1 19z" />
    <glyph glyph-name="questiondown" unicode="&#xbf;" horiz-adv-x="260" 
d="M172 436v-334q-1 -21 -1 -30q0 -24 9 -36.5t37 -15.5t28 -13q0 -11 -12 -11q-17 0 -41 1.5t-53 2.5q-17 0 -55.5 -2t-39.5 -2q-14 0 -14 10q0 9 6 11t28 4t31 14.5t9 36.5q-1 19 -1 30v188v14q0 16 -2.5 30.5t-8.5 21t-28 6.5h-13q-12 0 -12 8q0 9 21 16t47 23t38 30
q3 4 7.5 8.5t10.5 4.5q9 0 9 -16zM34 526q-18 0 -29.5 13.5t-11.5 33.5q0 44 43 44q18 0 30 -14t12 -32q0 -19 -12 -32t-32 -13zM218 526q-18 0 -29.5 13.5t-11.5 33.5q0 44 43 44q18 0 30 -14t12 -32q0 -19 -12 -32t-32 -13z" />
    <glyph glyph-name="Agrave" unicode="&#xc0;" horiz-adv-x="640" 
d="M139 112q-6 -16 -10 -29.5t-4 -25.5q0 -21 25 -30q17 -6 42 -6q12 0 19 -2t7 -11q0 -7 -7 -9.5t-17 -2.5q-14 0 -47.5 2t-36.5 2q-14 0 -48 -2t-36 -2q-11 -1 -17 -1q-19 0 -19 12q0 9 8 11.5t20 2.5q19 0 29.5 2.5t20 12.5t21.5 38q9 19 17 42l193 501q1 5 4.5 13.5
t12.5 8.5q8 0 14 -19l202 -502q22 -53 28 -63q22 -34 54 -34q29 0 29 -15q0 -10 -15 -10q-22 0 -66 2t-66 2q-18 0 -62.5 -2t-48.5 -2q-16 0 -16 10t8.5 12.5t20.5 2.5q30 0 41 3q23 7 23 27q0 8 -3 18t-11 31l-32 76q-15 36 -16 38q-8 13 -46 13h-136q-28 0 -34 -6
q-1 -2 -15 -34zM202 275l-3 -12q0 -7 21 -7q13 1 15 1h115h12q17 0 17 8l-7 22l-68 170q-5 14 -9 22t-7 8q-5 0 -11 -13q-5 -15 -6 -17z" />
    <glyph glyph-name="Agrave" unicode="&#x410;" horiz-adv-x="640" 
d="M139 112q-6 -16 -10 -29.5t-4 -25.5q0 -21 25 -30q17 -6 42 -6q12 0 19 -2t7 -11q0 -7 -7 -9.5t-17 -2.5q-14 0 -47.5 2t-36.5 2q-14 0 -48 -2t-36 -2q-11 -1 -17 -1q-19 0 -19 12q0 9 8 11.5t20 2.5q19 0 29.5 2.5t20 12.5t21.5 38q9 19 17 42l193 501q1 5 4.5 13.5
t12.5 8.5q8 0 14 -19l202 -502q22 -53 28 -63q22 -34 54 -34q29 0 29 -15q0 -10 -15 -10q-22 0 -66 2t-66 2q-18 0 -62.5 -2t-48.5 -2q-16 0 -16 10t8.5 12.5t20.5 2.5q30 0 41 3q23 7 23 27q0 8 -3 18t-11 31l-32 76q-15 36 -16 38q-8 13 -46 13h-136q-28 0 -34 -6
q-1 -2 -15 -34zM202 275l-3 -12q0 -7 21 -7q13 1 15 1h115h12q17 0 17 8l-7 22l-68 170q-5 14 -9 22t-7 8q-5 0 -11 -13q-5 -15 -6 -17z" />
    <glyph glyph-name="Aacute" unicode="&#xc1;" horiz-adv-x="640" 
d="M259 596q-46 0 -55.5 -14t-9.5 -67v-132q0 -39 1.5 -44t12.5 -3q31 4 68 9t89 5q96 0 158 -44.5t62 -124.5q0 -50 -21 -89.5t-57 -61.5q-30 -18 -62 -26t-67 -8l-229 4q-18 0 -53 -2t-53 -2q-17 0 -17 14q0 8 7.5 10.5t17.5 2.5q56 0 62 28q2 10 2 54v410v22q0 38 -9 48
q-12 13 -56 13q-25 0 -25 12q0 13 17 13q19 0 64.5 -2t49.5 -2h112l192 4q16 0 35 1.5t25 1.5l16 1q6 0 8 -9t2 -11q-1 -13 -1 -16l-6 -122q0 -17 -12 -17q-7 0 -9 4t-2 10q-9 39 -15.5 62t-13.5 32q-16 19 -36 27.5t-45 8.5h-147zM194 104q0 -45 23 -65t65 -20q51 0 93 8.5
t64 28.5q30 26 43.5 51.5t13.5 74.5q0 64 -42.5 103t-119.5 39q-69 0 -98 -8q-42 -12 -42 -46v-166z" />
    <glyph glyph-name="Aacute" unicode="&#x411;" horiz-adv-x="640" 
d="M259 596q-46 0 -55.5 -14t-9.5 -67v-132q0 -39 1.5 -44t12.5 -3q31 4 68 9t89 5q96 0 158 -44.5t62 -124.5q0 -50 -21 -89.5t-57 -61.5q-30 -18 -62 -26t-67 -8l-229 4q-18 0 -53 -2t-53 -2q-17 0 -17 14q0 8 7.5 10.5t17.5 2.5q56 0 62 28q2 10 2 54v410v22q0 38 -9 48
q-12 13 -56 13q-25 0 -25 12q0 13 17 13q19 0 64.5 -2t49.5 -2h112l192 4q16 0 35 1.5t25 1.5l16 1q6 0 8 -9t2 -11q-1 -13 -1 -16l-6 -122q0 -17 -12 -17q-7 0 -9 4t-2 10q-9 39 -15.5 62t-13.5 32q-16 19 -36 27.5t-45 8.5h-147zM194 104q0 -45 23 -65t65 -20q51 0 93 8.5
t64 28.5q30 26 43.5 51.5t13.5 74.5q0 64 -42.5 103t-119.5 39q-69 0 -98 -8q-42 -12 -42 -46v-166z" />
    <glyph glyph-name="Acircumflex" unicode="&#xc2;" horiz-adv-x="640" 
d="M129 518v25q0 28 -7 41q-10 18 -38 18q-11 0 -27 -4t-21 -4q-11 0 -11 9q0 10 15.5 15.5t30.5 8.5q39 7 87.5 9.5t110.5 2.5q65 0 112 -4t87.5 -21.5t64.5 -47.5q28 -35 28 -77q0 -55 -44 -93q-37 -32 -95 -44q73 -9 123 -54q56 -50 56 -123q0 -43 -20.5 -79.5t-55.5 -60
t-74.5 -31.5t-88.5 -8q-42 0 -139.5 2t-104.5 2q-10 0 -31 -2t-32 -2q-17 0 -17 15q0 9 10.5 9.5t14.5 0.5q48 0 59 19q7 12 7 67v411zM208 404q0 -33 7.5 -40.5t41.5 -7.5h54q39 0 69 7t53 29q37 34 37 92q0 70 -52 105q-46 31 -118 31q-40 0 -56 -3.5t-26 -14.5
q-6 -6 -8 -18t-2 -25v-14v-141zM208 129q0 -42 2 -53q6 -31 27 -44q9 -6 35.5 -10.5t60.5 -4.5q42 0 72.5 8t55.5 30.5t38 53t13 63.5q0 93 -77 135q-32 19 -69 24t-90 5h-19t-17 1q-20 0 -26 -8t-6 -39v-161z" />
    <glyph glyph-name="Acircumflex" unicode="&#x412;" horiz-adv-x="640" 
d="M129 518v25q0 28 -7 41q-10 18 -38 18q-11 0 -27 -4t-21 -4q-11 0 -11 9q0 10 15.5 15.5t30.5 8.5q39 7 87.5 9.5t110.5 2.5q65 0 112 -4t87.5 -21.5t64.5 -47.5q28 -35 28 -77q0 -55 -44 -93q-37 -32 -95 -44q73 -9 123 -54q56 -50 56 -123q0 -43 -20.5 -79.5t-55.5 -60
t-74.5 -31.5t-88.5 -8q-42 0 -139.5 2t-104.5 2q-10 0 -31 -2t-32 -2q-17 0 -17 15q0 9 10.5 9.5t14.5 0.5q48 0 59 19q7 12 7 67v411zM208 404q0 -33 7.5 -40.5t41.5 -7.5h54q39 0 69 7t53 29q37 34 37 92q0 70 -52 105q-46 31 -118 31q-40 0 -56 -3.5t-26 -14.5
q-6 -6 -8 -18t-2 -25v-14v-141zM208 129q0 -42 2 -53q6 -31 27 -44q9 -6 35.5 -10.5t60.5 -4.5q42 0 72.5 8t55.5 30.5t38 53t13 63.5q0 93 -77 135q-32 19 -69 24t-90 5h-19t-17 1q-20 0 -26 -8t-6 -39v-161z" />
    <glyph glyph-name="Atilde" unicode="&#xc3;" horiz-adv-x="520" 
d="M116 516v21q0 35 -11 47t-54 12q-26 0 -26 14q0 13 17 13q16 0 53.5 -2t40.5 -2q60 0 196.5 2t146.5 2q16 0 16 -23v-12v-70q1 -9 1 -16q0 -23 -11 -23q-6 0 -10 6t-6 15q-18 64 -64 83q-32 13 -112 13q-22 0 -47 -0.5t-38 -6.5q-7 -3 -10 -14t-3 -22v-12v-437
q0 -47 2 -56q6 -27 63 -27q12 0 19 -2t7 -10q0 -13 -17 -13q-20 0 -64.5 2t-47.5 2q-19 0 -65 -2t-49 -2q-17 0 -17 13q0 9 6.5 10.5t18.5 1.5q57 0 63 28q2 9 2 55v412z" />
    <glyph glyph-name="Atilde" unicode="&#x413;" horiz-adv-x="520" 
d="M116 516v21q0 35 -11 47t-54 12q-26 0 -26 14q0 13 17 13q16 0 53.5 -2t40.5 -2q60 0 196.5 2t146.5 2q16 0 16 -23v-12v-70q1 -9 1 -16q0 -23 -11 -23q-6 0 -10 6t-6 15q-18 64 -64 83q-32 13 -112 13q-22 0 -47 -0.5t-38 -6.5q-7 -3 -10 -14t-3 -22v-12v-437
q0 -47 2 -56q6 -27 63 -27q12 0 19 -2t7 -10q0 -13 -17 -13q-20 0 -64.5 2t-47.5 2q-19 0 -65 -2t-49 -2q-17 0 -17 13q0 9 6.5 10.5t18.5 1.5q57 0 63 28q2 9 2 55v412z" />
    <glyph glyph-name="Adieresis" unicode="&#xc4;" horiz-adv-x="640" 
d="M93 23q28 28 49 88t21 133v270v22q0 37 -9 47q-12 13 -56 13q-25 0 -25 13q0 14 17 14q20 0 64.5 -2t47.5 -2h301q16 0 53.5 2t40.5 2q17 0 17 -13q0 -14 -26 -14q-48 0 -56.5 -14.5t-8.5 -67.5v-410q0 -47 4.5 -61.5t30.5 -19.5h45q10 0 10 -15q-1 -10 -1 -13l-6 -122
q0 -17 -12 -17q-7 0 -9 4t-2 10q-9 39 -15.5 62t-13.5 32q-16 19 -36 27.5t-45 8.5h-285q-64 0 -104 -32q-31 -25 -72 -93q-4 -7 -9.5 -15.5t-12.5 -8.5q-10 0 -10 12q0 3 3 12t3 12l39 122q4 14 15 14h53zM411 23q23 4 28 19.5t5 61.5v437q0 27 -10.5 41t-31.5 14h-139
q-49 0 -61 -17q-8 -12 -8 -65v-270q0 -80 -18 -131.5t-53 -89.5h288z" />
    <glyph glyph-name="Adieresis" unicode="&#x414;" horiz-adv-x="640" 
d="M93 23q28 28 49 88t21 133v270v22q0 37 -9 47q-12 13 -56 13q-25 0 -25 13q0 14 17 14q20 0 64.5 -2t47.5 -2h301q16 0 53.5 2t40.5 2q17 0 17 -13q0 -14 -26 -14q-48 0 -56.5 -14.5t-8.5 -67.5v-410q0 -47 4.5 -61.5t30.5 -19.5h45q10 0 10 -15q-1 -10 -1 -13l-6 -122
q0 -17 -12 -17q-7 0 -9 4t-2 10q-9 39 -15.5 62t-13.5 32q-16 19 -36 27.5t-45 8.5h-285q-64 0 -104 -32q-31 -25 -72 -93q-4 -7 -9.5 -15.5t-12.5 -8.5q-10 0 -10 12q0 3 3 12t3 12l39 122q4 14 15 14h53zM411 23q23 4 28 19.5t5 61.5v437q0 27 -10.5 41t-31.5 14h-139
q-49 0 -61 -17q-8 -12 -8 -65v-270q0 -80 -18 -131.5t-53 -89.5h288z" />
    <glyph glyph-name="Aring" unicode="&#xc5;" 
d="M195 399q0 -34 8.5 -40.5t41.5 -6.5h41q15 0 33.5 0.5t39 3t28 14.5t14.5 55q3 17 13 17q11 0 11 -10l-5 -86l5 -94q0 -18 -11 -18q-10 0 -13 17q-6 34 -14.5 47.5t-24 17.5t-48 6t-57.5 2h-12q-33 0 -41.5 -5t-8.5 -29v-174q0 -63 32 -81q21 -12 91 -12q77 0 107 12
q45 18 68 78q3 9 8.5 21.5t13.5 12.5q10 0 10 -11q0 -8 -4 -24l-15 -106q-1 -6 -11 -6h-391q-10 0 -31 -2t-31 -2q-17 0 -17 15q0 7 7.5 9.5t18.5 2.5q47 0 58 18q7 12 7 66v407v21q0 37 -11 49t-54 12q-26 0 -26 12q0 15 17 15q32 0 107.5 -2t80.5 -2q45 0 147 2t108 2
q15 0 15 -22q-1 -11 -1 -15v-86v-12q-2 -9 -9 -9q-6 0 -8.5 5l-7.5 15l-15 28q-12 25 -24 37q-15 15 -37.5 22t-45.5 8.5t-65 1.5q-19 0 -41 -0.5t-33 -4.5t-14.5 -13t-3.5 -21v-13v-145z" />
    <glyph glyph-name="Aring" unicode="&#x415;" 
d="M195 399q0 -34 8.5 -40.5t41.5 -6.5h41q15 0 33.5 0.5t39 3t28 14.5t14.5 55q3 17 13 17q11 0 11 -10l-5 -86l5 -94q0 -18 -11 -18q-10 0 -13 17q-6 34 -14.5 47.5t-24 17.5t-48 6t-57.5 2h-12q-33 0 -41.5 -5t-8.5 -29v-174q0 -63 32 -81q21 -12 91 -12q77 0 107 12
q45 18 68 78q3 9 8.5 21.5t13.5 12.5q10 0 10 -11q0 -8 -4 -24l-15 -106q-1 -6 -11 -6h-391q-10 0 -31 -2t-31 -2q-17 0 -17 15q0 7 7.5 9.5t18.5 2.5q47 0 58 18q7 12 7 66v407v21q0 37 -11 49t-54 12q-26 0 -26 12q0 15 17 15q32 0 107.5 -2t80.5 -2q45 0 147 2t108 2
q15 0 15 -22q-1 -11 -1 -15v-86v-12q-2 -9 -9 -9q-6 0 -8.5 5l-7.5 15l-15 28q-12 25 -24 37q-15 15 -37.5 22t-45.5 8.5t-65 1.5q-19 0 -41 -0.5t-33 -4.5t-14.5 -13t-3.5 -21v-13v-145z" />
    <glyph glyph-name="AE" unicode="&#xc6;" horiz-adv-x="920" 
d="M393 303q-8 10 -13 10q-1 -1 -2 -1q-7 -4 -13 -12l-145 -199q-8 -10 -20 -30t-12 -27q0 -17 13.5 -21t35.5 -4q13 0 20.5 -2t7.5 -10q0 -11 -21 -11q-18 0 -60.5 2t-46.5 2q-21 0 -61 -2t-61 -2q-19 0 -19 13q0 12 23 12q19 0 27.5 3.5t25 19.5t34.5 39q23 30 32 42
l164 227q7 9 11 15q8 12 8 14q0 4 -8.5 13t-16.5 18l-92 108q-22 23 -38 37q-23 20 -43 29q-10 4 -26 7t-42 3q-14 0 -22 2t-8 12q0 13 15 13q17 0 56.5 -2t42.5 -2q20 0 64.5 2t47.5 2q17 0 17 -14q0 -10 -8 -11.5t-22 -1.5q-19 0 -25.5 -5.5t-6.5 -16.5q0 -10 18 -34
q21 -25 26 -31l153 -189q4 -3 9 -7q1 -1 2 -1q6 0 6 16v186v22q0 37 -9 47q-12 13 -56 13q-25 0 -25 13q0 14 17 14q20 0 64.5 -2t47.5 -2q19 0 65 2t49 2q17 0 17 -14q0 -8 -7.5 -10.5t-18.5 -2.5q-43 0 -54 -12t-11 -48v-22v-186q0 -16 6 -16q3 1 6 3t5 5l153 189
q12 15 25 30q19 25 19 35q0 13 -9 17.5t-23 4.5h-18q-12 3 -12 13q0 14 17 14q20 0 64.5 -2t47.5 -2q17 0 50 2t49 2q15 0 15 -13q0 -9 -9.5 -11.5t-20.5 -2.5q-25 0 -38 -1.5t-30 -8.5q-25 -11 -53 -37q-2 -2 -28 -29l-92 -108q-10 -11 -15 -16q-10 -11 -10 -15q0 -1 8 -13
t11 -16l164 -227q16 -21 32 -41q21 -27 35 -40.5t24.5 -18t27.5 -4.5q11 0 17 -1.5t6 -10.5q0 -13 -19 -13q-21 0 -61 2t-61 2q-18 0 -61.5 -2t-45.5 -2q-21 0 -21 11q0 9 7 10.5t21 1.5q24 0 31 2q18 5 18 23q0 9 -12 29q-8 14 -20 28l-145 199q-10 13 -15 13t-13.5 -10.5
t-17.5 -23t-9 -22.5v-153q0 -55 6 -65q11 -18 59 -18q12 0 19 -2t7 -10q0 -13 -17 -13q-20 0 -64.5 2t-47.5 2q-19 0 -65 -2t-49 -2q-17 0 -17 13q0 9 6.5 10.5t18.5 1.5q57 0 63 28q2 9 2 55v153q0 11 -10 25q-1 1 -17 21z" />
    <glyph glyph-name="AE" unicode="&#x416;" horiz-adv-x="920" 
d="M393 303q-8 10 -13 10q-1 -1 -2 -1q-7 -4 -13 -12l-145 -199q-8 -10 -20 -30t-12 -27q0 -17 13.5 -21t35.5 -4q13 0 20.5 -2t7.5 -10q0 -11 -21 -11q-18 0 -60.5 2t-46.5 2q-21 0 -61 -2t-61 -2q-19 0 -19 13q0 12 23 12q19 0 27.5 3.5t25 19.5t34.5 39q23 30 32 42
l164 227q7 9 11 15q8 12 8 14q0 4 -8.5 13t-16.5 18l-92 108q-22 23 -38 37q-23 20 -43 29q-10 4 -26 7t-42 3q-14 0 -22 2t-8 12q0 13 15 13q17 0 56.5 -2t42.5 -2q20 0 64.5 2t47.5 2q17 0 17 -14q0 -10 -8 -11.5t-22 -1.5q-19 0 -25.5 -5.5t-6.5 -16.5q0 -10 18 -34
q21 -25 26 -31l153 -189q4 -3 9 -7q1 -1 2 -1q6 0 6 16v186v22q0 37 -9 47q-12 13 -56 13q-25 0 -25 13q0 14 17 14q20 0 64.5 -2t47.5 -2q19 0 65 2t49 2q17 0 17 -14q0 -8 -7.5 -10.5t-18.5 -2.5q-43 0 -54 -12t-11 -48v-22v-186q0 -16 6 -16q3 1 6 3t5 5l153 189
q12 15 25 30q19 25 19 35q0 13 -9 17.5t-23 4.5h-18q-12 3 -12 13q0 14 17 14q20 0 64.5 -2t47.5 -2q17 0 50 2t49 2q15 0 15 -13q0 -9 -9.5 -11.5t-20.5 -2.5q-25 0 -38 -1.5t-30 -8.5q-25 -11 -53 -37q-2 -2 -28 -29l-92 -108q-10 -11 -15 -16q-10 -11 -10 -15q0 -1 8 -13
t11 -16l164 -227q16 -21 32 -41q21 -27 35 -40.5t24.5 -18t27.5 -4.5q11 0 17 -1.5t6 -10.5q0 -13 -19 -13q-21 0 -61 2t-61 2q-18 0 -61.5 -2t-45.5 -2q-21 0 -21 11q0 9 7 10.5t21 1.5q24 0 31 2q18 5 18 23q0 9 -12 29q-8 14 -20 28l-145 199q-10 13 -15 13t-13.5 -10.5
t-17.5 -23t-9 -22.5v-153q0 -55 6 -65q11 -18 59 -18q12 0 19 -2t7 -10q0 -13 -17 -13q-20 0 -64.5 2t-47.5 2q-19 0 -65 -2t-49 -2q-17 0 -17 13q0 9 6.5 10.5t18.5 1.5q57 0 63 28q2 9 2 55v153q0 11 -10 25q-1 1 -17 21z" />
    <glyph glyph-name="Ccedilla" unicode="&#xc7;" 
d="M242 612q-76 0 -121 -40q-34 -45 -68 -89q-11 0 -11 13l7 65q0 25 4 34.5t27 17.5t77 17t107 9q87 0 149 -33q78 -42 78 -122q0 -55 -44 -95q-38 -34 -95 -46q72 -9 118 -50q51 -46 51 -118q0 -43 -20.5 -79.5t-55.5 -60t-79 -35.5t-111 -12q-102 0 -191 42
q-22 11 -27 18.5t-5 29.5l-5 81q0 13 11 13q32 -62 78 -108q51 -50 127 -50q41 0 72 8q42 11 66.5 34.5t37.5 53.5t13 62q0 93 -77 135q-17 10 -44.5 13.5t-56.5 3.5h-13l-115 -4q-15 0 -15 19q0 16 15 16l113 -1q80 0 120.5 33.5t40.5 96.5q0 65 -44.5 96.5t-113.5 31.5z
" />
    <glyph glyph-name="Ccedilla" unicode="&#x417;" 
d="M242 612q-76 0 -121 -40q-34 -45 -68 -89q-11 0 -11 13l7 65q0 25 4 34.5t27 17.5t77 17t107 9q87 0 149 -33q78 -42 78 -122q0 -55 -44 -95q-38 -34 -95 -46q72 -9 118 -50q51 -46 51 -118q0 -43 -20.5 -79.5t-55.5 -60t-79 -35.5t-111 -12q-102 0 -191 42
q-22 11 -27 18.5t-5 29.5l-5 81q0 13 11 13q32 -62 78 -108q51 -50 127 -50q41 0 72 8q42 11 66.5 34.5t37.5 53.5t13 62q0 93 -77 135q-17 10 -44.5 13.5t-56.5 3.5h-13l-115 -4q-15 0 -15 19q0 16 15 16l113 -1q80 0 120.5 33.5t40.5 96.5q0 65 -44.5 96.5t-113.5 31.5z
" />
    <glyph glyph-name="Egrave" unicode="&#xc8;" horiz-adv-x="740" 
d="M194 107q0 -56 6 -67q11 -19 59 -19q12 0 19 -2t7 -10q0 -13 -17 -13q-20 0 -64.5 2t-47.5 2q-19 0 -65 -2t-49 -2q-17 0 -17 13q0 9 6.5 10.5t18.5 1.5q57 0 63 28q2 9 2 55v410v22q0 37 -9 47q-12 13 -56 13q-25 0 -25 13q0 14 17 14q20 0 64.5 -2t47.5 -2q19 0 65 2
t49 2q17 0 17 -14q0 -8 -7.5 -10.5t-18.5 -2.5q-43 0 -54 -12t-11 -48v-22v-288q0 -61 7 -61q6 0 28 24l315 325v22q0 37 -9 47q-12 13 -56 13q-25 0 -25 13q0 14 17 14q20 0 64.5 -2t47.5 -2q19 0 65 2t49 2q17 0 17 -14q0 -8 -7.5 -10.5t-18.5 -2.5q-43 0 -54 -12t-11 -48
v-22v-410q0 -55 6 -65q11 -18 59 -18q12 0 19 -2t7 -10q0 -13 -17 -13q-20 0 -64.5 2t-47.5 2q-19 0 -65 -2t-49 -2q-17 0 -17 13q0 9 6.5 10.5t18.5 1.5q57 0 63 28q2 9 2 55v293q0 62 -7 62q-3 0 -10 -7l-18 -18z" />
    <glyph glyph-name="Egrave" unicode="&#x418;" horiz-adv-x="740" 
d="M194 107q0 -56 6 -67q11 -19 59 -19q12 0 19 -2t7 -10q0 -13 -17 -13q-20 0 -64.5 2t-47.5 2q-19 0 -65 -2t-49 -2q-17 0 -17 13q0 9 6.5 10.5t18.5 1.5q57 0 63 28q2 9 2 55v410v22q0 37 -9 47q-12 13 -56 13q-25 0 -25 13q0 14 17 14q20 0 64.5 -2t47.5 -2q19 0 65 2
t49 2q17 0 17 -14q0 -8 -7.5 -10.5t-18.5 -2.5q-43 0 -54 -12t-11 -48v-22v-288q0 -61 7 -61q6 0 28 24l315 325v22q0 37 -9 47q-12 13 -56 13q-25 0 -25 13q0 14 17 14q20 0 64.5 -2t47.5 -2q19 0 65 2t49 2q17 0 17 -14q0 -8 -7.5 -10.5t-18.5 -2.5q-43 0 -54 -12t-11 -48
v-22v-410q0 -55 6 -65q11 -18 59 -18q12 0 19 -2t7 -10q0 -13 -17 -13q-20 0 -64.5 2t-47.5 2q-19 0 -65 -2t-49 -2q-17 0 -17 13q0 9 6.5 10.5t18.5 1.5q57 0 63 28q2 9 2 55v293q0 62 -7 62q-3 0 -10 -7l-18 -18z" />
    <glyph glyph-name="Eacute" unicode="&#xc9;" horiz-adv-x="740" 
d="M194 107q0 -56 6 -67q11 -19 59 -19q12 0 19 -2t7 -10q0 -13 -17 -13q-20 0 -64.5 2t-47.5 2q-19 0 -65 -2t-49 -2q-17 0 -17 13q0 9 6.5 10.5t18.5 1.5q57 0 63 28q2 9 2 55v410v22q0 37 -9 47q-12 13 -56 13q-25 0 -25 13q0 14 17 14q20 0 64.5 -2t47.5 -2q19 0 65 2
t49 2q17 0 17 -14q0 -8 -7.5 -10.5t-18.5 -2.5q-43 0 -54 -12t-11 -48v-22v-288q0 -61 7 -61q6 0 28 24l315 325v22q0 37 -9 47q-12 13 -56 13q-25 0 -25 13q0 14 17 14q20 0 64.5 -2t47.5 -2q19 0 65 2t49 2q17 0 17 -14q0 -8 -7.5 -10.5t-18.5 -2.5q-43 0 -54 -12t-11 -48
v-22v-410q0 -55 6 -65q11 -18 59 -18q12 0 19 -2t7 -10q0 -13 -17 -13q-20 0 -64.5 2t-47.5 2q-19 0 -65 -2t-49 -2q-17 0 -17 13q0 9 6.5 10.5t18.5 1.5q57 0 63 28q2 9 2 55v293q0 62 -7 62q-3 0 -10 -7l-18 -18zM508 753q0 -13 -7 -27t-19 -27q-21 -23 -51.5 -35
t-63.5 -12q-60 0 -101 34q-14 12 -28 32t-14 36q0 20 18 20q4 0 38 -39t94 -39q24 0 50 13t40 33q11 16 12 17q9 10 18 10q14 0 14 -16z" />
    <glyph glyph-name="Eacute" unicode="&#x419;" horiz-adv-x="740" 
d="M194 107q0 -56 6 -67q11 -19 59 -19q12 0 19 -2t7 -10q0 -13 -17 -13q-20 0 -64.5 2t-47.5 2q-19 0 -65 -2t-49 -2q-17 0 -17 13q0 9 6.5 10.5t18.5 1.5q57 0 63 28q2 9 2 55v410v22q0 37 -9 47q-12 13 -56 13q-25 0 -25 13q0 14 17 14q20 0 64.5 -2t47.5 -2q19 0 65 2
t49 2q17 0 17 -14q0 -8 -7.5 -10.5t-18.5 -2.5q-43 0 -54 -12t-11 -48v-22v-288q0 -61 7 -61q6 0 28 24l315 325v22q0 37 -9 47q-12 13 -56 13q-25 0 -25 13q0 14 17 14q20 0 64.5 -2t47.5 -2q19 0 65 2t49 2q17 0 17 -14q0 -8 -7.5 -10.5t-18.5 -2.5q-43 0 -54 -12t-11 -48
v-22v-410q0 -55 6 -65q11 -18 59 -18q12 0 19 -2t7 -10q0 -13 -17 -13q-20 0 -64.5 2t-47.5 2q-19 0 -65 -2t-49 -2q-17 0 -17 13q0 9 6.5 10.5t18.5 1.5q57 0 63 28q2 9 2 55v293q0 62 -7 62q-3 0 -10 -7l-18 -18zM508 753q0 -13 -7 -27t-19 -27q-21 -23 -51.5 -35
t-63.5 -12q-60 0 -101 34q-14 12 -28 32t-14 36q0 20 18 20q4 0 38 -39t94 -39q24 0 50 13t40 33q11 16 12 17q9 10 18 10q14 0 14 -16z" />
    <glyph glyph-name="Ecircumflex" unicode="&#xca;" horiz-adv-x="660" 
d="M116 514v22q0 37 -9 47q-12 13 -56 13q-25 0 -25 13q0 14 17 14q20 0 64.5 -2t47.5 -2q19 0 65 2t49 2q17 0 17 -14q0 -8 -7.5 -10.5t-18.5 -2.5q-43 0 -54 -12t-11 -48v-22v-186q0 -16 6 -16t11 8l188 189l28 30q21 25 21 35q0 13 -9 17.5t-23 4.5h-18q-12 3 -12 13
q0 14 17 14q20 0 64.5 -2t47.5 -2q17 0 50 2t49 2q15 0 15 -13q0 -9 -9.5 -11.5t-20.5 -2.5q-25 0 -38 -1.5t-31 -9.5t-42.5 -27t-42.5 -38l-107 -108q-9 -8 -15 -14q-10 -11 -10 -17q0 -4 8 -15q2 -3 11 -14l180 -227q23 -30 34 -42q22 -26 37 -39q26 -23 54 -23
q12 0 19 -2t7 -10q0 -13 -22 -13q-21 0 -70.5 2t-53.5 2q-18 0 -61.5 -2t-45.5 -2q-21 0 -21 11q0 9 7 10.5t21 1.5q25 0 32 2q20 6 20 23q0 11 -13 30q-3 4 -22 27l-156 199q-5 6 -10 13q-9 10 -14 10t-16 -11q-7 -7 -15.5 -15t-18.5 -18.5t-10 -21.5v-153q0 -55 6 -65
q11 -18 59 -18q12 0 19 -2t7 -10q0 -13 -17 -13q-20 0 -64.5 2t-47.5 2q-19 0 -65 -2t-49 -2q-17 0 -17 13q0 9 6.5 10.5t18.5 1.5q57 0 63 28q2 9 2 55v410z" />
    <glyph glyph-name="Ecircumflex" unicode="&#x41a;" horiz-adv-x="660" 
d="M116 514v22q0 37 -9 47q-12 13 -56 13q-25 0 -25 13q0 14 17 14q20 0 64.5 -2t47.5 -2q19 0 65 2t49 2q17 0 17 -14q0 -8 -7.5 -10.5t-18.5 -2.5q-43 0 -54 -12t-11 -48v-22v-186q0 -16 6 -16t11 8l188 189l28 30q21 25 21 35q0 13 -9 17.5t-23 4.5h-18q-12 3 -12 13
q0 14 17 14q20 0 64.5 -2t47.5 -2q17 0 50 2t49 2q15 0 15 -13q0 -9 -9.5 -11.5t-20.5 -2.5q-25 0 -38 -1.5t-31 -9.5t-42.5 -27t-42.5 -38l-107 -108q-9 -8 -15 -14q-10 -11 -10 -17q0 -4 8 -15q2 -3 11 -14l180 -227q23 -30 34 -42q22 -26 37 -39q26 -23 54 -23
q12 0 19 -2t7 -10q0 -13 -22 -13q-21 0 -70.5 2t-53.5 2q-18 0 -61.5 -2t-45.5 -2q-21 0 -21 11q0 9 7 10.5t21 1.5q25 0 32 2q20 6 20 23q0 11 -13 30q-3 4 -22 27l-156 199q-5 6 -10 13q-9 10 -14 10t-16 -11q-7 -7 -15.5 -15t-18.5 -18.5t-10 -21.5v-153q0 -55 6 -65
q11 -18 59 -18q12 0 19 -2t7 -10q0 -13 -17 -13q-20 0 -64.5 2t-47.5 2q-19 0 -65 -2t-49 -2q-17 0 -17 13q0 9 6.5 10.5t18.5 1.5q57 0 63 28q2 9 2 55v410z" />
    <glyph glyph-name="Edieresis" unicode="&#xcb;" horiz-adv-x="640" 
d="M263 596q-49 0 -61 -17q-8 -12 -8 -65v-270q0 -135 -58 -208q-46 -58 -109 -58q-27 0 -49.5 14t-22.5 40q0 17 13.5 29.5t31.5 12.5q15 0 25.5 -8t19.5 -21t16.5 -19.5t17.5 -6.5q11 0 25 14t23 31q17 31 24 57q12 45 12 122v271v22q0 37 -9 47q-12 13 -56 13
q-25 0 -25 13q0 14 17 14q20 0 64.5 -2t47.5 -2h301q16 0 53.5 2t40.5 2q17 0 17 -13q0 -14 -26 -14q-48 0 -56.5 -13.5t-8.5 -66.5v-412q0 -55 6 -65q11 -18 59 -18q25 0 25 -12q0 -13 -17 -13q-19 0 -64.5 2t-49.5 2q-20 0 -64.5 -2t-47.5 -2q-17 0 -17 13q0 9 6.5 10.5
t19.5 1.5q48 0 58 16q7 11 7 67v437q0 27 -10.5 41t-31.5 14h-139z" />
    <glyph glyph-name="Edieresis" unicode="&#x41b;" horiz-adv-x="640" 
d="M263 596q-49 0 -61 -17q-8 -12 -8 -65v-270q0 -135 -58 -208q-46 -58 -109 -58q-27 0 -49.5 14t-22.5 40q0 17 13.5 29.5t31.5 12.5q15 0 25.5 -8t19.5 -21t16.5 -19.5t17.5 -6.5q11 0 25 14t23 31q17 31 24 57q12 45 12 122v271v22q0 37 -9 47q-12 13 -56 13
q-25 0 -25 13q0 14 17 14q20 0 64.5 -2t47.5 -2h301q16 0 53.5 2t40.5 2q17 0 17 -13q0 -14 -26 -14q-48 0 -56.5 -13.5t-8.5 -66.5v-412q0 -55 6 -65q11 -18 59 -18q25 0 25 -12q0 -13 -17 -13q-19 0 -64.5 2t-49.5 2q-20 0 -64.5 -2t-47.5 -2q-17 0 -17 13q0 9 6.5 10.5
t19.5 1.5q48 0 58 16q7 11 7 67v437q0 27 -10.5 41t-31.5 14h-139z" />
    <glyph glyph-name="Igrave" unicode="&#xcc;" horiz-adv-x="800" 
d="M401 138l206 472q6 13 27 13h111q9 1 14 1q15 0 15 -12q0 -8 -5 -12t-19 -4h-17q-16 0 -19 -1t-8 -7t-7 -18.5t-2 -25.5q1 -20 1 -27v-413q0 -38 1.5 -49.5t9 -20t16.5 -11t23 -2.5h19q12 -2 12 -13q0 -12 -19 -12q-17 0 -55.5 2t-40.5 2q-21 0 -69 -2t-50 -2
q-19 0 -19 12q0 10 8 11.5t23 1.5q14 0 26 3.5t22 11.5t12 24t2 44v453h-7l-222 -520q-4 -9 -5 -11q-4 -7 -10 -7q-10 0 -15 19l-197 507h-7l-29 -412q0 -63 6 -79q12 -33 60 -33q15 0 23 -2t8 -11q0 -12 -22 -12q-15 0 -45 2t-45 2t-51 -2t-38 -2q-16 0 -16 12
q0 8 7.5 10.5t18.5 2.5q39 0 52 19q10 15 10 56l31 443q0 40 -6 47q-9 10 -48 10q-10 0 -17 3t-7 13q0 12 15 12q10 -1 14 -1h116q13 0 18 -8q4 -11 8 -21z" />
    <glyph glyph-name="Igrave" unicode="&#x41c;" horiz-adv-x="800" 
d="M401 138l206 472q6 13 27 13h111q9 1 14 1q15 0 15 -12q0 -8 -5 -12t-19 -4h-17q-16 0 -19 -1t-8 -7t-7 -18.5t-2 -25.5q1 -20 1 -27v-413q0 -38 1.5 -49.5t9 -20t16.5 -11t23 -2.5h19q12 -2 12 -13q0 -12 -19 -12q-17 0 -55.5 2t-40.5 2q-21 0 -69 -2t-50 -2
q-19 0 -19 12q0 10 8 11.5t23 1.5q14 0 26 3.5t22 11.5t12 24t2 44v453h-7l-222 -520q-4 -9 -5 -11q-4 -7 -10 -7q-10 0 -15 19l-197 507h-7l-29 -412q0 -63 6 -79q12 -33 60 -33q15 0 23 -2t8 -11q0 -12 -22 -12q-15 0 -45 2t-45 2t-51 -2t-38 -2q-16 0 -16 12
q0 8 7.5 10.5t18.5 2.5q39 0 52 19q10 15 10 56l31 443q0 40 -6 47q-9 10 -48 10q-10 0 -17 3t-7 13q0 12 15 12q10 -1 14 -1h116q13 0 18 -8q4 -11 8 -21z" />
    <glyph glyph-name="Iacute" unicode="&#xcd;" horiz-adv-x="740" 
d="M194 104q0 -55 6 -65q11 -18 59 -18q12 0 19 -2t7 -10q0 -13 -17 -13q-20 0 -64.5 2t-47.5 2q-19 0 -65 -2t-49 -2q-17 0 -17 13q0 9 6.5 10.5t18.5 1.5q57 0 63 28q2 9 2 55v410v22q0 37 -9 47q-12 13 -56 13q-25 0 -25 13q0 14 17 14q20 0 64.5 -2t47.5 -2q19 0 65 2
t49 2q17 0 17 -14q0 -8 -7.5 -10.5t-18.5 -2.5q-43 0 -54 -12t-11 -48v-22v-129q0 -28 3.5 -32.5t31.5 -4.5h280q25 0 30 5t5 32v129v22q0 37 -9 47q-12 13 -56 13q-25 0 -25 13q0 14 17 14q20 0 64.5 -2t47.5 -2q19 0 65 2t49 2q17 0 17 -14q0 -8 -7.5 -10.5t-18.5 -2.5
q-43 0 -54 -12t-11 -48v-22v-410q0 -55 6 -65q11 -18 59 -18q12 0 19 -2t7 -10q0 -13 -17 -13q-20 0 -64.5 2t-47.5 2q-19 0 -65 -2t-49 -2q-17 0 -17 13q0 9 6.5 10.5t18.5 1.5q57 0 63 28q2 9 2 55v179q0 28 -4.5 32.5t-30.5 4.5h-281q-26 0 -30 -5t-4 -32v-179z" />
    <glyph glyph-name="Iacute" unicode="&#x41d;" horiz-adv-x="740" 
d="M194 104q0 -55 6 -65q11 -18 59 -18q12 0 19 -2t7 -10q0 -13 -17 -13q-20 0 -64.5 2t-47.5 2q-19 0 -65 -2t-49 -2q-17 0 -17 13q0 9 6.5 10.5t18.5 1.5q57 0 63 28q2 9 2 55v410v22q0 37 -9 47q-12 13 -56 13q-25 0 -25 13q0 14 17 14q20 0 64.5 -2t47.5 -2q19 0 65 2
t49 2q17 0 17 -14q0 -8 -7.5 -10.5t-18.5 -2.5q-43 0 -54 -12t-11 -48v-22v-129q0 -28 3.5 -32.5t31.5 -4.5h280q25 0 30 5t5 32v129v22q0 37 -9 47q-12 13 -56 13q-25 0 -25 13q0 14 17 14q20 0 64.5 -2t47.5 -2q19 0 65 2t49 2q17 0 17 -14q0 -8 -7.5 -10.5t-18.5 -2.5
q-43 0 -54 -12t-11 -48v-22v-410q0 -55 6 -65q11 -18 59 -18q12 0 19 -2t7 -10q0 -13 -17 -13q-20 0 -64.5 2t-47.5 2q-19 0 -65 -2t-49 -2q-17 0 -17 13q0 9 6.5 10.5t18.5 1.5q57 0 63 28q2 9 2 55v179q0 28 -4.5 32.5t-30.5 4.5h-281q-26 0 -30 -5t-4 -32v-179z" />
    <glyph glyph-name="Icircumflex" unicode="&#xce;" horiz-adv-x="780" 
d="M390 639q145 0 246.5 -91.5t101.5 -233.5t-101 -234t-247 -92q-138 0 -242 94q-107 97 -107 232q0 134 105.5 229.5t243.5 95.5zM581 521q-37 44 -85 67.5t-104 23.5q-59 0 -110.5 -24t-86 -67.5t-49.5 -95.5t-15 -111q0 -60 15.5 -113.5t51.5 -96t86.5 -65.5t107.5 -23
q56 0 106.5 25.5t85 69t49 94.5t14.5 109q0 61 -15 112t-51 95z" />
    <glyph glyph-name="Icircumflex" unicode="&#x41e;" horiz-adv-x="780" 
d="M390 639q145 0 246.5 -91.5t101.5 -233.5t-101 -234t-247 -92q-138 0 -242 94q-107 97 -107 232q0 134 105.5 229.5t243.5 95.5zM581 521q-37 44 -85 67.5t-104 23.5q-59 0 -110.5 -24t-86 -67.5t-49.5 -95.5t-15 -111q0 -60 15.5 -113.5t51.5 -96t86.5 -65.5t107.5 -23
q56 0 106.5 25.5t85 69t49 94.5t14.5 109q0 61 -15 112t-51 95z" />
    <glyph glyph-name="Idieresis" unicode="&#xcf;" horiz-adv-x="740" 
d="M194 104q0 -55 6 -65q11 -18 59 -18q12 0 19 -2t7 -10q0 -13 -17 -13q-20 0 -64.5 2t-47.5 2q-19 0 -65 -2t-49 -2q-17 0 -17 13q0 9 6.5 10.5t18.5 1.5q57 0 63 28q2 9 2 55v410v22q0 37 -9 47q-12 13 -56 13q-25 0 -25 13q0 14 17 14l187 -4h280l188 4q17 0 17 -14
q0 -8 -7.5 -10.5t-18.5 -2.5q-43 0 -54 -12t-11 -48v-22v-410q0 -55 6 -65q11 -18 59 -18q12 0 19 -2t7 -10q0 -13 -17 -13q-20 0 -64.5 2t-47.5 2q-19 0 -65 -2t-49 -2q-17 0 -17 13q0 9 6.5 10.5t18.5 1.5q57 0 63 28q2 9 2 55v450q0 28 -4.5 32.5t-30.5 4.5h-277
q-27 0 -32.5 -5.5t-5.5 -31.5v-450z" />
    <glyph glyph-name="Idieresis" unicode="&#x41f;" horiz-adv-x="740" 
d="M194 104q0 -55 6 -65q11 -18 59 -18q12 0 19 -2t7 -10q0 -13 -17 -13q-20 0 -64.5 2t-47.5 2q-19 0 -65 -2t-49 -2q-17 0 -17 13q0 9 6.5 10.5t18.5 1.5q57 0 63 28q2 9 2 55v410v22q0 37 -9 47q-12 13 -56 13q-25 0 -25 13q0 14 17 14l187 -4h280l188 4q17 0 17 -14
q0 -8 -7.5 -10.5t-18.5 -2.5q-43 0 -54 -12t-11 -48v-22v-410q0 -55 6 -65q11 -18 59 -18q12 0 19 -2t7 -10q0 -13 -17 -13q-20 0 -64.5 2t-47.5 2q-19 0 -65 -2t-49 -2q-17 0 -17 13q0 9 6.5 10.5t18.5 1.5q57 0 63 28q2 9 2 55v450q0 28 -4.5 32.5t-30.5 4.5h-277
q-27 0 -32.5 -5.5t-5.5 -31.5v-450z" />
    <glyph glyph-name="Eth" unicode="&#xd0;" 
d="M114 514v22q0 37 -9 47q-12 13 -55 13q-25 0 -25 13q0 14 17 14q18 0 53 -2t53 -2q28 0 92 2t67 2q43 0 74 -7t62 -28t51 -58.5t20 -77.5q0 -79 -57 -131t-137 -52q-19 0 -41 7l-48 16q-7 2 -12 3.5t-10 1.5q-13 0 -14.5 -10t-1.5 -18v-165q0 -55 6 -65q11 -18 59 -18
q12 0 19 -2t7 -10q0 -13 -17 -13q-20 0 -64.5 2t-47.5 2q-19 0 -65 -2t-49 -2q-17 0 -17 13q0 9 6.5 10.5t18.5 1.5q57 0 63 28q2 9 2 55v410zM193 371q-1 -13 -1 -20q0 -11 3.5 -19t15 -15t37 -13t41.5 -6q61 0 101.5 44.5t40.5 105.5q0 37 -12.5 68t-39.5 54
q-21 19 -50 27t-64 8q-49 0 -60.5 -17t-11.5 -69v-148z" />
    <glyph glyph-name="Eth" unicode="&#x420;" 
d="M114 514v22q0 37 -9 47q-12 13 -55 13q-25 0 -25 13q0 14 17 14q18 0 53 -2t53 -2q28 0 92 2t67 2q43 0 74 -7t62 -28t51 -58.5t20 -77.5q0 -79 -57 -131t-137 -52q-19 0 -41 7l-48 16q-7 2 -12 3.5t-10 1.5q-13 0 -14.5 -10t-1.5 -18v-165q0 -55 6 -65q11 -18 59 -18
q12 0 19 -2t7 -10q0 -13 -17 -13q-20 0 -64.5 2t-47.5 2q-19 0 -65 -2t-49 -2q-17 0 -17 13q0 9 6.5 10.5t18.5 1.5q57 0 63 28q2 9 2 55v410zM193 371q-1 -13 -1 -20q0 -11 3.5 -19t15 -15t37 -13t41.5 -6q61 0 101.5 44.5t40.5 105.5q0 37 -12.5 68t-39.5 54
q-21 19 -50 27t-64 8q-49 0 -60.5 -17t-11.5 -69v-148z" />
    <glyph glyph-name="Ntilde" unicode="&#xd1;" horiz-adv-x="620" 
d="M578 496q0 -13 -11 -13q-25 50 -67 87q-46 41 -122 41q-119 0 -188 -90q-63 -82 -63 -204q0 -110 62 -196q37 -51 83.5 -78.5t105.5 -27.5q75 0 122 49l72 108q13 0 11 -13l-5 -81q0 -24 -4 -30t-28 -18q-89 -42 -181 -42q-136 0 -231.5 96.5t-95.5 231.5
q0 136 103.5 229.5t243.5 93.5q32 0 79.5 -8t78.5 -19q21 -7 25 -25q0 -2 3 -26z" />
    <glyph glyph-name="Ntilde" unicode="&#x421;" horiz-adv-x="620" 
d="M578 496q0 -13 -11 -13q-25 50 -67 87q-46 41 -122 41q-119 0 -188 -90q-63 -82 -63 -204q0 -110 62 -196q37 -51 83.5 -78.5t105.5 -27.5q75 0 122 49l72 108q13 0 11 -13l-5 -81q0 -24 -4 -30t-28 -18q-89 -42 -181 -42q-136 0 -231.5 96.5t-95.5 231.5
q0 136 103.5 229.5t243.5 93.5q32 0 79.5 -8t78.5 -19q21 -7 25 -25q0 -2 3 -26z" />
    <glyph glyph-name="Ograve" unicode="&#xd2;" horiz-adv-x="580" 
d="M331 104q0 -55 6 -65q11 -18 59 -18q12 0 19 -2t7 -10q0 -13 -17 -13q-20 0 -64.5 2t-47.5 2q-19 0 -65 -2t-49 -2q-17 0 -17 13q0 9 6.5 10.5t18.5 1.5q57 0 63 28q2 9 2 55v459q0 19 -4.5 24.5t-18.5 5.5q-13 -1 -21 -1q-73 0 -107 -15.5t-69 -73.5q-4 -7 -9.5 -15.5
t-12.5 -8.5q-10 0 -10 12q0 9 6 24l39 130q4 14 13 14t9 -11q2 -16 7 -20.5t14.5 -6.5t17.5 -2h19h363h19q18 0 27.5 4t15 20t14.5 16q6 0 8 -9t2 -11q-1 -13 -1 -16l-6 -122q0 -17 -12 -17q-6 0 -11.5 15.5t-10.5 32.5q-8 21 -18 34q-15 18 -32 22t-49 4h-58
q-34 0 -39.5 -5.5t-5.5 -43.5v-439z" />
    <glyph glyph-name="Ograve" unicode="&#x422;" horiz-adv-x="580" 
d="M331 104q0 -55 6 -65q11 -18 59 -18q12 0 19 -2t7 -10q0 -13 -17 -13q-20 0 -64.5 2t-47.5 2q-19 0 -65 -2t-49 -2q-17 0 -17 13q0 9 6.5 10.5t18.5 1.5q57 0 63 28q2 9 2 55v459q0 19 -4.5 24.5t-18.5 5.5q-13 -1 -21 -1q-73 0 -107 -15.5t-69 -73.5q-4 -7 -9.5 -15.5
t-12.5 -8.5q-10 0 -10 12q0 9 6 24l39 130q4 14 13 14t9 -11q2 -16 7 -20.5t14.5 -6.5t17.5 -2h19h363h19q18 0 27.5 4t15 20t14.5 16q6 0 8 -9t2 -11q-1 -13 -1 -16l-6 -122q0 -17 -12 -17q-6 0 -11.5 15.5t-10.5 32.5q-8 21 -18 34q-15 18 -32 22t-49 4h-58
q-34 0 -39.5 -5.5t-5.5 -43.5v-439z" />
    <glyph glyph-name="Oacute" unicode="&#xd3;" horiz-adv-x="660" 
d="M344 135l-226 381q-31 51 -36 57q-21 23 -60 23q-28 0 -28 13q0 14 20 14q15 0 45 -2t45 -2q23 0 69 2t69 2q18 0 18 -12q0 -10 -7.5 -12.5t-19.5 -2.5q-25 0 -37 -2.5t-12 -17.5q0 -9 5 -21.5t12 -26.5l179 -311l127 295q8 19 11 29q7 21 7 30q0 15 -12.5 20t-30.5 5
h-13q-15 0 -21.5 1.5t-6.5 8.5q0 8 7.5 12.5t15.5 4.5q15 0 46 -2t46 -2t45 2t46 2q21 0 21 -15q0 -9 -8 -10.5t-21 -1.5q-45 0 -76 -50q-10 -16 -27 -53l-191 -411q-28 -62 -68 -86q-30 -18 -74 -18q-27 0 -49.5 14t-22.5 40q0 17 13.5 29.5t31.5 12.5q15 0 25.5 -8
t19.5 -22t13 -17q9 -8 19 -8q14 0 31 15t25 31z" />
    <glyph glyph-name="Oacute" unicode="&#x423;" horiz-adv-x="660" 
d="M344 135l-226 381q-31 51 -36 57q-21 23 -60 23q-28 0 -28 13q0 14 20 14q15 0 45 -2t45 -2q23 0 69 2t69 2q18 0 18 -12q0 -10 -7.5 -12.5t-19.5 -2.5q-25 0 -37 -2.5t-12 -17.5q0 -9 5 -21.5t12 -26.5l179 -311l127 295q8 19 11 29q7 21 7 30q0 15 -12.5 20t-30.5 5
h-13q-15 0 -21.5 1.5t-6.5 8.5q0 8 7.5 12.5t15.5 4.5q15 0 46 -2t46 -2t45 2t46 2q21 0 21 -15q0 -9 -8 -10.5t-21 -1.5q-45 0 -76 -50q-10 -16 -27 -53l-191 -411q-28 -62 -68 -86q-30 -18 -74 -18q-27 0 -49.5 14t-22.5 40q0 17 13.5 29.5t31.5 12.5q15 0 25.5 -8
t19.5 -22t13 -17q9 -8 19 -8q14 0 31 15t25 31z" />
    <glyph glyph-name="Ocircumflex" unicode="&#xd4;" horiz-adv-x="840" 
d="M460 533q151 0 239 -51q99 -57 99 -172q0 -114 -99 -173q-88 -52 -239 -52q0 -40 7 -49q11 -15 57 -15q12 0 19 -2t7 -10q0 -13 -17 -13q-20 0 -64.5 2t-47.5 2q-19 0 -65 -2t-49 -2q-17 0 -17 13q0 9 6.5 10.5t18.5 1.5q46 0 57 14q8 10 8 50q-145 0 -235 52
q-103 59 -103 173q0 113 102 171q90 51 236 51q0 40 -7 49q-12 15 -58 15q-25 0 -25 13q0 14 17 14q20 0 64.5 -2t47.5 -2q19 0 65 2t49 2q17 0 17 -14q0 -8 -7.5 -10.5t-18.5 -2.5q-46 0 -57 -14q-7 -9 -7 -49zM460 105q107 0 175 57t68 148q0 88 -68 146t-175 58v-409z
M380 514q-107 0 -175 -57t-68 -147q0 -89 68 -147t175 -58v409z" />
    <glyph glyph-name="Ocircumflex" unicode="&#x424;" horiz-adv-x="840" 
d="M460 533q151 0 239 -51q99 -57 99 -172q0 -114 -99 -173q-88 -52 -239 -52q0 -40 7 -49q11 -15 57 -15q12 0 19 -2t7 -10q0 -13 -17 -13q-20 0 -64.5 2t-47.5 2q-19 0 -65 -2t-49 -2q-17 0 -17 13q0 9 6.5 10.5t18.5 1.5q46 0 57 14q8 10 8 50q-145 0 -235 52
q-103 59 -103 173q0 113 102 171q90 51 236 51q0 40 -7 49q-12 15 -58 15q-25 0 -25 13q0 14 17 14q20 0 64.5 -2t47.5 -2q19 0 65 2t49 2q17 0 17 -14q0 -8 -7.5 -10.5t-18.5 -2.5q-46 0 -57 -14q-7 -9 -7 -49zM460 105q107 0 175 57t68 148q0 88 -68 146t-175 58v-409z
M380 514q-107 0 -175 -57t-68 -147q0 -89 68 -147t175 -58v409z" />
    <glyph glyph-name="Otilde" unicode="&#xd5;" horiz-adv-x="640" 
d="M188 115q-11 -15 -23 -35q-16 -27 -16 -37q0 -12 9.5 -17t24.5 -5h21q18 0 27 -2.5t9 -12.5t-24 -10q-17 0 -58 2t-42 2q-18 0 -58.5 -2t-44.5 -2h-13q-6 2 -6 10q0 11 10 13t14 2h13q14 0 21 1t18 7q20 11 56 55q18 22 29 37l114 151q4 5 10.5 15t6.5 16q0 9 -7.5 20
t-11.5 16l-118 161q-19 26 -33 44q-23 29 -35 38t-23 11.5t-30 2.5q-15 0 -24 2t-9 12q0 13 21 13q17 0 55.5 -2t40.5 -2q27 0 88.5 2t65.5 2q15 0 15 -13q0 -9 -8 -11.5t-19 -2.5h-18q-18 0 -29 -3.5t-11 -17.5q0 -8 8 -20q4 -6 14 -19l122 -168l102 139q13 18 21 31
q13 22 13 36q0 16 -12.5 19t-34.5 3q-15 0 -23.5 2t-8.5 12q0 13 21 13t72.5 -2t55.5 -2q16 0 50.5 2t37.5 2q16 0 16 -16q0 -8 -7 -9.5t-19 -1.5q-23 0 -41.5 -4.5t-35.5 -15.5q-22 -15 -57 -56q-28 -33 -52 -65l-57 -78q-8 -10 -11 -15q-7 -11 -7 -18q0 -8 7 -17.5
t10 -13.5l183 -252q17 -23 29 -31.5t34 -8.5q11 0 18.5 -3t7.5 -12q0 -7 -3 -8.5t-19 -1.5q-21 0 -70.5 2t-53.5 2q-17 0 -55.5 -2t-40.5 -2q-20 0 -20 11q0 14 26 14q13 -1 21 -1q17 0 26.5 4t9.5 17q0 10 -11 27q-6 10 -18 24l-135 188z" />
    <glyph glyph-name="Otilde" unicode="&#x425;" horiz-adv-x="640" 
d="M188 115q-11 -15 -23 -35q-16 -27 -16 -37q0 -12 9.5 -17t24.5 -5h21q18 0 27 -2.5t9 -12.5t-24 -10q-17 0 -58 2t-42 2q-18 0 -58.5 -2t-44.5 -2h-13q-6 2 -6 10q0 11 10 13t14 2h13q14 0 21 1t18 7q20 11 56 55q18 22 29 37l114 151q4 5 10.5 15t6.5 16q0 9 -7.5 20
t-11.5 16l-118 161q-19 26 -33 44q-23 29 -35 38t-23 11.5t-30 2.5q-15 0 -24 2t-9 12q0 13 21 13q17 0 55.5 -2t40.5 -2q27 0 88.5 2t65.5 2q15 0 15 -13q0 -9 -8 -11.5t-19 -2.5h-18q-18 0 -29 -3.5t-11 -17.5q0 -8 8 -20q4 -6 14 -19l122 -168l102 139q13 18 21 31
q13 22 13 36q0 16 -12.5 19t-34.5 3q-15 0 -23.5 2t-8.5 12q0 13 21 13t72.5 -2t55.5 -2q16 0 50.5 2t37.5 2q16 0 16 -16q0 -8 -7 -9.5t-19 -1.5q-23 0 -41.5 -4.5t-35.5 -15.5q-22 -15 -57 -56q-28 -33 -52 -65l-57 -78q-8 -10 -11 -15q-7 -11 -7 -18q0 -8 7 -17.5
t10 -13.5l183 -252q17 -23 29 -31.5t34 -8.5q11 0 18.5 -3t7.5 -12q0 -7 -3 -8.5t-19 -1.5q-21 0 -70.5 2t-53.5 2q-17 0 -55.5 -2t-40.5 -2q-20 0 -20 11q0 14 26 14q13 -1 21 -1q17 0 26.5 4t9.5 17q0 10 -11 27q-6 10 -18 24l-135 188z" />
    <glyph glyph-name="Odieresis" unicode="&#xd6;" horiz-adv-x="740" 
d="M509 0h-280l-187 -4q-17 0 -17 14q0 8 7.5 10.5t17.5 2.5q57 0 63 28q2 9 2 54v410v22q0 38 -9 48q-12 13 -56 13q-25 0 -25 12q0 13 17 13q19 0 64.5 -2t49.5 -2q20 0 64.5 2t47.5 2q17 0 17 -13q0 -9 -6.5 -10.5t-19.5 -1.5q-48 0 -56.5 -14.5t-8.5 -68.5v-411
q0 -56 5 -66t33 -10h277q19 0 25 9q10 15 10 67v411v22q0 38 -9 48q-12 13 -56 13q-25 0 -25 12q0 13 17 13q19 0 64.5 -2t49.5 -2q20 0 64.5 2t47.5 2q17 0 17 -13q0 -9 -6.5 -10.5t-19.5 -1.5q-48 0 -56.5 -14.5t-8.5 -68.5v-410q0 -48 1 -53q6 -29 64 -29q12 0 19 -2
t7 -11l-6 -145q0 -17 -12 -17q-6 0 -11 14q-9 39 -15.5 62t-13.5 32q-21 25 -40 32q-31 12 -107 12z" />
    <glyph glyph-name="Odieresis" unicode="&#x426;" horiz-adv-x="740" 
d="M509 0h-280l-187 -4q-17 0 -17 14q0 8 7.5 10.5t17.5 2.5q57 0 63 28q2 9 2 54v410v22q0 38 -9 48q-12 13 -56 13q-25 0 -25 12q0 13 17 13q19 0 64.5 -2t49.5 -2q20 0 64.5 2t47.5 2q17 0 17 -13q0 -9 -6.5 -10.5t-19.5 -1.5q-48 0 -56.5 -14.5t-8.5 -68.5v-411
q0 -56 5 -66t33 -10h277q19 0 25 9q10 15 10 67v411v22q0 38 -9 48q-12 13 -56 13q-25 0 -25 12q0 13 17 13q19 0 64.5 -2t49.5 -2q20 0 64.5 2t47.5 2q17 0 17 -13q0 -9 -6.5 -10.5t-19.5 -1.5q-48 0 -56.5 -14.5t-8.5 -68.5v-410q0 -48 1 -53q6 -29 64 -29q12 0 19 -2
t7 -11l-6 -145q0 -17 -12 -17q-6 0 -11 14q-9 39 -15.5 62t-13.5 32q-21 25 -40 32q-31 12 -107 12z" />
    <glyph glyph-name="multiply" unicode="&#xd7;" horiz-adv-x="720" 
d="M95 514v21q0 38 -9 48q-12 13 -56 13q-25 0 -25 13q0 14 17 14q20 0 64.5 -2t47.5 -2q19 0 65 2t49 2q17 0 17 -14q0 -8 -7.5 -10.5t-18.5 -2.5q-43 0 -54 -12t-11 -48v-22v-129q0 -47 46 -72q40 -22 97 -22q42 0 107 22q22 7 59 23l32 18q9 8 9 31v129v22q0 37 -9 47
q-12 13 -56 13q-25 0 -25 13q0 14 17 14q20 0 64.5 -2t47.5 -2q19 0 65 2t49 2q17 0 17 -14q0 -8 -7.5 -10.5t-18.5 -2.5q-43 0 -54 -12t-11 -48v-22v-410q0 -55 6 -65q11 -18 59 -18q12 0 19 -2t7 -10q0 -13 -17 -13q-20 0 -64.5 2t-47.5 2q-19 0 -65 -2t-49 -2
q-17 0 -17 13q0 9 6.5 10.5t18.5 1.5q57 0 63 28q2 9 2 55v179q0 44 -9 44q-7 0 -29 -17q-43 -22 -68 -32q-77 -32 -121 -32q-88 0 -140 30q-62 36 -62 109v129z" />
    <glyph glyph-name="multiply" unicode="&#x427;" horiz-adv-x="720" 
d="M95 514v21q0 38 -9 48q-12 13 -56 13q-25 0 -25 13q0 14 17 14q20 0 64.5 -2t47.5 -2q19 0 65 2t49 2q17 0 17 -14q0 -8 -7.5 -10.5t-18.5 -2.5q-43 0 -54 -12t-11 -48v-22v-129q0 -47 46 -72q40 -22 97 -22q42 0 107 22q22 7 59 23l32 18q9 8 9 31v129v22q0 37 -9 47
q-12 13 -56 13q-25 0 -25 13q0 14 17 14q20 0 64.5 -2t47.5 -2q19 0 65 2t49 2q17 0 17 -14q0 -8 -7.5 -10.5t-18.5 -2.5q-43 0 -54 -12t-11 -48v-22v-410q0 -55 6 -65q11 -18 59 -18q12 0 19 -2t7 -10q0 -13 -17 -13q-20 0 -64.5 2t-47.5 2q-19 0 -65 -2t-49 -2
q-17 0 -17 13q0 9 6.5 10.5t18.5 1.5q57 0 63 28q2 9 2 55v179q0 44 -9 44q-7 0 -29 -17q-43 -22 -68 -32q-77 -32 -121 -32q-88 0 -140 30q-62 36 -62 109v129z" />
    <glyph glyph-name="Oslash" unicode="&#xd8;" horiz-adv-x="920" 
d="M385 28q26 0 30.5 10t4.5 66v410v22q0 37 -9 47q-12 13 -56 13q-25 0 -25 13q0 14 17 14q20 0 64.5 -2t47.5 -2q19 0 65 2t49 2q17 0 17 -14q0 -8 -7.5 -10.5t-18.5 -2.5q-43 0 -54 -12t-11 -48v-22v-410q0 -57 4.5 -66.5t30.5 -9.5h157q26 0 30.5 10t4.5 66v411v22
q0 38 -9 48q-12 13 -56 13q-25 0 -25 12q0 13 17 13q19 0 64.5 -2t49.5 -2q20 0 64.5 2t47.5 2q17 0 17 -13q0 -9 -6.5 -10.5t-19.5 -1.5q-48 0 -56.5 -14.5t-8.5 -68.5v-410q0 -48 1 -53q6 -29 64 -29q12 0 19 -2t7 -11q0 -14 -17 -14l-188 4h-462l-187 -4q-17 0 -17 14
q0 8 7.5 10.5t17.5 2.5q57 0 63 28q2 9 2 54v410v22q0 38 -9 48q-12 13 -56 13q-25 0 -25 12q0 13 17 13q19 0 64.5 -2t49.5 -2q20 0 64.5 2t47.5 2q17 0 17 -13q0 -9 -6.5 -10.5t-19.5 -1.5q-48 0 -56.5 -14.5t-8.5 -68.5v-411q0 -56 5 -66t33 -10h153z" />
    <glyph glyph-name="Oslash" unicode="&#x428;" horiz-adv-x="920" 
d="M385 28q26 0 30.5 10t4.5 66v410v22q0 37 -9 47q-12 13 -56 13q-25 0 -25 13q0 14 17 14q20 0 64.5 -2t47.5 -2q19 0 65 2t49 2q17 0 17 -14q0 -8 -7.5 -10.5t-18.5 -2.5q-43 0 -54 -12t-11 -48v-22v-410q0 -57 4.5 -66.5t30.5 -9.5h157q26 0 30.5 10t4.5 66v411v22
q0 38 -9 48q-12 13 -56 13q-25 0 -25 12q0 13 17 13q19 0 64.5 -2t49.5 -2q20 0 64.5 2t47.5 2q17 0 17 -13q0 -9 -6.5 -10.5t-19.5 -1.5q-48 0 -56.5 -14.5t-8.5 -68.5v-410q0 -48 1 -53q6 -29 64 -29q12 0 19 -2t7 -11q0 -14 -17 -14l-188 4h-462l-187 -4q-17 0 -17 14
q0 8 7.5 10.5t17.5 2.5q57 0 63 28q2 9 2 54v410v22q0 38 -9 48q-12 13 -56 13q-25 0 -25 12q0 13 17 13q19 0 64.5 -2t49.5 -2q20 0 64.5 2t47.5 2q17 0 17 -13q0 -9 -6.5 -10.5t-19.5 -1.5q-48 0 -56.5 -14.5t-8.5 -68.5v-411q0 -56 5 -66t33 -10h153z" />
    <glyph glyph-name="Ugrave" unicode="&#xd9;" horiz-adv-x="920" 
d="M691 0h-462l-187 -4q-17 0 -17 14q0 8 7.5 10.5t17.5 2.5q57 0 63 28q2 9 2 54v410v22q0 38 -9 48q-12 13 -56 13q-25 0 -25 12q0 13 17 13q19 0 64.5 -2t49.5 -2q20 0 64.5 2t47.5 2q17 0 17 -13q0 -9 -6.5 -10.5t-19.5 -1.5q-48 0 -56.5 -14.5t-8.5 -68.5v-411
q0 -56 5 -66t33 -10h153q26 0 30.5 10t4.5 66v410v22q0 37 -9 47q-12 13 -56 13q-25 0 -25 13q0 14 17 14q20 0 64.5 -2t47.5 -2q19 0 65 2t49 2q17 0 17 -14q0 -8 -7.5 -10.5t-18.5 -2.5q-43 0 -54 -12t-11 -48v-22v-410q0 -57 4.5 -66.5t30.5 -9.5h157q26 0 30.5 10
t4.5 66v411v22q0 38 -9 48q-12 13 -56 13q-25 0 -25 12q0 13 17 13q19 0 64.5 -2t49.5 -2q20 0 64.5 2t47.5 2q17 0 17 -13q0 -9 -6.5 -10.5t-19.5 -1.5q-48 0 -56.5 -14.5t-8.5 -68.5v-410q0 -48 1 -53q6 -29 64 -29q12 0 19 -2t7 -11l-6 -145q0 -17 -12 -17q-6 0 -11 14
q-9 39 -15.5 62t-13.5 32q-21 25 -40 32q-31 12 -107 12z" />
    <glyph glyph-name="Ugrave" unicode="&#x429;" horiz-adv-x="920" 
d="M691 0h-462l-187 -4q-17 0 -17 14q0 8 7.5 10.5t17.5 2.5q57 0 63 28q2 9 2 54v410v22q0 38 -9 48q-12 13 -56 13q-25 0 -25 12q0 13 17 13q19 0 64.5 -2t49.5 -2q20 0 64.5 2t47.5 2q17 0 17 -13q0 -9 -6.5 -10.5t-19.5 -1.5q-48 0 -56.5 -14.5t-8.5 -68.5v-411
q0 -56 5 -66t33 -10h153q26 0 30.5 10t4.5 66v410v22q0 37 -9 47q-12 13 -56 13q-25 0 -25 13q0 14 17 14q20 0 64.5 -2t47.5 -2q19 0 65 2t49 2q17 0 17 -14q0 -8 -7.5 -10.5t-18.5 -2.5q-43 0 -54 -12t-11 -48v-22v-410q0 -57 4.5 -66.5t30.5 -9.5h157q26 0 30.5 10
t4.5 66v411v22q0 38 -9 48q-12 13 -56 13q-25 0 -25 12q0 13 17 13q19 0 64.5 -2t49.5 -2q20 0 64.5 2t47.5 2q17 0 17 -13q0 -9 -6.5 -10.5t-19.5 -1.5q-48 0 -56.5 -14.5t-8.5 -68.5v-410q0 -48 1 -53q6 -29 64 -29q12 0 19 -2t7 -11l-6 -145q0 -17 -12 -17q-6 0 -11 14
q-9 39 -15.5 62t-13.5 32q-21 25 -40 32q-31 12 -107 12z" />
    <glyph glyph-name="Uacute" unicode="&#xda;" horiz-adv-x="640" 
d="M105 620l126 -1q20 0 64.5 2t47.5 2q17 0 17 -13q0 -9 -6.5 -10.5t-19.5 -1.5q-48 0 -56.5 -14.5t-8.5 -68.5v-155q0 -16 2 -22t14 -6q2 0 51 9t60 9q80 0 137 -52t57 -131q0 -39 -20 -76.5t-53 -60.5q-27 -19 -61.5 -26.5t-72.5 -7.5q-27 0 -90.5 2t-68.5 2
q-18 0 -53 -2t-53 -2q-17 0 -17 14q0 8 7.5 10.5t17.5 2.5q56 0 62 28q2 10 2 54v410v20q0 38 -6 47q-10 15 -43 15q-46 -7 -80 -39q-27 -26 -62 -83q-4 -7 -9.5 -15.5t-12.5 -8.5q-10 0 -10 12q0 3 3 12t3 12l39 122q0 14 15 14zM269 100q0 -51 11.5 -68.5t60.5 -17.5
q35 0 63.5 7.5t52 28.5t37 53.5t13.5 67.5q0 61 -40.5 105.5t-101.5 44.5q-20 0 -42 -5.5t-38.5 -15t-16.5 -32.5q1 -13 1 -20v-148z" />
    <glyph glyph-name="Uacute" unicode="&#x42a;" horiz-adv-x="640" 
d="M105 620l126 -1q20 0 64.5 2t47.5 2q17 0 17 -13q0 -9 -6.5 -10.5t-19.5 -1.5q-48 0 -56.5 -14.5t-8.5 -68.5v-155q0 -16 2 -22t14 -6q2 0 51 9t60 9q80 0 137 -52t57 -131q0 -39 -20 -76.5t-53 -60.5q-27 -19 -61.5 -26.5t-72.5 -7.5q-27 0 -90.5 2t-68.5 2
q-18 0 -53 -2t-53 -2q-17 0 -17 14q0 8 7.5 10.5t17.5 2.5q56 0 62 28q2 10 2 54v410v20q0 38 -6 47q-10 15 -43 15q-46 -7 -80 -39q-27 -26 -62 -83q-4 -7 -9.5 -15.5t-12.5 -8.5q-10 0 -10 12q0 3 3 12t3 12l39 122q0 14 15 14zM269 100q0 -51 11.5 -68.5t60.5 -17.5
q35 0 63.5 7.5t52 28.5t37 53.5t13.5 67.5q0 61 -40.5 105.5t-101.5 44.5q-20 0 -42 -5.5t-38.5 -15t-16.5 -32.5q1 -13 1 -20v-148z" />
    <glyph glyph-name="Ucircumflex" unicode="&#xdb;" horiz-adv-x="820" 
d="M626 514v22q0 37 -9 47q-12 13 -56 13q-25 0 -25 13q0 14 17 14q20 0 64.5 -2t47.5 -2q19 0 65 2t49 2q17 0 17 -14q0 -8 -7.5 -10.5t-18.5 -2.5q-43 0 -54 -12t-11 -48v-22v-410q0 -55 6 -65q11 -18 59 -18q12 0 19 -2t7 -10q0 -13 -17 -13q-20 0 -64.5 2t-47.5 2
q-19 0 -65 -2t-49 -2q-17 0 -17 13q0 9 6.5 10.5t18.5 1.5q57 0 63 28q2 9 2 55v410zM114 515v22q0 38 -9 48q-12 13 -56 13q-25 0 -25 12q0 13 17 13q19 0 64.5 -2t49.5 -2q20 0 64.5 2t47.5 2q17 0 17 -13q0 -9 -6.5 -10.5t-19.5 -1.5q-48 0 -56.5 -14.5t-8.5 -68.5v-155
q0 -16 2 -22t14 -6q2 0 51 9t60 9q80 0 137 -52t57 -131q0 -39 -20 -76.5t-53 -60.5q-27 -19 -61.5 -26.5t-72.5 -7.5q-27 0 -90.5 2t-68.5 2q-18 0 -53 -2t-53 -2q-17 0 -17 14q0 8 7.5 10.5t17.5 2.5q56 0 62 28q2 10 2 54v410zM193 100q0 -51 11.5 -68.5t60.5 -17.5
q35 0 63.5 7.5t52 28.5t37 53.5t13.5 67.5q0 61 -40.5 105.5t-101.5 44.5q-20 0 -42 -5.5t-38.5 -15t-16.5 -32.5q1 -13 1 -20v-148z" />
    <glyph glyph-name="Ucircumflex" unicode="&#x42b;" horiz-adv-x="820" 
d="M626 514v22q0 37 -9 47q-12 13 -56 13q-25 0 -25 13q0 14 17 14q20 0 64.5 -2t47.5 -2q19 0 65 2t49 2q17 0 17 -14q0 -8 -7.5 -10.5t-18.5 -2.5q-43 0 -54 -12t-11 -48v-22v-410q0 -55 6 -65q11 -18 59 -18q12 0 19 -2t7 -10q0 -13 -17 -13q-20 0 -64.5 2t-47.5 2
q-19 0 -65 -2t-49 -2q-17 0 -17 13q0 9 6.5 10.5t18.5 1.5q57 0 63 28q2 9 2 55v410zM114 515v22q0 38 -9 48q-12 13 -56 13q-25 0 -25 12q0 13 17 13q19 0 64.5 -2t49.5 -2q20 0 64.5 2t47.5 2q17 0 17 -13q0 -9 -6.5 -10.5t-19.5 -1.5q-48 0 -56.5 -14.5t-8.5 -68.5v-155
q0 -16 2 -22t14 -6q2 0 51 9t60 9q80 0 137 -52t57 -131q0 -39 -20 -76.5t-53 -60.5q-27 -19 -61.5 -26.5t-72.5 -7.5q-27 0 -90.5 2t-68.5 2q-18 0 -53 -2t-53 -2q-17 0 -17 14q0 8 7.5 10.5t17.5 2.5q56 0 62 28q2 10 2 54v410zM193 100q0 -51 11.5 -68.5t60.5 -17.5
q35 0 63.5 7.5t52 28.5t37 53.5t13.5 67.5q0 61 -40.5 105.5t-101.5 44.5q-20 0 -42 -5.5t-38.5 -15t-16.5 -32.5q1 -13 1 -20v-148z" />
    <glyph glyph-name="Udieresis" unicode="&#xdc;" 
d="M114 515v22q0 38 -9 48q-12 13 -56 13q-25 0 -25 12q0 13 17 13q19 0 64.5 -2t49.5 -2q20 0 64.5 2t47.5 2q17 0 17 -13q0 -9 -6.5 -10.5t-19.5 -1.5q-48 0 -56.5 -14.5t-8.5 -68.5v-155q0 -16 2 -22t14 -6q2 0 51 9t60 9q80 0 137 -52t57 -131q0 -39 -20 -76.5
t-53 -60.5q-27 -19 -61.5 -26.5t-72.5 -7.5q-27 0 -90.5 2t-68.5 2q-18 0 -53 -2t-53 -2q-17 0 -17 14q0 8 7.5 10.5t17.5 2.5q56 0 62 28q2 10 2 54v410zM193 100q0 -51 11.5 -68.5t60.5 -17.5q35 0 63.5 7.5t52 28.5t37 53.5t13.5 67.5q0 61 -40.5 105.5t-101.5 44.5
q-20 0 -42 -5.5t-38.5 -15t-16.5 -32.5q1 -13 1 -20v-148z" />
    <glyph glyph-name="Udieresis" unicode="&#x42c;" 
d="M114 515v22q0 38 -9 48q-12 13 -56 13q-25 0 -25 12q0 13 17 13q19 0 64.5 -2t49.5 -2q20 0 64.5 2t47.5 2q17 0 17 -13q0 -9 -6.5 -10.5t-19.5 -1.5q-48 0 -56.5 -14.5t-8.5 -68.5v-155q0 -16 2 -22t14 -6q2 0 51 9t60 9q80 0 137 -52t57 -131q0 -39 -20 -76.5
t-53 -60.5q-27 -19 -61.5 -26.5t-72.5 -7.5q-27 0 -90.5 2t-68.5 2q-18 0 -53 -2t-53 -2q-17 0 -17 14q0 8 7.5 10.5t17.5 2.5q56 0 62 28q2 10 2 54v410zM193 100q0 -51 11.5 -68.5t60.5 -17.5q35 0 63.5 7.5t52 28.5t37 53.5t13.5 67.5q0 61 -40.5 105.5t-101.5 44.5
q-20 0 -42 -5.5t-38.5 -15t-16.5 -32.5q1 -13 1 -20v-148z" />
    <glyph glyph-name="Yacute" unicode="&#xdd;" horiz-adv-x="620" 
d="M477 387q-18 99 -77 158q-66 66 -168 66q-76 0 -121 -40l-68 -88q-11 0 -11 13l7 65q0 25 4 34.5t24 16.5q31 11 77.5 19t80.5 8q140 0 243.5 -93.5t103.5 -229.5q0 -133 -95.5 -230.5t-231.5 -97.5q-92 0 -181 42q-22 11 -27 18.5t-5 29.5l-5 81q0 13 11 13
q28 -60 71 -106q48 -51 123 -51q58 0 105.5 28t83.5 78q26 36 40.5 77t19.5 87q1 7 1 17q0 13 -5 15.5t-23 2.5h-339q-15 0 -15 19q0 16 15 16h339q25 0 25 15z" />
    <glyph glyph-name="Yacute" unicode="&#x42d;" horiz-adv-x="620" 
d="M477 387q-18 99 -77 158q-66 66 -168 66q-76 0 -121 -40l-68 -88q-11 0 -11 13l7 65q0 25 4 34.5t24 16.5q31 11 77.5 19t80.5 8q140 0 243.5 -93.5t103.5 -229.5q0 -133 -95.5 -230.5t-231.5 -97.5q-92 0 -181 42q-22 11 -27 18.5t-5 29.5l-5 81q0 13 11 13
q28 -60 71 -106q48 -51 123 -51q58 0 105.5 28t83.5 78q26 36 40.5 77t19.5 87q1 7 1 17q0 13 -5 15.5t-23 2.5h-339q-15 0 -15 19q0 16 15 16h339q25 0 25 15z" />
    <glyph glyph-name="Thorn" unicode="&#xde;" horiz-adv-x="960" 
d="M770 521q-34 44 -77 67.5t-93 23.5q-53 0 -99.5 -24t-78.5 -70q-30 -39 -43.5 -93t-13.5 -111q0 -61 14 -114t46 -95q66 -89 175 -89q51 0 95.5 25t77.5 71q30 41 43 91.5t13 110.5q0 63 -13 113.5t-46 93.5zM277 299q0 16 -3 18.5t-26 2.5h-19q-25 0 -30 -3t-5 -19v-194
q0 -55 6 -65q11 -18 59 -18q12 0 19 -2t7 -10q0 -13 -17 -13q-20 0 -64.5 2t-47.5 2q-19 0 -65 -2t-49 -2q-17 0 -17 13q0 9 6.5 10.5t18.5 1.5q57 0 63 28q2 9 2 55v410v22q0 37 -9 47q-12 13 -56 13q-25 0 -25 13q0 14 17 14q20 0 64.5 -2t47.5 -2q19 0 65 2t49 2
q17 0 17 -14q0 -8 -7.5 -10.5t-18.5 -2.5q-43 0 -54 -12t-11 -48v-22v-143q0 -17 4.5 -20t30.5 -3h19q26 0 29 3.5t4 14.5q18 114 109.5 193.5t207.5 79.5q134 0 227 -91t93 -234q0 -142 -93 -234t-227 -92q-124 0 -221 90q-100 93 -100 221z" />
    <glyph glyph-name="Thorn" unicode="&#x42e;" horiz-adv-x="960" 
d="M770 521q-34 44 -77 67.5t-93 23.5q-53 0 -99.5 -24t-78.5 -70q-30 -39 -43.5 -93t-13.5 -111q0 -61 14 -114t46 -95q66 -89 175 -89q51 0 95.5 25t77.5 71q30 41 43 91.5t13 110.5q0 63 -13 113.5t-46 93.5zM277 299q0 16 -3 18.5t-26 2.5h-19q-25 0 -30 -3t-5 -19v-194
q0 -55 6 -65q11 -18 59 -18q12 0 19 -2t7 -10q0 -13 -17 -13q-20 0 -64.5 2t-47.5 2q-19 0 -65 -2t-49 -2q-17 0 -17 13q0 9 6.5 10.5t18.5 1.5q57 0 63 28q2 9 2 55v410v22q0 37 -9 47q-12 13 -56 13q-25 0 -25 13q0 14 17 14q20 0 64.5 -2t47.5 -2q19 0 65 2t49 2
q17 0 17 -14q0 -8 -7.5 -10.5t-18.5 -2.5q-43 0 -54 -12t-11 -48v-22v-143q0 -17 4.5 -20t30.5 -3h19q26 0 29 3.5t4 14.5q18 114 109.5 193.5t207.5 79.5q134 0 227 -91t93 -234q0 -142 -93 -234t-227 -92q-124 0 -221 90q-100 93 -100 221z" />
    <glyph glyph-name="germandbls" unicode="&#xdf;" horiz-adv-x="580" 
d="M472 104q0 -55 6 -65q11 -18 59 -18q25 0 25 -12q0 -13 -17 -13q-19 0 -64.5 2t-49.5 2q-20 0 -64.5 -2t-47.5 -2q-17 0 -17 13q0 9 6.5 10.5t19.5 1.5q48 0 58 17q7 12 7 66v154q0 10 -0.5 22.5t-4.5 17.5t-22 5q-64 0 -80 -21q-5 -6 -31 -57l-98 -195q-5 -9 -9 -17
q-10 -17 -25 -17h-106q-18 0 -18 11q0 9 8 11.5t18 2.5q29 0 48 23q9 10 29 50l81 156q20 38 32.5 50.5t28.5 15.5q-67 9 -110 47q-48 43 -48 108q0 74 59 115q53 37 130 37q30 0 98 -2t73 -2q16 0 49 2t49 2q18 0 18 -15q0 -6 -5.5 -9t-19.5 -3q-43 0 -54 -12t-11 -49v-22
v-409zM393 522q0 55 -11 67.5t-67 12.5q-67 0 -105.5 -36.5t-38.5 -105.5q0 -33 10.5 -58t35.5 -44t55.5 -26t69.5 -7q15 -1 24 -1q11 0 19 2t8 17v179z" />
    <glyph glyph-name="germandbls" unicode="&#x42f;" horiz-adv-x="580" 
d="M472 104q0 -55 6 -65q11 -18 59 -18q25 0 25 -12q0 -13 -17 -13q-19 0 -64.5 2t-49.5 2q-20 0 -64.5 -2t-47.5 -2q-17 0 -17 13q0 9 6.5 10.5t19.5 1.5q48 0 58 17q7 12 7 66v154q0 10 -0.5 22.5t-4.5 17.5t-22 5q-64 0 -80 -21q-5 -6 -31 -57l-98 -195q-5 -9 -9 -17
q-10 -17 -25 -17h-106q-18 0 -18 11q0 9 8 11.5t18 2.5q29 0 48 23q9 10 29 50l81 156q20 38 32.5 50.5t28.5 15.5q-67 9 -110 47q-48 43 -48 108q0 74 59 115q53 37 130 37q30 0 98 -2t73 -2q16 0 49 2t49 2q18 0 18 -15q0 -6 -5.5 -9t-19.5 -3q-43 0 -54 -12t-11 -49v-22
v-409zM393 522q0 55 -11 67.5t-67 12.5q-67 0 -105.5 -36.5t-38.5 -105.5q0 -33 10.5 -58t35.5 -44t55.5 -26t69.5 -7q15 -1 24 -1q11 0 19 2t8 17v179z" />
    <glyph glyph-name="agrave" unicode="&#xe0;" horiz-adv-x="460" 
d="M277 243q27 13 32 20t5 36v44q0 47 -8 63q-13 27 -56 27t-72 -23q-24 -19 -43 -61q-9 -20 -10 -21q-6 -10 -16 -14.5t-23.5 -9t-21.5 -4.5q-13 0 -13 12q0 18 13 38t29 33q35 31 83.5 50t95.5 19q27 0 51 -5.5t40 -20.5q13 -11 16.5 -22t3.5 -31v-20v-236q0 -44 8 -62
t27 -18q14 0 28.5 12.5t16.5 12.5q7 0 7 -8q0 -7 -9 -17q-5 -5 -15 -14q-20 -14 -36.5 -21.5t-34.5 -7.5q-29 0 -47 35t-21 35q-32 -29 -75.5 -52.5t-85.5 -23.5q-39 0 -66.5 21t-27.5 58q0 46 53 86q28 21 95 54zM205 187q-38 -19 -54 -36q-24 -25 -24 -58
q0 -28 19.5 -43.5t49.5 -15.5q26 0 50 10.5t41.5 28.5t22 33.5t4.5 42.5v60q0 7 -0.5 17.5t-6.5 10.5l-11 -4z" />
    <glyph glyph-name="agrave" unicode="&#x430;" horiz-adv-x="460" 
d="M277 243q27 13 32 20t5 36v44q0 47 -8 63q-13 27 -56 27t-72 -23q-24 -19 -43 -61q-9 -20 -10 -21q-6 -10 -16 -14.5t-23.5 -9t-21.5 -4.5q-13 0 -13 12q0 18 13 38t29 33q35 31 83.5 50t95.5 19q27 0 51 -5.5t40 -20.5q13 -11 16.5 -22t3.5 -31v-20v-236q0 -44 8 -62
t27 -18q14 0 28.5 12.5t16.5 12.5q7 0 7 -8q0 -7 -9 -17q-5 -5 -15 -14q-20 -14 -36.5 -21.5t-34.5 -7.5q-29 0 -47 35t-21 35q-32 -29 -75.5 -52.5t-85.5 -23.5q-39 0 -66.5 21t-27.5 58q0 46 53 86q28 21 95 54zM205 187q-38 -19 -54 -36q-24 -25 -24 -58
q0 -28 19.5 -43.5t49.5 -15.5q26 0 50 10.5t41.5 28.5t22 33.5t4.5 42.5v60q0 7 -0.5 17.5t-6.5 10.5l-11 -4z" />
    <glyph glyph-name="aacute" unicode="&#xe1;" horiz-adv-x="500" 
d="M127 568q25 23 58.5 37t78.5 14q54 0 85.5 2t53.5 8.5t29 22.5q2 6 9 4t7 -11q0 -15 -10 -34q-13 -25 -39 -42q-18 -12 -51.5 -16.5t-67.5 -4.5h-23q-31 0 -56.5 -7.5t-48.5 -21.5q-38 -23 -67 -86q-21 -46 -26 -80q3 -2 4 0q1 3 9 12q2 3 8 9q34 37 80 59.5t91 22.5
q88 0 153 -62q32 -30 51 -76t19 -94q0 -101 -65.5 -168.5t-157.5 -67.5q-93 0 -158 67t-65 169q0 114 21 196q25 98 78 148zM401 217q0 85 -36 146q-42 70 -115 70q-72 0 -113 -63q-37 -57 -37 -141t38 -148q44 -74 116 -74q68 0 110 69q37 61 37 141z" />
    <glyph glyph-name="aacute" unicode="&#x431;" horiz-adv-x="500" 
d="M127 568q25 23 58.5 37t78.5 14q54 0 85.5 2t53.5 8.5t29 22.5q2 6 9 4t7 -11q0 -15 -10 -34q-13 -25 -39 -42q-18 -12 -51.5 -16.5t-67.5 -4.5h-23q-31 0 -56.5 -7.5t-48.5 -21.5q-38 -23 -67 -86q-21 -46 -26 -80q3 -2 4 0q1 3 9 12q2 3 8 9q34 37 80 59.5t91 22.5
q88 0 153 -62q32 -30 51 -76t19 -94q0 -101 -65.5 -168.5t-157.5 -67.5q-93 0 -158 67t-65 169q0 114 21 196q25 98 78 148zM401 217q0 85 -36 146q-42 70 -115 70q-72 0 -113 -63q-37 -57 -37 -141t38 -148q44 -74 116 -74q68 0 110 69q37 61 37 141z" />
    <glyph glyph-name="acircumflex" unicode="&#xe2;" horiz-adv-x="480" 
d="M90 337v25q0 33 -8.5 45t-24.5 12h-28q-12 0 -12 12q0 6 8 8t22 2l154 -2q50 0 84 -3t63.5 -15t50 -37t20.5 -55q0 -39 -33 -64q-27 -20 -71 -29q56 -7 92 -35q42 -33 42 -84q0 -29 -15.5 -51.5t-43.5 -39.5q-25 -17 -54 -22.5t-66 -5.5h-23h-20h-18h-16h-14h-12
q-22 0 -43 0.5t-42 0.5l-47 -3q-18 0 -18 10q0 14 20 14q34 0 45 14q8 10 8 40v28v235zM159 277q0 -25 4 -30t29 -5h40q26 0 45.5 4.5t35.5 17.5q28 22 28 61q0 49 -32 71.5t-85 22.5q-23 0 -35.5 -2t-21.5 -11q-5 -5 -6.5 -16.5t-1.5 -23.5v-89zM159 84q0 -23 3 -34t19 -20
q10 -6 29.5 -8.5t38.5 -2.5q30 0 48 5t37.5 22t28.5 32t9 37q0 30 -13 52.5t-35 35t-42 16t-46 3.5h-30q-33 0 -40 -4t-7 -26v-108z" />
    <glyph glyph-name="acircumflex" unicode="&#x432;" horiz-adv-x="480" 
d="M90 337v25q0 33 -8.5 45t-24.5 12h-28q-12 0 -12 12q0 6 8 8t22 2l154 -2q50 0 84 -3t63.5 -15t50 -37t20.5 -55q0 -39 -33 -64q-27 -20 -71 -29q56 -7 92 -35q42 -33 42 -84q0 -29 -15.5 -51.5t-43.5 -39.5q-25 -17 -54 -22.5t-66 -5.5h-23h-20h-18h-16h-14h-12
q-22 0 -43 0.5t-42 0.5l-47 -3q-18 0 -18 10q0 14 20 14q34 0 45 14q8 10 8 40v28v235zM159 277q0 -25 4 -30t29 -5h40q26 0 45.5 4.5t35.5 17.5q28 22 28 61q0 49 -32 71.5t-85 22.5q-23 0 -35.5 -2t-21.5 -11q-5 -5 -6.5 -16.5t-1.5 -23.5v-89zM159 84q0 -23 3 -34t19 -20
q10 -6 29.5 -8.5t38.5 -2.5q30 0 48 5t37.5 22t28.5 32t9 37q0 30 -13 52.5t-35 35t-42 16t-46 3.5h-30q-33 0 -40 -4t-7 -26v-108z" />
    <glyph glyph-name="atilde" unicode="&#xe3;" horiz-adv-x="430" 
d="M396 439q10 0 10 -15q-1 -10 -1 -13l-6 -122q0 -17 -12 -17q-7 0 -9 4t-2 10q-9 39 -15.5 62t-13.5 32q-13 15 -36 24t-48 9h-86q-14 0 -16 -7.5t-2 -18.5v-285q-1 -21 -1 -30q0 -24 9 -36.5t37 -15.5q28 0 28 -13q0 -11 -12 -11q-17 0 -41 1.5t-53 2.5q-17 0 -55.5 -2
t-39.5 -2q-14 0 -14 10q0 9 8.5 11.5t19.5 2.5q28 3 37 15.5t9 36.5q-1 19 -1 30v235q1 21 1 30q0 25 -7 35q-10 14 -39 17q-14 0 -21 2t-7 12t14 10q16 0 53.5 -2t41.5 -2h270z" />
    <glyph glyph-name="atilde" unicode="&#x433;" horiz-adv-x="430" 
d="M396 439q10 0 10 -15q-1 -10 -1 -13l-6 -122q0 -17 -12 -17q-7 0 -9 4t-2 10q-9 39 -15.5 62t-13.5 32q-13 15 -36 24t-48 9h-86q-14 0 -16 -7.5t-2 -18.5v-285q-1 -21 -1 -30q0 -24 9 -36.5t37 -15.5q28 0 28 -13q0 -11 -12 -11q-17 0 -41 1.5t-53 2.5q-17 0 -55.5 -2
t-39.5 -2q-14 0 -14 10q0 9 8.5 11.5t19.5 2.5q28 3 37 15.5t9 36.5q-1 19 -1 30v235q1 21 1 30q0 25 -7 35q-10 14 -39 17q-14 0 -21 2t-7 12t14 10q16 0 53.5 -2t41.5 -2h270z" />
    <glyph glyph-name="adieresis" unicode="&#xe4;" horiz-adv-x="460" 
d="M99 173v164v21q0 33 -6 44q-9 17 -39 17h-13q-9 2 -9 10q0 13 16 13l82 -3h222l76 3q15 0 15 -12q0 -8 -6 -9.5t-16 -1.5q-33 0 -44 -24q-7 -16 -7 -58v-235q0 -34 6 -56.5t23 -25.5h33q11 0 11 -12q-1 -8 -1 -10l-6 -127q0 -15 -11 -15q-10 0 -12 12q-14 79 -38 105.5
t-75 26.5h-161q-55 0 -93 -44q-2 -3 -55 -87q-3 -6 -5 -9q-7 -9 -14 -9q-11 0 -11 11q0 4 1 8t4 9l41 132q2 11 15 13l28 -4q21 21 35 63t14 90zM301 102v279q0 12 -4 20q-7 13 -25 13h-96q-31 0 -39.5 -14t-8.5 -46v-17v-164q0 -51 -11 -84t-34 -64h195q15 3 19 21.5
t4 55.5z" />
    <glyph glyph-name="adieresis" unicode="&#x434;" horiz-adv-x="460" 
d="M99 173v164v21q0 33 -6 44q-9 17 -39 17h-13q-9 2 -9 10q0 13 16 13l82 -3h222l76 3q15 0 15 -12q0 -8 -6 -9.5t-16 -1.5q-33 0 -44 -24q-7 -16 -7 -58v-235q0 -34 6 -56.5t23 -25.5h33q11 0 11 -12q-1 -8 -1 -10l-6 -127q0 -15 -11 -15q-10 0 -12 12q-14 79 -38 105.5
t-75 26.5h-161q-55 0 -93 -44q-2 -3 -55 -87q-3 -6 -5 -9q-7 -9 -14 -9q-11 0 -11 11q0 4 1 8t4 9l41 132q2 11 15 13l28 -4q21 21 35 63t14 90zM301 102v279q0 12 -4 20q-7 13 -25 13h-96q-31 0 -39.5 -14t-8.5 -46v-17v-164q0 -51 -11 -84t-34 -64h195q15 3 19 21.5
t4 55.5z" />
    <glyph glyph-name="aring" unicode="&#xe5;" horiz-adv-x="500" 
d="M150 272q-27 0 -34 -4t-7 -27q0 -87 51 -146q55 -63 143 -63q48 0 86 20q31 22 62 45q8 0 8 -8q0 -7 -17 -24q-13 -13 -22 -21q-35 -30 -72.5 -43t-85.5 -13q-97 0 -162.5 67.5t-65.5 162.5q0 53 16.5 93t55.5 74q76 67 180 67q44 0 80.5 -14.5t63.5 -47.5
q35 -44 35 -101q0 -17 -12 -17h-303zM232 296h13q38 0 59.5 1.5t42 6t29.5 13.5t9 27q0 15 -7 30.5t-19 28.5q-16 17 -38.5 24t-48.5 7q-40 0 -73.5 -17t-56.5 -50q-8 -10 -16.5 -28t-8.5 -30q0 -10 9 -11.5t25 -1.5h81z" />
    <glyph glyph-name="aring" unicode="&#x435;" horiz-adv-x="500" 
d="M150 272q-27 0 -34 -4t-7 -27q0 -87 51 -146q55 -63 143 -63q48 0 86 20q31 22 62 45q8 0 8 -8q0 -7 -17 -24q-13 -13 -22 -21q-35 -30 -72.5 -43t-85.5 -13q-97 0 -162.5 67.5t-65.5 162.5q0 53 16.5 93t55.5 74q76 67 180 67q44 0 80.5 -14.5t63.5 -47.5
q35 -44 35 -101q0 -17 -12 -17h-303zM232 296h13q38 0 59.5 1.5t42 6t29.5 13.5t9 27q0 15 -7 30.5t-19 28.5q-16 17 -38.5 24t-48.5 7q-40 0 -73.5 -17t-56.5 -50q-8 -10 -16.5 -28t-8.5 -30q0 -10 9 -11.5t25 -1.5h81z" />
    <glyph glyph-name="ae" unicode="&#xe6;" horiz-adv-x="780" 
d="M356 337v15.5t1 15.5q0 24 -7 34q-10 14 -39 17q-14 0 -21 2t-7 12t14 10q16 0 53.5 -2t41.5 -2q15 0 52.5 2t41.5 2q12 0 12 -11q0 -8 -8.5 -10.5t-19.5 -2.5q-28 -3 -37 -15.5t-9 -36.5q1 -19 1 -30v-93q0 -21 6 -21q7 3 11 7l123 121q23 21 24 22q17 18 17 27
q0 10 -10.5 14.5t-21.5 4.5q-17 0 -27.5 2t-10.5 13q0 9 22 9q21 0 53 -2t52 -2q14 0 41.5 2t29.5 2q17 0 17 -11q0 -13 -20 -13q-34 0 -62 -17q-34 -26 -53 -41l-75 -64q-19 -15 -19 -24q0 -3 5 -8t5 -8l141 -186q25 -31 31 -36q17 -15 42 -15q21 0 21 -15q0 -9 -16 -9
t-55.5 2t-42.5 2q-15 0 -52.5 -2t-40.5 -2h-10q-6 2 -6 8q0 8 5 12t12 4q24 0 31.5 4t7.5 15q0 8 -9 22q-3 5 -15 20l-88 116q-8 10 -15 20q-6 6 -11 6q-3 0 -9 -5t-9 -9q-14 -16 -16.5 -23t-2.5 -33v-51q-1 -21 -1 -30q0 -24 9 -36.5t37 -15.5q28 0 28 -13q0 -11 -12 -11
q-17 0 -41 1.5t-53 2.5q-17 0 -55.5 -2t-39.5 -2q-14 0 -14 10q0 9 8.5 11.5t19.5 2.5q29 3 37 15.5t8 40.5v26v51v12q0 17 -2.5 22.5t-15 20.5t-19.5 15t-14 -9.5t-12 -16.5l-88 -116q-5 -7 -14.5 -21t-9.5 -21q0 -16 14.5 -17.5t24.5 -1.5q17 0 17 -16q0 -8 -16 -8
q-15 0 -52.5 2t-40.5 2q-16 0 -49 -2t-49 -2t-16 9q0 15 21 15q25 0 42 15q6 5 31 36l141 186q0 2 5 7t5 9q0 7 -4.5 11.5t-14.5 12.5l-75 64q-48 37 -53 40q-29 18 -62 18q-20 0 -20 13q0 11 17 11q13 0 39.5 -2t31.5 -2q20 0 52 2t53 2q22 0 22 -9q0 -11 -10 -13t-28 -2
q-12 0 -22 -4t-10 -15q0 -9 16 -26q2 -2 25 -23l123 -121q4 -4 7 -5.5t4 -1.5q6 0 6 21v93z" />
    <glyph glyph-name="ae" unicode="&#x436;" horiz-adv-x="780" 
d="M356 337v15.5t1 15.5q0 24 -7 34q-10 14 -39 17q-14 0 -21 2t-7 12t14 10q16 0 53.5 -2t41.5 -2q15 0 52.5 2t41.5 2q12 0 12 -11q0 -8 -8.5 -10.5t-19.5 -2.5q-28 -3 -37 -15.5t-9 -36.5q1 -19 1 -30v-93q0 -21 6 -21q7 3 11 7l123 121q23 21 24 22q17 18 17 27
q0 10 -10.5 14.5t-21.5 4.5q-17 0 -27.5 2t-10.5 13q0 9 22 9q21 0 53 -2t52 -2q14 0 41.5 2t29.5 2q17 0 17 -11q0 -13 -20 -13q-34 0 -62 -17q-34 -26 -53 -41l-75 -64q-19 -15 -19 -24q0 -3 5 -8t5 -8l141 -186q25 -31 31 -36q17 -15 42 -15q21 0 21 -15q0 -9 -16 -9
t-55.5 2t-42.5 2q-15 0 -52.5 -2t-40.5 -2h-10q-6 2 -6 8q0 8 5 12t12 4q24 0 31.5 4t7.5 15q0 8 -9 22q-3 5 -15 20l-88 116q-8 10 -15 20q-6 6 -11 6q-3 0 -9 -5t-9 -9q-14 -16 -16.5 -23t-2.5 -33v-51q-1 -21 -1 -30q0 -24 9 -36.5t37 -15.5q28 0 28 -13q0 -11 -12 -11
q-17 0 -41 1.5t-53 2.5q-17 0 -55.5 -2t-39.5 -2q-14 0 -14 10q0 9 8.5 11.5t19.5 2.5q29 3 37 15.5t8 40.5v26v51v12q0 17 -2.5 22.5t-15 20.5t-19.5 15t-14 -9.5t-12 -16.5l-88 -116q-5 -7 -14.5 -21t-9.5 -21q0 -16 14.5 -17.5t24.5 -1.5q17 0 17 -16q0 -8 -16 -8
q-15 0 -52.5 2t-40.5 2q-16 0 -49 -2t-49 -2t-16 9q0 15 21 15q25 0 42 15q6 5 31 36l141 186q0 2 5 7t5 9q0 7 -4.5 11.5t-14.5 12.5l-75 64q-48 37 -53 40q-29 18 -62 18q-20 0 -20 13q0 11 17 11q13 0 39.5 -2t31.5 -2q20 0 52 2t53 2q22 0 22 -9q0 -11 -10 -13t-28 -2
q-12 0 -22 -4t-10 -15q0 -9 16 -26q2 -2 25 -23l123 -121q4 -4 7 -5.5t4 -1.5q6 0 6 21v93z" />
    <glyph glyph-name="ccedilla" unicode="&#xe7;" horiz-adv-x="400" 
d="M41 329q-5 0 -8 4t-3 8l5 46q0 20 4 32t22 18t50 12t71 6q66 0 112 -23q59 -30 59 -89q0 -36 -26.5 -62.5t-64.5 -37.5q50 -9 80 -38q34 -33 34 -81q0 -30 -15.5 -57.5t-41.5 -44t-59.5 -25t-83.5 -8.5q-64 0 -128 29q-17 7 -21 13.5t-4 23.5l-4 58q0 12 11 12
q21 -43 50 -75q33 -36 87 -36q28 0 49.5 5.5t41.5 22.5q34 31 34 80q0 65 -53 92q-15 9 -30.5 10.5t-43.5 1.5l-75 -2q-6 0 -10 5t-4 11q0 14 14 14h75q56 0 83 23t27 66q0 45 -29.5 66t-79.5 21q-51 0 -79 -30q-23 -36 -46 -71z" />
    <glyph glyph-name="ccedilla" unicode="&#x437;" horiz-adv-x="400" 
d="M41 329q-5 0 -8 4t-3 8l5 46q0 20 4 32t22 18t50 12t71 6q66 0 112 -23q59 -30 59 -89q0 -36 -26.5 -62.5t-64.5 -37.5q50 -9 80 -38q34 -33 34 -81q0 -30 -15.5 -57.5t-41.5 -44t-59.5 -25t-83.5 -8.5q-64 0 -128 29q-17 7 -21 13.5t-4 23.5l-4 58q0 12 11 12
q21 -43 50 -75q33 -36 87 -36q28 0 49.5 5.5t41.5 22.5q34 31 34 80q0 65 -53 92q-15 9 -30.5 10.5t-43.5 1.5l-75 -2q-6 0 -10 5t-4 11q0 14 14 14h75q56 0 83 23t27 66q0 45 -29.5 66t-79.5 21q-51 0 -79 -30q-23 -36 -46 -71z" />
    <glyph glyph-name="egrave" unicode="&#xe8;" horiz-adv-x="540" 
d="M90 337q1 21 1 30q0 25 -7 35q-10 14 -39 17q-14 0 -21 2t-7 12t14 10q16 0 53.5 -2t41.5 -2q15 0 52.5 2t41.5 2q12 0 12 -11q0 -8 -8.5 -10.5t-19.5 -2.5q-28 -3 -37 -15.5t-9 -36.5q1 -19 1 -30v-187q0 -26 4 -26q2 0 14 10l205 233q1 8 1 13q0 15 -7 23
q-11 13 -39 16q-14 0 -21 2t-7 12t14 10q16 0 53.5 -2t41.5 -2q15 0 52.5 2t41.5 2q12 0 12 -11q0 -8 -8.5 -10.5t-19.5 -2.5q-28 -3 -37 -15.5t-9 -36.5q1 -19 1 -30v-235q-1 -21 -1 -30q0 -24 9 -36.5t37 -15.5q28 0 28 -13q0 -11 -12 -11q-17 0 -41 1.5t-53 2.5
q-17 0 -55.5 -2t-39.5 -2q-14 0 -14 10q0 9 8.5 11.5t19.5 2.5q28 3 37 15.5t9 36.5q-1 19 -1 30v187q0 30 -5 30q-4 0 -15 -13l-203 -229q-1 -12 -1 -18q0 -16 9 -26t37 -13q28 0 28 -13q0 -11 -12 -11q-17 0 -41 1.5t-53 2.5q-17 0 -55.5 -2t-39.5 -2q-14 0 -14 10
q0 9 8.5 11.5t19.5 2.5q28 3 37 15.5t9 36.5q-1 19 -1 30v235z" />
    <glyph glyph-name="egrave" unicode="&#x438;" horiz-adv-x="540" 
d="M90 337q1 21 1 30q0 25 -7 35q-10 14 -39 17q-14 0 -21 2t-7 12t14 10q16 0 53.5 -2t41.5 -2q15 0 52.5 2t41.5 2q12 0 12 -11q0 -8 -8.5 -10.5t-19.5 -2.5q-28 -3 -37 -15.5t-9 -36.5q1 -19 1 -30v-187q0 -26 4 -26q2 0 14 10l205 233q1 8 1 13q0 15 -7 23
q-11 13 -39 16q-14 0 -21 2t-7 12t14 10q16 0 53.5 -2t41.5 -2q15 0 52.5 2t41.5 2q12 0 12 -11q0 -8 -8.5 -10.5t-19.5 -2.5q-28 -3 -37 -15.5t-9 -36.5q1 -19 1 -30v-235q-1 -21 -1 -30q0 -24 9 -36.5t37 -15.5q28 0 28 -13q0 -11 -12 -11q-17 0 -41 1.5t-53 2.5
q-17 0 -55.5 -2t-39.5 -2q-14 0 -14 10q0 9 8.5 11.5t19.5 2.5q28 3 37 15.5t9 36.5q-1 19 -1 30v187q0 30 -5 30q-4 0 -15 -13l-203 -229q-1 -12 -1 -18q0 -16 9 -26t37 -13q28 0 28 -13q0 -11 -12 -11q-17 0 -41 1.5t-53 2.5q-17 0 -55.5 -2t-39.5 -2q-14 0 -14 10
q0 9 8.5 11.5t19.5 2.5q28 3 37 15.5t9 36.5q-1 19 -1 30v235z" />
    <glyph glyph-name="eacute" unicode="&#xe9;" horiz-adv-x="540" 
d="M90 337q1 21 1 30q0 25 -7 35q-10 14 -39 17q-14 0 -21 2t-7 12t14 10q16 0 53.5 -2t41.5 -2q15 0 52.5 2t41.5 2q12 0 12 -11q0 -8 -8.5 -10.5t-19.5 -2.5q-28 -3 -37 -15.5t-9 -36.5q1 -19 1 -30v-187q0 -26 4 -26q2 0 14 10l205 233q1 8 1 13q0 15 -7 23
q-11 13 -39 16q-14 0 -21 2t-7 12t14 10q16 0 53.5 -2t41.5 -2q15 0 52.5 2t41.5 2q12 0 12 -11q0 -8 -8.5 -10.5t-19.5 -2.5q-28 -3 -37 -15.5t-9 -36.5q1 -19 1 -30v-235q-1 -21 -1 -30q0 -24 9 -36.5t37 -15.5q28 0 28 -13q0 -11 -12 -11q-17 0 -41 1.5t-53 2.5
q-17 0 -55.5 -2t-39.5 -2q-14 0 -14 10q0 9 8.5 11.5t19.5 2.5q28 3 37 15.5t9 36.5q-1 19 -1 30v187v13q0 19 -3 19q-2 0 -17 -15l-203 -229q-1 -12 -1 -18q0 -16 9 -26t37 -13q28 0 28 -13q0 -11 -12 -11q-17 0 -41 1.5t-53 2.5q-17 0 -55.5 -2t-39.5 -2q-14 0 -14 10
q0 9 8.5 11.5t19.5 2.5q28 3 37 15.5t9 36.5q-1 19 -1 30v235zM413 621q0 -13 -7 -27t-19 -27q-21 -23 -51.5 -35t-63.5 -12q-60 0 -101 34q-14 12 -28 32t-14 36q0 20 18 20q4 0 38 -39t94 -39q24 0 50 13t40 33q11 16 12 17q9 10 18 10q14 0 14 -16z" />
    <glyph glyph-name="eacute" unicode="&#x439;" horiz-adv-x="540" 
d="M90 337q1 21 1 30q0 25 -7 35q-10 14 -39 17q-14 0 -21 2t-7 12t14 10q16 0 53.5 -2t41.5 -2q15 0 52.5 2t41.5 2q12 0 12 -11q0 -8 -8.5 -10.5t-19.5 -2.5q-28 -3 -37 -15.5t-9 -36.5q1 -19 1 -30v-187q0 -26 4 -26q2 0 14 10l205 233q1 8 1 13q0 15 -7 23
q-11 13 -39 16q-14 0 -21 2t-7 12t14 10q16 0 53.5 -2t41.5 -2q15 0 52.5 2t41.5 2q12 0 12 -11q0 -8 -8.5 -10.5t-19.5 -2.5q-28 -3 -37 -15.5t-9 -36.5q1 -19 1 -30v-235q-1 -21 -1 -30q0 -24 9 -36.5t37 -15.5q28 0 28 -13q0 -11 -12 -11q-17 0 -41 1.5t-53 2.5
q-17 0 -55.5 -2t-39.5 -2q-14 0 -14 10q0 9 8.5 11.5t19.5 2.5q28 3 37 15.5t9 36.5q-1 19 -1 30v187v13q0 19 -3 19q-2 0 -17 -15l-203 -229q-1 -12 -1 -18q0 -16 9 -26t37 -13q28 0 28 -13q0 -11 -12 -11q-17 0 -41 1.5t-53 2.5q-17 0 -55.5 -2t-39.5 -2q-14 0 -14 10
q0 9 8.5 11.5t19.5 2.5q28 3 37 15.5t9 36.5q-1 19 -1 30v235zM413 621q0 -13 -7 -27t-19 -27q-21 -23 -51.5 -35t-63.5 -12q-60 0 -101 34q-14 12 -28 32t-14 36q0 20 18 20q4 0 38 -39t94 -39q24 0 50 13t40 33q11 16 12 17q9 10 18 10q14 0 14 -16z" />
    <glyph glyph-name="ecircumflex" unicode="&#xea;" horiz-adv-x="540" 
d="M159 244q0 -7 0.5 -14t5.5 -7l11 7l148 121q13 11 24 22q17 18 17 27q0 10 -10.5 14.5t-21.5 4.5q-17 0 -27.5 2t-10.5 13q0 9 22 9q21 0 53 -2t52 -2q14 0 41.5 2t29.5 2q17 0 17 -11q0 -13 -20 -13q-34 0 -62 -17q-34 -26 -53 -41l-76 -64q-9 -8 -18 -15q-7 -8 -7 -12
q0 -6 7 -13l151 -186q25 -31 31 -36q17 -15 42 -15q21 0 21 -15q0 -9 -16 -9t-55.5 2t-42.5 2q-15 0 -52.5 -2t-40.5 -2h-10q-6 2 -6 8q0 8 5 12t12 4q24 0 31.5 4t7.5 15q0 8 -9 22q-3 5 -15 20l-93 116l-12 16q-10 12 -17 12q-6 0 -14 -6.5t-9 -7.5q-25 -19 -28 -24.5
t-3 -33.5v-51q-1 -21 -1 -30q0 -24 9 -36.5t37 -15.5q28 0 28 -13q0 -11 -12 -11q-17 0 -41 1.5t-53 2.5q-17 0 -55.5 -2t-39.5 -2q-14 0 -14 10q0 9 6 11t28.5 4t30.5 14.5t8 41.5v25v235q1 21 1 30q0 25 -7 35q-10 14 -39 17q-14 0 -21 2t-7 12t14 10q16 0 53.5 -2
t41.5 -2q15 0 52.5 2t41.5 2q12 0 12 -11q0 -8 -8.5 -10.5t-19.5 -2.5q-28 -3 -37 -15.5t-9 -36.5q1 -19 1 -30v-93z" />
    <glyph glyph-name="ecircumflex" unicode="&#x43a;" horiz-adv-x="540" 
d="M159 244q0 -7 0.5 -14t5.5 -7l11 7l148 121q13 11 24 22q17 18 17 27q0 10 -10.5 14.5t-21.5 4.5q-17 0 -27.5 2t-10.5 13q0 9 22 9q21 0 53 -2t52 -2q14 0 41.5 2t29.5 2q17 0 17 -11q0 -13 -20 -13q-34 0 -62 -17q-34 -26 -53 -41l-76 -64q-9 -8 -18 -15q-7 -8 -7 -12
q0 -6 7 -13l151 -186q25 -31 31 -36q17 -15 42 -15q21 0 21 -15q0 -9 -16 -9t-55.5 2t-42.5 2q-15 0 -52.5 -2t-40.5 -2h-10q-6 2 -6 8q0 8 5 12t12 4q24 0 31.5 4t7.5 15q0 8 -9 22q-3 5 -15 20l-93 116l-12 16q-10 12 -17 12q-6 0 -14 -6.5t-9 -7.5q-25 -19 -28 -24.5
t-3 -33.5v-51q-1 -21 -1 -30q0 -24 9 -36.5t37 -15.5q28 0 28 -13q0 -11 -12 -11q-17 0 -41 1.5t-53 2.5q-17 0 -55.5 -2t-39.5 -2q-14 0 -14 10q0 9 6 11t28.5 4t30.5 14.5t8 41.5v25v235q1 21 1 30q0 25 -7 35q-10 14 -39 17q-14 0 -21 2t-7 12t14 10q16 0 53.5 -2
t41.5 -2q15 0 52.5 2t41.5 2q12 0 12 -11q0 -8 -8.5 -10.5t-19.5 -2.5q-28 -3 -37 -15.5t-9 -36.5q1 -19 1 -30v-93z" />
    <glyph glyph-name="edieresis" unicode="&#xeb;" horiz-adv-x="480" 
d="M148 338v-165q0 -97 -39 -147q-32 -41 -78 -41q-22 0 -37 9q-19 12 -19 33q0 42 36 42q13 0 21 -5.5t15 -17.5q4 -8 9.5 -17t12.5 -9q16 0 31 37q19 47 19 115v166v21q0 32 -6 43q-10 17 -39 17h-13q-9 2 -9 10q0 13 16 13l82 -3h222l76 3q15 0 15 -12q0 -8 -9 -9.5
t-13 -1.5q-33 -4 -42 -16t-9 -38v-28v-235v-21q0 -32 8.5 -46.5t42.5 -14.5q4 0 13 -0.5t9 -11.5q0 -12 -16 -12l-95 3l-88 -3q-16 0 -16 12q0 9 6.5 10.5t15.5 1.5q33 0 42 11.5t9 40.5v30v279q0 12 -4 20q-7 13 -25 13h-96q-23 0 -35.5 -10.5t-12.5 -49.5v-16z" />
    <glyph glyph-name="edieresis" unicode="&#x43b;" horiz-adv-x="480" 
d="M148 338v-165q0 -97 -39 -147q-32 -41 -78 -41q-22 0 -37 9q-19 12 -19 33q0 42 36 42q13 0 21 -5.5t15 -17.5q4 -8 9.5 -17t12.5 -9q16 0 31 37q19 47 19 115v166v21q0 32 -6 43q-10 17 -39 17h-13q-9 2 -9 10q0 13 16 13l82 -3h222l76 3q15 0 15 -12q0 -8 -9 -9.5
t-13 -1.5q-33 -4 -42 -16t-9 -38v-28v-235v-21q0 -32 8.5 -46.5t42.5 -14.5q4 0 13 -0.5t9 -11.5q0 -12 -16 -12l-95 3l-88 -3q-16 0 -16 12q0 9 6.5 10.5t15.5 1.5q33 0 42 11.5t9 40.5v30v279q0 12 -4 20q-7 13 -25 13h-96q-23 0 -35.5 -10.5t-12.5 -49.5v-16z" />
    <glyph glyph-name="igrave" unicode="&#xec;" horiz-adv-x="620" 
d="M461 428q5 11 25 11l94 2q8 1 13 1q13 0 13 -12t-22 -12q-29 0 -38 -25q-5 -14 -5 -56v-235q0 -40 6.5 -59.5t25.5 -21.5t30 -2q7 -3 7 -11q0 -7 -5 -9.5t-13 -2.5l-83 3l-98 -3q-18 0 -18 12q0 9 12 10.5t15 1.5q35 3 45 26q6 13 6 56v284l-173 -366q0 -15 -15 -15
q-14 0 -14 17l-155 356l-21 -260q-1 -8 -1.5 -17.5t-0.5 -13.5q0 -32 12 -48t32 -18t28 -2q11 -2 11 -11t-5 -10.5t-15 -1.5l-76 3l-74 -3q-16 0 -16 12q0 8 10.5 10t13.5 2q32 4 39 16t11 56l23 246v24q0 38 -6.5 46.5t-36.5 8.5q-22 0 -22 13q0 12 13 12q10 -1 13 -1
l96 -2q7 0 13.5 -6.5t9.5 -15.5l139 -317z" />
    <glyph glyph-name="igrave" unicode="&#x43c;" horiz-adv-x="620" 
d="M461 428q5 11 25 11l94 2q8 1 13 1q13 0 13 -12t-22 -12q-29 0 -38 -25q-5 -14 -5 -56v-235q0 -40 6.5 -59.5t25.5 -21.5t30 -2q7 -3 7 -11q0 -7 -5 -9.5t-13 -2.5l-83 3l-98 -3q-18 0 -18 12q0 9 12 10.5t15 1.5q35 3 45 26q6 13 6 56v284l-173 -366q0 -15 -15 -15
q-14 0 -14 17l-155 356l-21 -260q-1 -8 -1.5 -17.5t-0.5 -13.5q0 -32 12 -48t32 -18t28 -2q11 -2 11 -11t-5 -10.5t-15 -1.5l-76 3l-74 -3q-16 0 -16 12q0 8 10.5 10t13.5 2q32 4 39 16t11 56l23 246v24q0 38 -6.5 46.5t-36.5 8.5q-22 0 -22 13q0 12 13 12q10 -1 13 -1
l96 -2q7 0 13.5 -6.5t9.5 -15.5l139 -317z" />
    <glyph glyph-name="iacute" unicode="&#xed;" horiz-adv-x="540" 
d="M90 337q1 21 1 30q0 25 -7 35q-10 14 -39 17q-14 0 -21 2t-7 12t14 10q16 0 53.5 -2t41.5 -2q15 0 52.5 2t41.5 2q12 0 12 -11q0 -8 -8.5 -10.5t-19.5 -2.5q-28 -3 -37 -15.5t-9 -36.5q1 -19 1 -30v-71q0 -12 2 -14t16 -2h185q15 0 17.5 2.5t2.5 17.5v67q1 21 1 30
q0 25 -7 35q-10 14 -39 17q-14 0 -21 2t-7 12t14 10q16 0 53.5 -2t41.5 -2q15 0 52.5 2t41.5 2q12 0 12 -11q0 -8 -8.5 -10.5t-19.5 -2.5q-28 -3 -37 -15.5t-9 -36.5q1 -19 1 -30v-235q-1 -21 -1 -30q0 -24 9 -36.5t37 -15.5q28 0 28 -13q0 -11 -12 -11q-17 0 -41 1.5
t-53 2.5q-17 0 -55.5 -2t-39.5 -2q-14 0 -14 10q0 9 8.5 11.5t19.5 2.5q28 3 37 15.5t9 36.5q-1 19 -1 30v105q0 13 -2 15t-18 2h-185q-14 0 -16 -2t-2 -14v-106q-1 -21 -1 -30q0 -24 9 -36.5t37 -15.5q28 0 28 -13q0 -11 -12 -11q-17 0 -41 1.5t-53 2.5q-17 0 -55.5 -2
t-39.5 -2q-14 0 -14 10q0 9 8.5 11.5t19.5 2.5q28 3 37 15.5t9 36.5q-1 19 -1 30v235z" />
    <glyph glyph-name="iacute" unicode="&#x43d;" horiz-adv-x="540" 
d="M90 337q1 21 1 30q0 25 -7 35q-10 14 -39 17q-14 0 -21 2t-7 12t14 10q16 0 53.5 -2t41.5 -2q15 0 52.5 2t41.5 2q12 0 12 -11q0 -8 -8.5 -10.5t-19.5 -2.5q-28 -3 -37 -15.5t-9 -36.5q1 -19 1 -30v-71q0 -12 2 -14t16 -2h185q15 0 17.5 2.5t2.5 17.5v67q1 21 1 30
q0 25 -7 35q-10 14 -39 17q-14 0 -21 2t-7 12t14 10q16 0 53.5 -2t41.5 -2q15 0 52.5 2t41.5 2q12 0 12 -11q0 -8 -8.5 -10.5t-19.5 -2.5q-28 -3 -37 -15.5t-9 -36.5q1 -19 1 -30v-235q-1 -21 -1 -30q0 -24 9 -36.5t37 -15.5q28 0 28 -13q0 -11 -12 -11q-17 0 -41 1.5
t-53 2.5q-17 0 -55.5 -2t-39.5 -2q-14 0 -14 10q0 9 8.5 11.5t19.5 2.5q28 3 37 15.5t9 36.5q-1 19 -1 30v105q0 13 -2 15t-18 2h-185q-14 0 -16 -2t-2 -14v-106q-1 -21 -1 -30q0 -24 9 -36.5t37 -15.5q28 0 28 -13q0 -11 -12 -11q-17 0 -41 1.5t-53 2.5q-17 0 -55.5 -2
t-39.5 -2q-14 0 -14 10q0 9 8.5 11.5t19.5 2.5q28 3 37 15.5t9 36.5q-1 19 -1 30v235z" />
    <glyph glyph-name="icircumflex" unicode="&#xee;" 
d="M32 224q0 96 68 161q35 34 81.5 50.5t98.5 16.5q50 0 92 -13.5t78 -44t57 -76.5t21 -94q0 -101 -72.5 -168.5t-175.5 -67.5q-104 0 -176 67t-72 169zM452 217q0 84 -43 146q-48 70 -130 70q-79 0 -125.5 -61t-46.5 -143q0 -83 45 -148q51 -74 131 -74q76 0 125 69
q44 62 44 141z" />
    <glyph glyph-name="icircumflex" unicode="&#x43e;" 
d="M32 224q0 96 68 161q35 34 81.5 50.5t98.5 16.5q50 0 92 -13.5t78 -44t57 -76.5t21 -94q0 -101 -72.5 -168.5t-175.5 -67.5q-104 0 -176 67t-72 169zM452 217q0 84 -43 146q-48 70 -130 70q-79 0 -125.5 -61t-46.5 -143q0 -83 45 -148q51 -74 131 -74q76 0 125 69
q44 62 44 141z" />
    <glyph glyph-name="idieresis" unicode="&#xef;" horiz-adv-x="540" 
d="M90 337q1 21 1 30q0 25 -7 35q-10 14 -39 17q-14 0 -21 2t-7 12t14 10q16 0 53.5 -2t41.5 -2h292q15 0 52.5 2t41.5 2q12 0 12 -11q0 -8 -8.5 -10.5t-19.5 -2.5q-28 -3 -37 -15.5t-9 -36.5q1 -19 1 -30v-235q-1 -21 -1 -30q0 -24 9 -36.5t37 -15.5q28 0 28 -13
q0 -11 -12 -11q-17 0 -41 1.5t-53 2.5q-17 0 -55.5 -2t-39.5 -2q-14 0 -14 10q0 9 8.5 11.5t19.5 2.5q28 3 37 15.5t9 36.5q-1 19 -1 30v284v16q-3 11 -20 11h-185q-14 0 -16 -7.5t-2 -18.5v-285q-1 -21 -1 -30q0 -24 9 -36.5t37 -15.5q28 0 28 -13q0 -11 -12 -11
q-17 0 -41 1.5t-53 2.5q-17 0 -55.5 -2t-39.5 -2q-14 0 -14 10q0 9 8.5 11.5t19.5 2.5q28 3 37 15.5t9 36.5q-1 19 -1 30v235z" />
    <glyph glyph-name="idieresis" unicode="&#x43f;" horiz-adv-x="540" 
d="M90 337q1 21 1 30q0 25 -7 35q-10 14 -39 17q-14 0 -21 2t-7 12t14 10q16 0 53.5 -2t41.5 -2h292q15 0 52.5 2t41.5 2q12 0 12 -11q0 -8 -8.5 -10.5t-19.5 -2.5q-28 -3 -37 -15.5t-9 -36.5q1 -19 1 -30v-235q-1 -21 -1 -30q0 -24 9 -36.5t37 -15.5q28 0 28 -13
q0 -11 -12 -11q-17 0 -41 1.5t-53 2.5q-17 0 -55.5 -2t-39.5 -2q-14 0 -14 10q0 9 8.5 11.5t19.5 2.5q28 3 37 15.5t9 36.5q-1 19 -1 30v284v16q-3 11 -20 11h-185q-14 0 -16 -7.5t-2 -18.5v-285q-1 -21 -1 -30q0 -24 9 -36.5t37 -15.5q28 0 28 -13q0 -11 -12 -11
q-17 0 -41 1.5t-53 2.5q-17 0 -55.5 -2t-39.5 -2q-14 0 -14 10q0 9 8.5 11.5t19.5 2.5q28 3 37 15.5t9 36.5q-1 19 -1 30v235z" />
    <glyph glyph-name="eth" unicode="&#xf0;" horiz-adv-x="580" 
d="M95 290v14q0 16 -2.5 30.5t-8.5 21t-28 6.5h-13q-12 0 -12 8q0 9 21 16t47 23t38 30q3 4 7.5 8.5t10.5 4.5q9 0 9 -16v-55q42 34 83 52.5t86 18.5q41 0 81 -19.5t69.5 -50t45.5 -73t16 -85.5q0 -103 -71.5 -169.5t-178.5 -66.5q-25 0 -46 5t-54 16q-12 2 -23 5
q-9 0 -9 -18q1 -10 1 -12v-107q-1 -21 -1 -30q0 -24 9 -36.5t37 -15.5t28 -13q0 -11 -12 -11q-17 0 -41 1.5t-53 2.5q-17 0 -55.5 -2t-39.5 -2q-14 0 -14 10q0 9 6 11t28 4t31 14.5t9 36.5q-1 19 -1 30v413zM416 357q-50 52 -122 52q-33 0 -64 -13t-49 -39
q-11 -13 -14 -28.5t-3 -40.5v-155q0 -34 6 -57t26 -41q16 -13 40 -21t47 -8q83 0 136 63q50 59 50 142q0 43 -12.5 80t-40.5 66z" />
    <glyph glyph-name="eth" unicode="&#x440;" horiz-adv-x="580" 
d="M95 290v14q0 16 -2.5 30.5t-8.5 21t-28 6.5h-13q-12 0 -12 8q0 9 21 16t47 23t38 30q3 4 7.5 8.5t10.5 4.5q9 0 9 -16v-55q42 34 83 52.5t86 18.5q41 0 81 -19.5t69.5 -50t45.5 -73t16 -85.5q0 -103 -71.5 -169.5t-178.5 -66.5q-25 0 -46 5t-54 16q-12 2 -23 5
q-9 0 -9 -18q1 -10 1 -12v-107q-1 -21 -1 -30q0 -24 9 -36.5t37 -15.5t28 -13q0 -11 -12 -11q-17 0 -41 1.5t-53 2.5q-17 0 -55.5 -2t-39.5 -2q-14 0 -14 10q0 9 6 11t28 4t31 14.5t9 36.5q-1 19 -1 30v413zM416 357q-50 52 -122 52q-33 0 -64 -13t-49 -39
q-11 -13 -14 -28.5t-3 -40.5v-155q0 -34 6 -57t26 -41q16 -13 40 -21t47 -8q83 0 136 63q50 59 50 142q0 43 -12.5 80t-40.5 66z" />
    <glyph glyph-name="ntilde" unicode="&#xf1;" horiz-adv-x="460" 
d="M414 324q-10 0 -47 55t-84 55q-26 0 -53 -11.5t-48 -29.5q-34 -29 -53 -72.5t-19 -89.5q0 -80 51 -141q55 -65 136 -65q35 0 63 10.5t52 33.5q12 12 15 12q7 0 7 -8q0 -6 -12 -19q-8 -9 -18 -17q-61 -49 -145 -49q-92 0 -158 66t-66 157q0 100 78.5 170.5t181.5 70.5
q31 0 65.5 -8.5t57.5 -24.5q9 -6 9 -25q-1 -14 -1 -19q1 -12 1 -21q0 -15 -2.5 -22.5t-10.5 -7.5z" />
    <glyph glyph-name="ntilde" unicode="&#x441;" horiz-adv-x="460" 
d="M414 324q-10 0 -47 55t-84 55q-26 0 -53 -11.5t-48 -29.5q-34 -29 -53 -72.5t-19 -89.5q0 -80 51 -141q55 -65 136 -65q35 0 63 10.5t52 33.5q12 12 15 12q7 0 7 -8q0 -6 -12 -19q-8 -9 -18 -17q-61 -49 -145 -49q-92 0 -158 66t-66 157q0 100 78.5 170.5t181.5 70.5
q31 0 65.5 -8.5t57.5 -24.5q9 -6 9 -25q-1 -14 -1 -19q1 -12 1 -21q0 -15 -2.5 -22.5t-10.5 -7.5z" />
    <glyph glyph-name="ograve" unicode="&#xf2;" horiz-adv-x="460" 
d="M313 20q6 -1 13 -1q10 -2 10 -11q0 -12 -16 -12l-89 3l-94 -3q-16 0 -16 12q0 9 6 10.5t16 1.5q32 0 42 12t10 38q-1 21 -1 33v294q0 18 -11 18q-11 -1 -20 -1q-50 0 -82 -24q-25 -18 -57 -68q0 -5 -6.5 -11.5t-13.5 -6.5q-5 0 -8 4t-3 8t1 8t4 9l37 123q0 12 13 12
q10 0 10 -11q0 -9 4 -12.5t9 -4.5t13 -1h15h282h15q16 0 20.5 3t8.5 12q0 14 14 14q11 0 11 -16q-1 -11 -1 -13l-5 -116q0 -15 -13 -15q-11 0 -11 13q-6 27 -13 45t-21 30t-28 15t-39 3h-24h-21q-11 0 -11 -15v-17v-279q0 -9 -0.5 -17t-0.5 -16q0 -26 9.5 -38t41.5 -12z" />
    <glyph glyph-name="ograve" unicode="&#x442;" horiz-adv-x="460" 
d="M313 20q6 -1 13 -1q10 -2 10 -11q0 -12 -16 -12l-89 3l-94 -3q-16 0 -16 12q0 9 6 10.5t16 1.5q32 0 42 12t10 38q-1 21 -1 33v294q0 18 -11 18q-11 -1 -20 -1q-50 0 -82 -24q-25 -18 -57 -68q0 -5 -6.5 -11.5t-13.5 -6.5q-5 0 -8 4t-3 8t1 8t4 9l37 123q0 12 13 12
q10 0 10 -11q0 -9 4 -12.5t9 -4.5t13 -1h15h282h15q16 0 20.5 3t8.5 12q0 14 14 14q11 0 11 -16q-1 -11 -1 -13l-5 -116q0 -15 -13 -15q-11 0 -11 13q-6 27 -13 45t-21 30t-28 15t-39 3h-24h-21q-11 0 -11 -15v-17v-279q0 -9 -0.5 -17t-0.5 -16q0 -26 9.5 -38t41.5 -12z" />
    <glyph glyph-name="oacute" unicode="&#xf3;" horiz-adv-x="480" 
d="M376 341q9 19 9 20q5 14 5 22q0 20 -16 28t-37 8q-23 0 -23 7q0 13 14 13h159q15 0 15 -14q0 -3 -8.5 -4.5t-16 -2t-20 -6t-20.5 -16.5q-12 -15 -30 -52q-12 -24 -25 -55l-201 -474q-8 -26 -15 -33t-34 -7q-28 0 -37 3q-19 7 -19 29q0 20 6 29.5t26 9.5h22q15 0 23.5 2
t15.5 14q2 4 10 22l34 79q3 7 6 14.5t3 15.5q0 9 -5 20.5t-9 22.5l-132 312q-17 42 -21 47q-16 24 -42 24q-24 0 -24 7q0 13 19 13h193q14 0 14 -13q0 -4 -10 -5.5t-14 -1.5q-25 0 -38 -8.5t-13 -21.5q0 -9 4 -21q1 -4 8 -20l112 -268z" />
    <glyph glyph-name="oacute" unicode="&#x443;" horiz-adv-x="480" 
d="M376 341q9 19 9 20q5 14 5 22q0 20 -16 28t-37 8q-23 0 -23 7q0 13 14 13h159q15 0 15 -14q0 -3 -8.5 -4.5t-16 -2t-20 -6t-20.5 -16.5q-12 -15 -30 -52q-12 -24 -25 -55l-201 -474q-8 -26 -15 -33t-34 -7q-28 0 -37 3q-19 7 -19 29q0 20 6 29.5t26 9.5h22q15 0 23.5 2
t15.5 14q2 4 10 22l34 79q3 7 6 14.5t3 15.5q0 9 -5 20.5t-9 22.5l-132 312q-17 42 -21 47q-16 24 -42 24q-24 0 -24 7q0 13 19 13h193q14 0 14 -13q0 -4 -10 -5.5t-14 -1.5q-25 0 -38 -8.5t-13 -21.5q0 -9 4 -21q1 -4 8 -20l112 -268z" />
    <glyph glyph-name="ocircumflex" unicode="&#xf4;" horiz-adv-x="780" 
d="M356 -16q1 7 1 13q0 17 -9 17t-27.5 -7.5t-33.5 -13t-32 -5.5q-103 0 -161.5 65t-58.5 171q0 49 11 90t39.5 72.5t59.5 48.5t72 17q46 0 74.5 -14.5t64.5 -56.5v177v24q0 19 -1.5 25t-8 12.5t-14.5 8.5t-15 2l-13 -1q-13 0 -13 9q0 8 5.5 10t25 6t40 11t35.5 17.5
t19 10.5q9 0 9 -16v-296q34 39 64.5 55t74.5 16q40 0 72 -17.5t60 -48.5t39 -71.5t11 -90.5q0 -106 -58 -171t-162 -65q-17 0 -25.5 2t-44.5 18q-5 1 -8 2q-13 4 -15 4q-5 0 -7 -5t-2 -12q1 -10 1 -13v-107q-1 -21 -1 -30q0 -24 9 -36.5t37 -15.5q28 0 28 -13q0 -11 -12 -11
q-17 0 -41 1.5t-53 2.5q-17 0 -55.5 -2t-39.5 -2q-14 0 -14 10q0 9 8.5 11.5t19.5 2.5q28 3 37 15.5t9 36.5q-1 19 -1 30v107zM111 211q0 -88 34 -141q41 -64 122 -64q17 0 31 8q7 4 26.5 21t25.5 40.5t6 57.5v155q0 25 -3 39.5t-14 29.5q-37 52 -83 52q-35 0 -58 -11
t-46 -38t-32 -66t-9 -83zM629 360q-42 49 -104 49q-46 0 -83 -52q-8 -11 -12.5 -25.5t-4.5 -43.5v-155q0 -33 6 -57t26 -41q16 -14 28.5 -21.5t28.5 -7.5q80 0 121 63q35 54 35 142q0 62 -10.5 94t-30.5 55z" />
    <glyph glyph-name="ocircumflex" unicode="&#x444;" horiz-adv-x="780" 
d="M356 -16q1 7 1 13q0 17 -9 17t-27.5 -7.5t-33.5 -13t-32 -5.5q-103 0 -161.5 65t-58.5 171q0 49 11 90t39.5 72.5t59.5 48.5t72 17q46 0 74.5 -14.5t64.5 -56.5v177v24q0 19 -1.5 25t-8 12.5t-14.5 8.5t-15 2l-13 -1q-13 0 -13 9q0 8 5.5 10t25 6t40 11t35.5 17.5
t19 10.5q9 0 9 -16v-296q34 39 64.5 55t74.5 16q40 0 72 -17.5t60 -48.5t39 -71.5t11 -90.5q0 -106 -58 -171t-162 -65q-17 0 -25.5 2t-44.5 18q-5 1 -8 2q-13 4 -15 4q-5 0 -7 -5t-2 -12q1 -10 1 -13v-107q-1 -21 -1 -30q0 -24 9 -36.5t37 -15.5q28 0 28 -13q0 -11 -12 -11
q-17 0 -41 1.5t-53 2.5q-17 0 -55.5 -2t-39.5 -2q-14 0 -14 10q0 9 8.5 11.5t19.5 2.5q28 3 37 15.5t9 36.5q-1 19 -1 30v107zM111 211q0 -88 34 -141q41 -64 122 -64q17 0 31 8q7 4 26.5 21t25.5 40.5t6 57.5v155q0 25 -3 39.5t-14 29.5q-37 52 -83 52q-35 0 -58 -11
t-46 -38t-32 -66t-9 -83zM629 360q-42 49 -104 49q-46 0 -83 -52q-8 -11 -12.5 -25.5t-4.5 -43.5v-155q0 -33 6 -57t26 -41q16 -14 28.5 -21.5t28.5 -7.5q80 0 121 63q35 54 35 142q0 62 -10.5 94t-30.5 55z" />
    <glyph glyph-name="otilde" unicode="&#xf5;" horiz-adv-x="520" 
d="M176 111q-19 -24 -25 -33q-16 -25 -16 -38q0 -12 12.5 -16t28.5 -4q26 0 26 -14q0 -10 -16 -10q-14 0 -47.5 2t-36.5 2q-15 0 -45 -2t-45 -2q-12 0 -12 9q0 10 10.5 12.5t14.5 2.5q31 0 62 26q18 15 48 53l69 86q6 9 12 17.5t6 12.5q0 5 -9 17l-99 129q-32 41 -33 42
q-18 16 -50 16q-24 0 -24 9q0 11 7 11h216h11q5 -2 5 -9q0 -11 -19 -11q-23 0 -35 -2.5t-12 -16.5q0 -10 10 -25q3 -4 17 -22l63 -85l55 69q11 13 20 27q14 21 14 30q0 13 -11.5 19t-25.5 6q-25 0 -25 10t14 10h181q17 0 17 -11q0 -4 -7 -6.5t-20 -2.5q-41 0 -68 -20
q-16 -12 -51 -55l-51 -62q-7 -8 -14 -17.5t-7 -16.5q0 -6 7 -16q4 -6 12 -15l103 -138q12 -16 22 -28q16 -19 26 -25t33 -6t23 -13q0 -11 -19 -11t-66 2t-50 2q-15 0 -51 -2t-38 -2q-13 0 -13 11q0 13 22 13h13q15 0 26 3.5t11 14.5q0 9 -10 24q-3 4 -17 22l-84 109z" />
    <glyph glyph-name="otilde" unicode="&#x445;" horiz-adv-x="520" 
d="M176 111q-19 -24 -25 -33q-16 -25 -16 -38q0 -12 12.5 -16t28.5 -4q26 0 26 -14q0 -10 -16 -10q-14 0 -47.5 2t-36.5 2q-15 0 -45 -2t-45 -2q-12 0 -12 9q0 10 10.5 12.5t14.5 2.5q31 0 62 26q18 15 48 53l69 86q6 9 12 17.5t6 12.5q0 5 -9 17l-99 129q-32 41 -33 42
q-18 16 -50 16q-24 0 -24 9q0 11 7 11h216h11q5 -2 5 -9q0 -11 -19 -11q-23 0 -35 -2.5t-12 -16.5q0 -10 10 -25q3 -4 17 -22l63 -85l55 69q11 13 20 27q14 21 14 30q0 13 -11.5 19t-25.5 6q-25 0 -25 10t14 10h181q17 0 17 -11q0 -4 -7 -6.5t-20 -2.5q-41 0 -68 -20
q-16 -12 -51 -55l-51 -62q-7 -8 -14 -17.5t-7 -16.5q0 -6 7 -16q4 -6 12 -15l103 -138q12 -16 22 -28q16 -19 26 -25t33 -6t23 -13q0 -11 -19 -11t-66 2t-50 2q-15 0 -51 -2t-38 -2q-13 0 -13 11q0 13 22 13h13q15 0 26 3.5t11 14.5q0 9 -10 24q-3 4 -17 22l-84 109z" />
    <glyph glyph-name="odieresis" unicode="&#xf6;" horiz-adv-x="540" 
d="M384 0h-258q-17 0 -55.5 -2t-39.5 -2q-14 0 -14 10q0 9 8.5 11.5t19.5 2.5q28 3 37 15.5t9 36.5q-1 19 -1 30v235q1 21 1 30q0 25 -7 35q-10 14 -39 17q-14 0 -21 2t-7 12t14 10q16 0 53.5 -2t41.5 -2q15 0 52.5 2t41.5 2q12 0 12 -11q0 -8 -8.5 -10.5t-19.5 -2.5
q-28 -3 -37 -15.5t-9 -36.5q1 -19 1 -30v-285q0 -15 2.5 -20.5t15.5 -5.5h185q13 0 16.5 6.5t3.5 20.5v284q1 21 1 30q0 25 -7 35q-10 14 -39 17q-14 0 -21 2t-7 12t14 10q16 0 53.5 -2t41.5 -2q15 0 52.5 2t41.5 2q12 0 12 -11q0 -8 -8.5 -10.5t-19.5 -2.5
q-28 -3 -37 -15.5t-9 -36.5q1 -19 1 -30v-235q0 -50 14.5 -63.5t48.5 -13.5q10 0 10 -15q-1 -10 -1 -13l-6 -122q0 -17 -12 -17q-7 0 -9 4t-2 10q-9 39 -15.5 62t-13.5 32q-29 34 -81 34z" />
    <glyph glyph-name="odieresis" unicode="&#x446;" horiz-adv-x="540" 
d="M384 0h-258q-17 0 -55.5 -2t-39.5 -2q-14 0 -14 10q0 9 8.5 11.5t19.5 2.5q28 3 37 15.5t9 36.5q-1 19 -1 30v235q1 21 1 30q0 25 -7 35q-10 14 -39 17q-14 0 -21 2t-7 12t14 10q16 0 53.5 -2t41.5 -2q15 0 52.5 2t41.5 2q12 0 12 -11q0 -8 -8.5 -10.5t-19.5 -2.5
q-28 -3 -37 -15.5t-9 -36.5q1 -19 1 -30v-285q0 -15 2.5 -20.5t15.5 -5.5h185q13 0 16.5 6.5t3.5 20.5v284q1 21 1 30q0 25 -7 35q-10 14 -39 17q-14 0 -21 2t-7 12t14 10q16 0 53.5 -2t41.5 -2q15 0 52.5 2t41.5 2q12 0 12 -11q0 -8 -8.5 -10.5t-19.5 -2.5
q-28 -3 -37 -15.5t-9 -36.5q1 -19 1 -30v-235q0 -50 14.5 -63.5t48.5 -13.5q10 0 10 -15q-1 -10 -1 -13l-6 -122q0 -17 -12 -17q-7 0 -9 4t-2 10q-9 39 -15.5 62t-13.5 32q-29 34 -81 34z" />
    <glyph glyph-name="divide" unicode="&#xf7;" horiz-adv-x="520" 
d="M362 215q-22 -11 -43 -22q-60 -40 -111 -40q-50 0 -90 29q-48 35 -48 96v59q1 21 1 30q0 25 -7 35q-10 14 -39 17q-28 0 -28 13q0 11 12 11q17 0 41 -1.5t53 -2.5q17 0 55.5 2t39.5 2q14 0 14 -10q0 -9 -8.5 -11.5t-19.5 -2.5q-28 -3 -37 -15.5t-9 -36.5q1 -19 1 -30v-59
q0 -43 32 -65q27 -19 66 -19q23 0 55 12.5t53 28.5q12 9 14.5 21.5t2.5 62.5v18q1 21 1 30q0 25 -7 35q-10 14 -39 17q-28 0 -28 13q0 11 12 11q17 0 41 -1.5t53 -2.5q17 0 55.5 2t39.5 2q14 0 14 -10q0 -9 -8.5 -11.5t-19.5 -2.5q-28 -3 -37 -15.5t-9 -36.5q1 -19 1 -30
v-235q-1 -21 -1 -30q0 -24 9 -36.5t37 -15.5q14 0 21 -2t7 -12t-14 -10q-16 0 -53.5 2t-41.5 2q-15 0 -52.5 -2t-41.5 -2q-12 0 -12 11q0 8 8.5 10.5t19.5 2.5q28 3 37 18t9 42q0 9 -0.5 17t-0.5 15v103z" />
    <glyph glyph-name="divide" unicode="&#x447;" horiz-adv-x="520" 
d="M362 215q-22 -11 -43 -22q-60 -40 -111 -40q-50 0 -90 29q-48 35 -48 96v59q1 21 1 30q0 25 -7 35q-10 14 -39 17q-28 0 -28 13q0 11 12 11q17 0 41 -1.5t53 -2.5q17 0 55.5 2t39.5 2q14 0 14 -10q0 -9 -8.5 -11.5t-19.5 -2.5q-28 -3 -37 -15.5t-9 -36.5q1 -19 1 -30v-59
q0 -43 32 -65q27 -19 66 -19q23 0 55 12.5t53 28.5q12 9 14.5 21.5t2.5 62.5v18q1 21 1 30q0 25 -7 35q-10 14 -39 17q-28 0 -28 13q0 11 12 11q17 0 41 -1.5t53 -2.5q17 0 55.5 2t39.5 2q14 0 14 -10q0 -9 -8.5 -11.5t-19.5 -2.5q-28 -3 -37 -15.5t-9 -36.5q1 -19 1 -30
v-235q-1 -21 -1 -30q0 -24 9 -36.5t37 -15.5q14 0 21 -2t7 -12t-14 -10q-16 0 -53.5 2t-41.5 2q-15 0 -52.5 -2t-41.5 -2q-12 0 -12 11q0 8 8.5 10.5t19.5 2.5q28 3 37 18t9 42q0 9 -0.5 17t-0.5 15v103z" />
    <glyph glyph-name="oslash" unicode="&#xf8;" horiz-adv-x="740" 
d="M335 53v284q1 21 1 30q0 25 -7 35q-10 14 -39 17q-14 0 -21 2t-7 12t14 10q16 0 53.5 -2t41.5 -2q15 0 52.5 2t41.5 2q12 0 12 -11q0 -8 -8.5 -10.5t-19.5 -2.5q-28 -3 -37 -15.5t-9 -36.5q1 -19 1 -30v-284v-16q3 -11 20 -11h136q13 0 16.5 6.5t3.5 20.5v284q1 21 1 30
q0 25 -7 35q-10 14 -39 17q-14 0 -21 2t-7 12t14 10q16 0 53.5 -2t41.5 -2q15 0 52.5 2t41.5 2q12 0 12 -11q0 -8 -8.5 -10.5t-19.5 -2.5q-28 -3 -37 -15.5t-9 -36.5q1 -19 1 -30v-235q-1 -21 -1 -30q0 -24 9 -36.5t37 -15.5q28 0 28 -13q0 -11 -12 -11q-17 0 -41 1.5
t-53 2.5h-490q-17 0 -55.5 -2t-39.5 -2q-14 0 -14 10q0 9 8.5 11.5t19.5 2.5q28 3 37 15.5t9 36.5q-1 19 -1 30v235q1 21 1 30q0 25 -7 35q-10 14 -39 17q-14 0 -21 2t-7 12t14 10q16 0 53.5 -2t41.5 -2q15 0 52.5 2t41.5 2q12 0 12 -11q0 -8 -8.5 -10.5t-19.5 -2.5
q-28 -3 -37 -15.5t-9 -36.5q1 -19 1 -30v-285q0 -15 2.5 -20.5t15.5 -5.5h138q13 0 16.5 6.5t3.5 20.5z" />
    <glyph glyph-name="oslash" unicode="&#x448;" horiz-adv-x="740" 
d="M335 53v284q1 21 1 30q0 25 -7 35q-10 14 -39 17q-14 0 -21 2t-7 12t14 10q16 0 53.5 -2t41.5 -2q15 0 52.5 2t41.5 2q12 0 12 -11q0 -8 -8.5 -10.5t-19.5 -2.5q-28 -3 -37 -15.5t-9 -36.5q1 -19 1 -30v-284v-16q3 -11 20 -11h136q13 0 16.5 6.5t3.5 20.5v284q1 21 1 30
q0 25 -7 35q-10 14 -39 17q-14 0 -21 2t-7 12t14 10q16 0 53.5 -2t41.5 -2q15 0 52.5 2t41.5 2q12 0 12 -11q0 -8 -8.5 -10.5t-19.5 -2.5q-28 -3 -37 -15.5t-9 -36.5q1 -19 1 -30v-235q-1 -21 -1 -30q0 -24 9 -36.5t37 -15.5q28 0 28 -13q0 -11 -12 -11q-17 0 -41 1.5
t-53 2.5h-490q-17 0 -55.5 -2t-39.5 -2q-14 0 -14 10q0 9 8.5 11.5t19.5 2.5q28 3 37 15.5t9 36.5q-1 19 -1 30v235q1 21 1 30q0 25 -7 35q-10 14 -39 17q-14 0 -21 2t-7 12t14 10q16 0 53.5 -2t41.5 -2q15 0 52.5 2t41.5 2q12 0 12 -11q0 -8 -8.5 -10.5t-19.5 -2.5
q-28 -3 -37 -15.5t-9 -36.5q1 -19 1 -30v-285q0 -15 2.5 -20.5t15.5 -5.5h138q13 0 16.5 6.5t3.5 20.5z" />
    <glyph glyph-name="ugrave" unicode="&#xf9;" horiz-adv-x="740" 
d="M582 0h-456q-17 0 -55.5 -2t-39.5 -2q-14 0 -14 10q0 9 8.5 11.5t19.5 2.5q28 3 37 15.5t9 36.5q-1 19 -1 30v235q1 21 1 30q0 25 -7 35q-10 14 -39 17q-14 0 -21 2t-7 12t14 10q16 0 53.5 -2t41.5 -2q15 0 52.5 2t41.5 2q12 0 12 -11q0 -8 -8.5 -10.5t-19.5 -2.5
q-28 -3 -37 -15.5t-9 -36.5q1 -19 1 -30v-285q0 -15 2.5 -20.5t15.5 -5.5h138q13 0 16.5 6.5t3.5 20.5v284q1 21 1 30q0 25 -7 35q-10 14 -39 17q-14 0 -21 2t-7 12t14 10q16 0 53.5 -2t41.5 -2q15 0 52.5 2t41.5 2q12 0 12 -11q0 -8 -8.5 -10.5t-19.5 -2.5
q-28 -3 -37 -15.5t-9 -36.5q1 -19 1 -30v-284v-16q3 -11 20 -11h136q13 0 16.5 6.5t3.5 20.5v284q1 21 1 30q0 25 -7 35q-10 14 -39 17q-14 0 -21 2t-7 12t14 10q16 0 53.5 -2t41.5 -2q15 0 52.5 2t41.5 2q12 0 12 -11q0 -8 -8.5 -10.5t-19.5 -2.5q-28 -3 -37 -15.5
t-9 -36.5q1 -19 1 -30v-235q0 -50 14.5 -63.5t48.5 -13.5q10 0 10 -15q-1 -10 -1 -13l-6 -122q0 -17 -12 -17q-7 0 -9 4t-2 10q-9 39 -15.5 62t-13.5 32q-29 34 -81 34z" />
    <glyph glyph-name="ugrave" unicode="&#x449;" horiz-adv-x="740" 
d="M582 0h-456q-17 0 -55.5 -2t-39.5 -2q-14 0 -14 10q0 9 8.5 11.5t19.5 2.5q28 3 37 15.5t9 36.5q-1 19 -1 30v235q1 21 1 30q0 25 -7 35q-10 14 -39 17q-14 0 -21 2t-7 12t14 10q16 0 53.5 -2t41.5 -2q15 0 52.5 2t41.5 2q12 0 12 -11q0 -8 -8.5 -10.5t-19.5 -2.5
q-28 -3 -37 -15.5t-9 -36.5q1 -19 1 -30v-285q0 -15 2.5 -20.5t15.5 -5.5h138q13 0 16.5 6.5t3.5 20.5v284q1 21 1 30q0 25 -7 35q-10 14 -39 17q-14 0 -21 2t-7 12t14 10q16 0 53.5 -2t41.5 -2q15 0 52.5 2t41.5 2q12 0 12 -11q0 -8 -8.5 -10.5t-19.5 -2.5
q-28 -3 -37 -15.5t-9 -36.5q1 -19 1 -30v-284v-16q3 -11 20 -11h136q13 0 16.5 6.5t3.5 20.5v284q1 21 1 30q0 25 -7 35q-10 14 -39 17q-14 0 -21 2t-7 12t14 10q16 0 53.5 -2t41.5 -2q15 0 52.5 2t41.5 2q12 0 12 -11q0 -8 -8.5 -10.5t-19.5 -2.5q-28 -3 -37 -15.5
t-9 -36.5q1 -19 1 -30v-235q0 -50 14.5 -63.5t48.5 -13.5q10 0 10 -15q-1 -10 -1 -13l-6 -122q0 -17 -12 -17q-7 0 -9 4t-2 10q-9 39 -15.5 62t-13.5 32q-29 34 -81 34z" />
    <glyph glyph-name="uacute" unicode="&#xfa;" horiz-adv-x="500" 
d="M194 439l90 3q16 0 16 -12q0 -9 -9 -11h-14q-31 -3 -40.5 -15.5t-9.5 -38.5v-28v-83q0 -6 0.5 -11t8.5 -5q1 0 39 6t48 6q62 0 106.5 -37t44.5 -94q0 -29 -16 -55.5t-43 -43.5q-21 -13 -47.5 -18.5t-56.5 -5.5l-123 3l-86 -3q-16 0 -16 13q0 8 6 9.5t16 1.5
q31 3 40.5 15.5t9.5 38.5v28v272q0 30 -3.5 35.5t-24.5 5.5q-37 0 -71 -35q-25 -26 -61 -85q-4 -7 -9.5 -15.5t-12.5 -8.5q-10 0 -10 12q0 3 3 12t3 12l39 122q0 14 15 14q11 -1 50 -2.5t118 -1.5zM227 72q0 -38 6.5 -47.5t43.5 -9.5q28 0 48 4.5t37 18.5q41 33 41 84
q0 42 -30 72t-76 30q-12 0 -31 -4t-29 -10t-10 -20v-14v-104z" />
    <glyph glyph-name="uacute" unicode="&#x44a;" horiz-adv-x="500" 
d="M194 439l90 3q16 0 16 -12q0 -9 -9 -11h-14q-31 -3 -40.5 -15.5t-9.5 -38.5v-28v-83q0 -6 0.5 -11t8.5 -5q1 0 39 6t48 6q62 0 106.5 -37t44.5 -94q0 -29 -16 -55.5t-43 -43.5q-21 -13 -47.5 -18.5t-56.5 -5.5l-123 3l-86 -3q-16 0 -16 13q0 8 6 9.5t16 1.5
q31 3 40.5 15.5t9.5 38.5v28v272q0 30 -3.5 35.5t-24.5 5.5q-37 0 -71 -35q-25 -26 -61 -85q-4 -7 -9.5 -15.5t-12.5 -8.5q-10 0 -10 12q0 3 3 12t3 12l39 122q0 14 15 14q11 -1 50 -2.5t118 -1.5zM227 72q0 -38 6.5 -47.5t43.5 -9.5q28 0 48 4.5t37 18.5q41 33 41 84
q0 42 -30 72t-76 30q-12 0 -31 -4t-29 -10t-10 -20v-14v-104z" />
    <glyph glyph-name="ucircumflex" unicode="&#xfb;" horiz-adv-x="640" 
d="M480 337q1 22 1 32q0 25 -7 34q-10 13 -39 16q-28 0 -28 13q0 11 12 11q17 0 41 -1.5t53 -2.5q17 0 55.5 2t39.5 2q14 0 14 -10q0 -9 -8.5 -11.5t-19.5 -2.5q-28 -3 -37 -15.5t-9 -36.5q1 -19 1 -30v-235q-1 -21 -1 -30q0 -24 9 -36.5t37 -15.5q14 0 21 -2t7 -12t-14 -10
q-16 0 -53.5 2t-41.5 2q-15 0 -52.5 -2t-41.5 -2q-12 0 -12 11q0 8 8.5 10.5t19.5 2.5q28 3 37 15.5t9 36.5q-1 19 -1 30v235zM90 337q1 22 1 32q0 26 -8 36q-11 14 -44 14h-13q-9 2 -9 11q0 12 16 12l92 -3l91 3q16 0 16 -12q0 -8 -10 -9.5t-27 -3t-26.5 -14t-9.5 -38.5
v-28v-83q0 -6 0.5 -11t8.5 -5q1 0 39 6t48 6q62 0 106.5 -37t44.5 -94q0 -29 -16 -55.5t-43 -43.5q-21 -13 -47.5 -18.5t-56.5 -5.5l-123 3l-86 -3q-16 0 -16 13q0 8 8 10q11 1 14 1q31 3 40.5 15.5t9.5 38.5v28v235zM159 72q0 -38 6.5 -47.5t43.5 -9.5q28 0 48 4.5t37 18.5
q41 33 41 84q0 42 -30 72t-76 30q-12 0 -31 -4t-29 -10t-10 -20v-14v-104z" />
    <glyph glyph-name="ucircumflex" unicode="&#x44b;" horiz-adv-x="640" 
d="M480 337q1 22 1 32q0 25 -7 34q-10 13 -39 16q-28 0 -28 13q0 11 12 11q17 0 41 -1.5t53 -2.5q17 0 55.5 2t39.5 2q14 0 14 -10q0 -9 -8.5 -11.5t-19.5 -2.5q-28 -3 -37 -15.5t-9 -36.5q1 -19 1 -30v-235q-1 -21 -1 -30q0 -24 9 -36.5t37 -15.5q14 0 21 -2t7 -12t-14 -10
q-16 0 -53.5 2t-41.5 2q-15 0 -52.5 -2t-41.5 -2q-12 0 -12 11q0 8 8.5 10.5t19.5 2.5q28 3 37 15.5t9 36.5q-1 19 -1 30v235zM90 337q1 22 1 32q0 26 -8 36q-11 14 -44 14h-13q-9 2 -9 11q0 12 16 12l92 -3l91 3q16 0 16 -12q0 -8 -10 -9.5t-27 -3t-26.5 -14t-9.5 -38.5
v-28v-83q0 -6 0.5 -11t8.5 -5q1 0 39 6t48 6q62 0 106.5 -37t44.5 -94q0 -29 -16 -55.5t-43 -43.5q-21 -13 -47.5 -18.5t-56.5 -5.5l-123 3l-86 -3q-16 0 -16 13q0 8 8 10q11 1 14 1q31 3 40.5 15.5t9.5 38.5v28v235zM159 72q0 -38 6.5 -47.5t43.5 -9.5q28 0 48 4.5t37 18.5
q41 33 41 84q0 42 -30 72t-76 30q-12 0 -31 -4t-29 -10t-10 -20v-14v-104z" />
    <glyph glyph-name="udieresis" unicode="&#xfc;" horiz-adv-x="430" 
d="M90 337q1 22 1 32q0 26 -8 36q-11 14 -44 14h-13q-9 2 -9 11q0 12 16 12l92 -3l91 3q16 0 16 -12q0 -8 -10 -9.5t-27 -3t-26.5 -14t-9.5 -38.5v-28v-83q0 -6 0.5 -11t8.5 -5q1 0 39 6t48 6q62 0 106.5 -37t44.5 -94q0 -29 -16 -55.5t-43 -43.5q-21 -13 -47.5 -18.5
t-56.5 -5.5l-123 3l-86 -3q-16 0 -16 13q0 8 8 10q11 1 14 1q31 3 40.5 15.5t9.5 38.5v28v235zM159 72q0 -38 6.5 -47.5t43.5 -9.5q28 0 48 4.5t37 18.5q41 33 41 84q0 42 -30 72t-76 30q-12 0 -31 -4t-29 -10t-10 -20v-14v-104z" />
    <glyph glyph-name="udieresis" unicode="&#x44c;" horiz-adv-x="430" 
d="M90 337q1 22 1 32q0 26 -8 36q-11 14 -44 14h-13q-9 2 -9 11q0 12 16 12l92 -3l91 3q16 0 16 -12q0 -8 -10 -9.5t-27 -3t-26.5 -14t-9.5 -38.5v-28v-83q0 -6 0.5 -11t8.5 -5q1 0 39 6t48 6q62 0 106.5 -37t44.5 -94q0 -29 -16 -55.5t-43 -43.5q-21 -13 -47.5 -18.5
t-56.5 -5.5l-123 3l-86 -3q-16 0 -16 13q0 8 8 10q11 1 14 1q31 3 40.5 15.5t9.5 38.5v28v235zM159 72q0 -38 6.5 -47.5t43.5 -9.5q28 0 48 4.5t37 18.5q41 33 41 84q0 42 -30 72t-76 30q-12 0 -31 -4t-29 -10t-10 -20v-14v-104z" />
    <glyph glyph-name="yacute" unicode="&#xfd;" horiz-adv-x="460" 
d="M127 224q-13 0 -13 13t13 13h223q-8 88 -71 143q-21 18 -48 29.5t-53 11.5q-47 0 -84 -55t-47 -55q-7 0 -10 9t-3 21q1 18 1 21q-1 12 -1 19q0 19 9 25q23 16 57 24.5t66 8.5q102 0 181 -71t79 -170q0 -91 -66 -157t-158 -66q-84 0 -145 49q-10 8 -17 16q-13 14 -13 20
q0 8 7 8q3 0 9 -6l6 -6q45 -44 115 -44q79 0 133 61t54 138h-224z" />
    <glyph glyph-name="yacute" unicode="&#x44d;" horiz-adv-x="460" 
d="M127 224q-13 0 -13 13t13 13h223q-8 88 -71 143q-21 18 -48 29.5t-53 11.5q-47 0 -84 -55t-47 -55q-7 0 -10 9t-3 21q1 18 1 21q-1 12 -1 19q0 19 9 25q23 16 57 24.5t66 8.5q102 0 181 -71t79 -170q0 -91 -66 -157t-158 -66q-84 0 -145 49q-10 8 -17 16q-13 14 -13 20
q0 8 7 8q3 0 9 -6l6 -6q45 -44 115 -44q79 0 133 61t54 138h-224z" />
    <glyph glyph-name="thorn" unicode="&#xfe;" horiz-adv-x="700" 
d="M229 224h-52q-14 0 -16 -2t-2 -14v-106q-1 -21 -1 -30q0 -24 9 -36.5t37 -15.5q28 0 28 -13q0 -11 -12 -11q-17 0 -41 1.5t-53 2.5q-17 0 -55.5 -2t-39.5 -2q-14 0 -14 10q0 9 8.5 11.5t19.5 2.5q28 3 37 15.5t9 36.5q-1 19 -1 30v235q1 21 1 30q0 25 -7 35
q-10 14 -39 17q-14 0 -21 2t-7 12t14 10q16 0 53.5 -2t41.5 -2q15 0 52.5 2t41.5 2q12 0 12 -11q0 -8 -8.5 -10.5t-19.5 -2.5q-28 -3 -37 -15.5t-9 -36.5q1 -19 1 -30v-71q0 -12 2 -14t16 -2h52q14 0 14 12q13 74 57 123q30 34 70 50.5t84 16.5q43 0 79 -13.5t66 -44.5
q33 -31 51 -75.5t18 -94.5q0 -100 -63 -168t-151 -68q-86 0 -148 63q-65 66 -65 161q0 12 -12 12zM594 217q0 86 -33 146q-38 70 -108 70q-66 0 -105 -63q-35 -57 -35 -141q0 -85 35 -148q41 -74 109 -74q64 0 103 69q34 61 34 141z" />
    <glyph glyph-name="thorn" unicode="&#x44e;" horiz-adv-x="700" 
d="M229 224h-52q-14 0 -16 -2t-2 -14v-106q-1 -21 -1 -30q0 -24 9 -36.5t37 -15.5q28 0 28 -13q0 -11 -12 -11q-17 0 -41 1.5t-53 2.5q-17 0 -55.5 -2t-39.5 -2q-14 0 -14 10q0 9 8.5 11.5t19.5 2.5q28 3 37 15.5t9 36.5q-1 19 -1 30v235q1 21 1 30q0 25 -7 35
q-10 14 -39 17q-14 0 -21 2t-7 12t14 10q16 0 53.5 -2t41.5 -2q15 0 52.5 2t41.5 2q12 0 12 -11q0 -8 -8.5 -10.5t-19.5 -2.5q-28 -3 -37 -15.5t-9 -36.5q1 -19 1 -30v-71q0 -12 2 -14t16 -2h52q14 0 14 12q13 74 57 123q30 34 70 50.5t84 16.5q43 0 79 -13.5t66 -44.5
q33 -31 51 -75.5t18 -94.5q0 -100 -63 -168t-151 -68q-86 0 -148 63q-65 66 -65 161q0 12 -12 12zM594 217q0 86 -33 146q-38 70 -108 70q-66 0 -105 -63q-35 -57 -35 -141q0 -85 35 -148q41 -74 109 -74q64 0 103 69q34 61 34 141z" />
    <glyph glyph-name="ydieresis" unicode="&#xff;" horiz-adv-x="480" 
d="M390 102q0 -49 4 -59q9 -23 47 -23h13q9 -2 9 -11q0 -12 -16 -12l-93 3l-90 -3q-17 0 -17 12q0 9 10.5 10t13.5 1q32 3 41 16.5t9 42.5v23v82q0 6 -0.5 14.5t-3.5 11.5t-16 3q-47 0 -63 -8.5t-35 -45.5l-68 -136l-6 -12q-9 -14 -24 -14l-36 3l-50 -3q-17 0 -17 11
q0 9 10.5 11t13.5 2q25 5 47 50l61 106q6 13 18.5 23.5t33.5 20.5q-54 9 -91 36q-43 32 -43 75q0 55 48 85q42 26 107 26l159 -4l80 3q17 0 17 -13q0 -8 -9.5 -9t-28 -2.5t-27 -15t-8.5 -44.5v-21v-235zM321 369q0 36 -15 44.5t-66 8.5q-53 0 -83 -25t-30 -72q0 -43 36 -69
q20 -12 52 -17t67 -5h16q23 0 23 10v125z" />
    <glyph glyph-name="ydieresis" unicode="&#x44f;" horiz-adv-x="480" 
d="M390 102q0 -49 4 -59q9 -23 47 -23h13q9 -2 9 -11q0 -12 -16 -12l-93 3l-90 -3q-17 0 -17 12q0 9 10.5 10t13.5 1q32 3 41 16.5t9 42.5v23v82q0 6 -0.5 14.5t-3.5 11.5t-16 3q-47 0 -63 -8.5t-35 -45.5l-68 -136l-6 -12q-9 -14 -24 -14l-36 3l-50 -3q-17 0 -17 11
q0 9 10.5 11t13.5 2q25 5 47 50l61 106q6 13 18.5 23.5t33.5 20.5q-54 9 -91 36q-43 32 -43 75q0 55 48 85q42 26 107 26l159 -4l80 3q17 0 17 -13q0 -8 -9.5 -9t-28 -2.5t-27 -15t-8.5 -44.5v-21v-235zM321 369q0 36 -15 44.5t-66 8.5q-53 0 -83 -25t-30 -72q0 -43 36 -69
q20 -12 52 -17t67 -5h16q23 0 23 10v125z" />
    <glyph glyph-name="endash" unicode="&#x2013;" horiz-adv-x="500" 
d="M500 200h-516l16 51h516z" />
    <glyph glyph-name="emdash" unicode="&#x2014;" horiz-adv-x="1000" 
d="M1000 200h-1016l16 51h1016z" />
    <glyph glyph-name="quoteleft" unicode="&#x2018;" horiz-adv-x="220" 
d="M154 639q8 0 8 -8q-26 -29 -46 -58q-23 -34 -23 -61q0 -25 30 -25q35 0 35 -37q0 -19 -11.5 -31.5t-29.5 -12.5q-27 0 -41 22.5t-14 50.5q0 34 16.5 70.5t41.5 62.5q10 13 19.5 20t14.5 7z" />
    <glyph glyph-name="quoteright" unicode="&#x2019;" horiz-adv-x="220" 
d="M67 596q0 19 11 31t30 12q27 0 41 -22t14 -51q0 -34 -16.5 -70.5t-41.5 -62.5q-15 -15 -20 -19q-10 -8 -14 -8q-8 0 -8 9q26 27 47.5 59t21.5 60q0 14 -7.5 19.5t-22.5 5.5q-35 0 -35 37z" />
    <glyph glyph-name="quotesinglbase" unicode="&#x201a;" horiz-adv-x="220" 
d="M67 25q0 19 11 31t30 12q27 0 41 -22t14 -51q0 -34 -16.5 -70.5t-41.5 -62.5q-9 -9 -16 -15q-13 -11 -18 -11q-8 0 -8 8q26 27 47.5 59t21.5 60q0 14 -7.5 19.5t-22.5 5.5q-35 0 -35 37z" />
    <glyph glyph-name="quotedblleft" unicode="&#x201c;" horiz-adv-x="380" 
d="M310 639q8 0 8 -8q-26 -29 -46 -58q-23 -34 -23 -61q0 -25 30 -25q35 0 35 -37q0 -19 -11.5 -31.5t-29.5 -12.5q-27 0 -41 22.5t-14 50.5q0 34 16.5 70.5t41.5 62.5q10 13 19.5 20t14.5 7zM154 639q8 0 8 -7q-26 -28 -46 -58q-23 -34 -23 -62q0 -25 30 -25q35 0 35 -37
q0 -19 -11.5 -31.5t-29.5 -12.5q-27 0 -41 22.5t-14 51.5q0 34 16.5 70.5t41.5 62.5q9 9 16 15q13 11 18 11z" />
    <glyph glyph-name="quotedblright" unicode="&#x201d;" horiz-adv-x="380" 
d="M67 596q0 19 11 31t30 12q27 0 41 -22t14 -51q0 -34 -16.5 -70.5t-41.5 -62.5q-8 -8 -16 -15q-14 -12 -18 -12q-8 0 -8 9q26 27 47.5 59t21.5 60q0 14 -7.5 19.5t-22.5 5.5q-35 0 -35 37zM223 595q0 20 11 32t30 12q27 0 41 -22t14 -51q0 -34 -16.5 -70.5t-41.5 -62.5
q-10 -13 -19.5 -20t-14.5 -7q-8 0 -8 8q26 29 47.5 60.5t21.5 58.5q0 14 -7.5 19.5t-22.5 5.5q-35 0 -35 37z" />
    <glyph glyph-name="quotedblbase" unicode="&#x201e;" horiz-adv-x="360" 
d="M67 25q0 19 11 31t30 12q27 0 41 -22t14 -51q0 -34 -16.5 -70.5t-41.5 -62.5q-9 -9 -16 -15q-13 -11 -18 -11q-8 0 -8 8q26 27 47.5 59t21.5 60q0 14 -7.5 19.5t-22.5 5.5q-35 0 -35 37zM210 25q0 19 11 31t31 12q27 0 41 -22t14 -51q0 -34 -16.5 -70t-42.5 -63
q-10 -13 -19.5 -20t-14.5 -7q-8 0 -8 8q26 28 47.5 60t21.5 60q0 25 -29 25q-36 0 -36 37z" />
    <glyph glyph-name="dagger" unicode="&#x2020;" horiz-adv-x="400" 
d="M214 345l32 -463q0 -24 -8 -28.5t-35 -4.5q-28 0 -36.5 4t-8.5 29l32 462q0 15 -4.5 23t-19.5 8q-9 0 -25 -3t-30 -5l-36 -8q-10 -3 -18 -4.5t-15 -1.5q-12 0 -15.5 11t-3.5 27v10q0 25 19 25q17 0 47 -7q68 -16 79 -16q12 0 15 6t3 21l-12 119q-3 23 -4 32q-4 28 -4 32
q0 15 10 20.5t26 5.5q18 0 27 -5t9 -21q0 -11 -3 -29.5t-5 -34.5l-12 -120q0 -17 3.5 -21.5t14.5 -4.5q17 0 63 11.5t62 11.5q19 0 19 -25v-26q0 -22 -19 -22q-13 0 -26 5l-36 7q-20 4 -36 7t-25 3q-15 0 -19.5 -7t-4.5 -23z" />
    <glyph glyph-name="daggerdbl" unicode="&#x2021;" horiz-adv-x="400" 
d="M186 431l-12 119q-4 31 -8 63q0 15 10 20.5t26 5.5q18 0 27 -5t9 -21q0 -10 -3 -28.5t-5 -34.5l-12 -121q0 -17 3.5 -21.5t14.5 -4.5q17 0 63 11.5t62 11.5q19 0 19 -24v-27q0 -22 -19 -22q-8 0 -15 2t-11 3l-38 8q-18 4 -28 5q-22 4 -28 4q-15 0 -19.5 -8t-4.5 -23
l7 -112l-7 -87q0 -15 2.5 -23t21.5 -8q11 0 30 4t26 5l32 7q9 3 17 4.5t15 1.5q12 0 15.5 -9.5t3.5 -25.5v-13q0 -25 -18 -25q-17 0 -47 7q-69 16 -80 16q-12 0 -14.5 -6.5t-2.5 -20.5l12 -119q3 -23 5.5 -41.5t2.5 -22.5q0 -15 -10 -20.5t-26 -5.5q-18 0 -27 5t-9 21
q0 10 2.5 29t5.5 35l12 120q0 14 -3 20t-15 6q-16 0 -45 -7q-67 -16 -81 -16q-19 0 -19 24v27q1 8 4.5 15t15.5 7q9 0 14 -1.5t12 -3.5l38 -8q14 -3 19 -4q25 -5 37 -5q15 0 19.5 8t4.5 23l-7 87l7 112q0 15 -4.5 23t-19.5 8q-11 0 -30 -4t-26 -5l-32 -7q-17 -3 -33 -6
q-12 0 -15.5 11t-3.5 28v10q0 13 3.5 18.5t15.5 5.5q17 0 47 -7q68 -16 79 -16q12 0 15 6t3 22z" />
    <glyph glyph-name="bullet" unicode="&#x2022;" horiz-adv-x="620" 
d="M138 309q0 64 50.5 109.5t121.5 45.5t121.5 -45.5t50.5 -109.5t-50.5 -109.5t-121.5 -45.5t-121.5 45.5t-50.5 109.5z" />
    <glyph glyph-name="ellipsis" unicode="&#x2026;" horiz-adv-x="1000" 
d="M169 86q21 0 30.5 -14t9.5 -35q0 -23 -10 -36t-32 -13q-20 0 -32 14t-12 35q0 22 12.5 35.5t33.5 13.5zM500 86q22 0 32.5 -13.5t10.5 -35.5q0 -23 -10 -36t-33 -13q-43 0 -43 47q0 23 10 37t33 14zM834 86q22 0 32.5 -13.5t10.5 -35.5q0 -23 -10 -36t-33 -13
q-43 0 -43 47q0 23 9.5 37t33.5 14z" />
    <glyph glyph-name="perthousand" unicode="&#x2030;" horiz-adv-x="1080" 
d="M153 243q-62 0 -102 70q-34 60 -34 128t33 127q40 71 104 71q29 0 54.5 -17t44 -45t27 -62.5t8.5 -73.5q0 -38 -7.5 -70t-25 -61t-44.5 -48t-58 -19zM154 260q50 0 69 68q12 42 12 109q0 69 -11 108q-19 69 -70 69q-50 0 -71 -68q-13 -43 -13 -109t13 -109q21 -68 71 -68
zM603 609l-410 -598q-5 -7 -10 -14.5t-14 -7.5l-15 -1q-6 0 -6 6q0 4 4.5 11t8.5 11l409 599q5 8 11 16t18 8q15 0 15 -9q0 -5 -4 -10.5t-7 -10.5zM612 -12q-63 0 -102 70q-34 60 -34 128q0 70 33 128q40 70 103 70q31 0 55.5 -16t43 -44.5t27 -64t8.5 -73.5q0 -36 -7.5 -69
t-24.5 -62t-43.5 -48t-58.5 -19zM613 10q50 0 69 68q12 42 12 109q0 69 -11 109q-19 69 -70 69t-72 -68q-13 -42 -13 -110q0 -67 13 -109q21 -68 72 -68zM932 -12q-63 0 -103 70q-34 60 -34 128t34 128q40 70 103 70q30 0 55.5 -16.5t43.5 -45t26.5 -62.5t8.5 -74
q0 -36 -7.5 -69t-25 -62t-44 -48t-57.5 -19zM933 10q50 0 69 68q11 40 11 109t-11 109q-19 69 -69 69q-51 0 -72 -68q-13 -42 -13 -110q0 -67 13 -109q21 -68 72 -68z" />
    <glyph glyph-name="guilsinglleft" unicode="&#x2039;" horiz-adv-x="160" 
d="M48 255l28 39l14 20q11 13 20 13q15 0 15 -15q0 -7 -5 -16q-1 -1 -11.5 -15.5t-16.5 -25.5q-11 -19 -11 -30q0 -16 22 -48t22 -45q0 -15 -12 -15q-9 0 -18 10q-10 14 -14 19l-33 43q-5 5 -9 11q-8 11 -8 22q0 9 6.5 18.5t10.5 14.5z" />
    <glyph glyph-name="guilsinglright" unicode="&#x203a;" horiz-adv-x="160" 
d="M109 189l-33 -43q-7 -9 -14.5 -19t-17.5 -10q-12 0 -12 15q0 12 22 44t22 49q0 11 -10 29q-5 9 -18 27q-8 11 -10 14q-6 10 -6 17q0 15 15 15q10 0 20 -12q11 -16 14 -21l28 -39q7 -8 9 -11q8 -10 8 -22q0 -9 -3.5 -15t-13.5 -18z" />
    <glyph glyph-name="trademark" unicode="&#x2122;" horiz-adv-x="860" 
d="M495 639l106 -253l101 253h109v-18l-12 1q-11 0 -20 -4t-6 -14v-248q0 -26 7.5 -33.5t35.5 -7.5v-19h-142v19q29 0 36 7t7 34v245h-7l-120 -305h-8l-122 305h-7v-259q-3 -16 11 -21.5t38 -5.5v-19h-122v19q26 0 39 5t10 22v265q0 9 -9 11.5t-25 2.5v18h100zM43 556v83
h294v-83h-22q0 38 -15 49t-56 11h-26v-274q-3 -16 11 -21.5t38 -5.5v-19h-155v19q26 0 39 5t10 22v274h-20q-45 0 -57 -7q-19 -11 -19 -53h-22z" />
    </font>
</defs>
</svg>
